#N canvas 566 201 444 429 10;
#X obj 82 13 loadbang;
#N canvas 329 636 732 429 bg_loops 0;
#X msg 74 77 1;
#X msg 73 150 0;
#X obj 27 211 readsf~ 2;
#X obj 154 245 bng 15 250 50 0 empty empty empty 17 7 0 10 #fcfcfc
#000000 #000000;
#X msg 218 207 open \$1;
#X obj 191 170 t b l;
#X obj 17 278 outlet~;
#X obj 80 280 outlet~;
#X obj 167 20 inlet;
#X symbolatom 215 115 80 0 0 0 - - - 0;
#X obj 187 289 outlet;
#X obj 110 247 bng 15 250 50 0 empty empty empty 17 7 0 10 #fcfcfc
#000000 #000000;
#X obj 78 114 bng 15 250 50 0 empty empty empty 17 7 0 10 #fcfcfc #000000
#000000;
#X obj 74 188 bng 15 250 50 0 empty empty empty 17 7 0 10 #fcfcfc #000000
#000000;
#X obj 248 60 bng 15 250 50 0 empty empty empty 17 7 0 10 #fcfcfc #000000
#000000;
#X obj 194 240 delay 200;
#X connect 0 0 2 0;
#X connect 0 0 12 0;
#X connect 1 0 2 0;
#X connect 1 0 13 0;
#X connect 2 0 6 0;
#X connect 2 1 7 0;
#X connect 2 2 3 0;
#X connect 2 2 11 0;
#X connect 3 0 10 0;
#X connect 4 0 2 0;
#X connect 5 0 15 0;
#X connect 5 1 4 0;
#X connect 8 0 9 0;
#X connect 9 0 5 0;
#X connect 14 0 9 0;
#X connect 15 0 0 0;
#X restore 77 196 pd bg_loops;
#N canvas 792 210 838 728 select_file 0;
#X msg 138 279 seek \$1;
#X obj 138 252 nbx 3 14 -1e+37 1e+37 0 0 empty empty empty 0 -8 0 10
#dcdcdc #000000 #000000 0 256;
#X obj 135 118 bng 18 250 50 0 empty empty empty 17 7 0 10 #dcdcdc
#000000 #000000;
#X msg 99 278 next;
#X obj 266 146 nbx 4 14 -1e+37 1e+37 0 0 empty empty empty 0 -8 0 10
#dcdcdc #000000 #000000 0 256;
#X obj 222 281 else/initmess n \, dir;
#X text 318 143 n;
#X msg 136 373 \$2/\$1;
#X obj 136 344 pack s s;
#X obj 137 411 symbol;
#X obj 137 450 outlet;
#X obj 138 30 inlet;
#X obj 138 311 else/dir audio/medium;
#X obj 227 356 print background:;
#X msg 406 149 seed \$1;
#X obj 411 91 realtime;
#X obj 139 143 t b b;
#X obj 421 248 print ambient seed;
#X obj 137 184 random 12;
#X obj 412 117 / 1;
#X obj 138 218 + 1;
#X obj 415 42 inlet;
#X connect 0 0 12 0;
#X connect 1 0 0 0;
#X connect 2 0 16 0;
#X connect 3 0 12 0;
#X connect 4 0 18 1;
#X connect 5 0 12 0;
#X connect 7 0 9 0;
#X connect 8 0 7 0;
#X connect 9 0 10 0;
#X connect 11 0 2 0;
#X connect 12 0 8 0;
#X connect 12 0 13 0;
#X connect 12 1 8 1;
#X connect 12 2 4 0;
#X connect 14 0 17 0;
#X connect 14 0 18 0;
#X connect 15 0 19 0;
#X connect 16 0 18 0;
#X connect 18 0 20 0;
#X connect 19 0 14 0;
#X connect 20 0 1 0;
#X connect 21 0 15 1;
#X coords 0 -1 1 1 60 40 1 100 100;
#X restore 73 135 pd select_file;
#X obj 179 216 sig~;
#N canvas 900 406 785 441 stero_duck_micOn 0;
#X obj 85 192 outlet~;
#X obj 295 197 outlet~;
#X obj 55 25 inlet~;
#X obj 123 28 inlet~;
#X obj 204 24 inlet~;
#X obj 294 24 inlet~;
#X obj 472 26 loadbang;
#X obj 57 127 else/duck~;
#X obj 288 129 else/duck~;
#X msg 474 65 thresh -10 \, ratio 0.66 \, attack 100 \, release 500
;
#X connect 2 0 7 0;
#X connect 3 0 8 0;
#X connect 4 0 7 1;
#X connect 5 0 8 1;
#X connect 6 0 9 0;
#X connect 7 0 0 0;
#X connect 8 0 1 0;
#X connect 9 0 8 0;
#X connect 9 0 7 0;
#X restore 104 260 pd stero_duck_micOn;
#X obj 185 188 r micOn;
#X obj 338 58 switch~;
#X obj 339 35 tgl 15 1 empty empty empty 17 7 0 10 #fcfcfc #000000
#000000 1 1;
#X obj 340 13 inlet;
#X obj 199 10 inlet;
#X obj 208 84 bng 15 250 50 0 empty empty empty 17 7 0 10 #fcfcfc #000000
#000000;
#X obj 110 319 outlet~;
#X obj 199 321 outlet~;
#X obj 92 41 t b b;
#X connect 0 0 13 0;
#X connect 1 0 4 0;
#X connect 1 1 4 1;
#X connect 1 2 10 0;
#X connect 2 0 1 0;
#X connect 3 0 4 2;
#X connect 3 0 4 3;
#X connect 4 0 11 0;
#X connect 4 1 12 0;
#X connect 5 0 3 0;
#X connect 7 0 6 0;
#X connect 8 0 7 0;
#X connect 9 0 10 0;
#X connect 10 0 2 0;
#X connect 13 0 10 0;
#X connect 13 1 2 1;
