#N canvas 277 245 1101 912 10;
#N canvas 53 529 450 278 (subpatch) 0;
#X array \$0-buffer1 441000 float 2;
#X coords 0 1 441000 -1 200 140 1 0 0;
#X restore 559 241 graph;
#X obj 92 757 else/output~;
#X obj 400 21 bng 15 250 50 0 empty empty empty 17 7 0 10 -262144 -1
-1;
#X obj 166 247 tabwrite~ \$0-buffer1;
#X obj 432 55 + 1;
#X obj 392 115 hradio 12 1 0 4 empty empty empty 0 -8 0 10 -262144
-1 -1 3;
#X obj 431 79 mod 4;
#X obj 397 62 f 1;
#N canvas 53 529 450 278 (subpatch) 0;
#X array \$0-buffer2 441000 float 2;
#X coords 0 1 441000 -1 200 140 1 0 0;
#X restore 772 241 graph;
#X obj 153 87 bng 15 250 50 0 empty empty empty 17 7 0 10 -262144 -1
-1;
#X obj 91 172 adc~ 1;
#X msg 192 145 stop;
#X obj 83 362 tabread4~ \$0-buffer1;
#X obj 90 328 *~ 441000;
#X obj 67 292 phasor~ 0.1;
#X obj 233 182 symbol \$0-buffer1;
#X msg 261 218 set \$1;
#X obj 352 183 symbol \$0-buffer2;
#X obj 472 183 symbol \$0-buffer3;
#X obj 584 184 symbol \$0-buffer4;
#N canvas 53 529 450 278 (subpatch) 0;
#X array \$0-buffer3 441000 float 2;
#X coords 0 1 441000 -1 200 140 1 0 0;
#X restore 559 403 graph;
#N canvas 53 529 450 278 (subpatch) 0;
#X array \$0-buffer4 441000 float 2;
#X coords 0 1 441000 -1 200 140 1 0 0;
#X restore 775 406 graph;
#X obj 390 138 route 0 1 2 3;
#X obj 153 507 else/mix4~;
#X msg 754 787 \$1\$2;
#X obj 719 671 bng 15 250 50 0 empty empty empty 17 7 0 10 -262144
-1 -1;
#X obj 743 820 print;
#X obj 766 752 pack symbol f;
#X obj 744 702 symbol \$0-buffer;
#X floatatom 890 699 5 0 0 0 - - -;
#X obj 235 326 *~ 441000;
#X obj 212 290 phasor~ 0.1;
#X obj 102 434 *~ 441000;
#X obj 79 398 phasor~ 0.1;
#X obj 247 432 *~ 441000;
#X obj 224 396 phasor~ 0.1;
#X obj 234 361 tabread4~ \$0-buffer2;
#X obj 95 468 tabread4~ \$0-buffer3;
#X obj 240 466 tabread4~ \$0-buffer4;
#X text 753 637 how to compose a \$0-named buffer;
#X connect 2 0 7 0;
#X connect 4 0 6 0;
#X connect 5 0 22 0;
#X connect 6 0 7 1;
#X connect 7 0 5 0;
#X connect 7 0 4 0;
#X connect 9 0 3 0;
#X connect 10 0 3 0;
#X connect 11 0 3 0;
#X connect 12 0 23 0;
#X connect 13 0 12 0;
#X connect 14 0 13 0;
#X connect 15 0 16 0;
#X connect 16 0 3 0;
#X connect 17 0 16 0;
#X connect 18 0 16 0;
#X connect 19 0 16 0;
#X connect 22 0 15 0;
#X connect 22 1 17 0;
#X connect 22 2 18 0;
#X connect 22 3 19 0;
#X connect 23 0 1 0;
#X connect 23 1 1 1;
#X connect 24 0 26 0;
#X connect 25 0 28 0;
#X connect 27 0 24 0;
#X connect 28 0 27 0;
#X connect 29 0 27 1;
#X connect 30 0 36 0;
#X connect 31 0 30 0;
#X connect 32 0 37 0;
#X connect 33 0 32 0;
#X connect 34 0 38 0;
#X connect 35 0 34 0;
#X connect 36 0 23 1;
#X connect 37 0 23 2;
#X connect 38 0 23 3;
#X coords 0 0 1 1 200 200 0;
