#N canvas 1230 499 1130 863 10;
#X obj 91 189 openpanel;
#X obj 91 246 soundfiler;
#X obj 91 410 phasor~;
#X obj 91 437 *~;
#X obj 91 314 expr 1 / ( $f1 / 44100 );
#X obj 91 385 sig~;
#X obj 148 410 sig~;
#X obj 125 361 t 0;
#X obj 91 498 outlet~;
#X obj 188 28 bng 15 250 50 0 empty empty empty 17 7 0 10 -262144 -1
-1;
#X text 208 30 Play/Stop;
#X obj 28 437 snapshot~;
#X obj 91 361 f;
#X obj 269 28 tgl 15 0 empty empty empty 17 7 0 10 -262144 -1 -1 1
1;
#X obj 242 314 sel 1 0;
#X msg 28 461 set \$1;
#X text 156 30 Load;
#N canvas 0 22 450 278 (subpatch) 0;
#X array \$0-Sample_Loop_A 8.00706e+06 float 2;
#X coords 0 1 8.00706e+06 -1 256 64 2 0 0;
#X restore 28 46 graph;
#X obj 31 110 hsl 251 8 0 1 0 0 empty empty empty 0 0 0 10 -262144
-1 -1 22829 0;
#X obj 28 408 metro 20;
#X obj 91 155 t b 0;
#X msg 157 362 1;
#X obj 340 44 inlet;
#N canvas 0 23 450 278 (subpatch) 0;
#X array \$0-Sample_Loop_A_R 8.00706e+06 float 2;
#X coords 0 1 8.00706e+06 -1 200 140 1 0 0;
#X restore 702 34 graph;
#X obj 266 585 outlet~;
#X msg 336 321 \$3;
#X text 417 516 mono support;
#X obj 263 517 else/xselect~ 2 100 0;
#X floatatom 337 363 5 0 0 0 - - -;
#X obj 90 463 tabread4~ \$0-Sample_Loop_A;
#X obj 258 460 tabread4~ \$0-Sample_Loop_A_R;
#X msg 91 217 read -maxsize 1e+09 \$1 \$2-Sample_Loop_A \$3-Sample_Loop_A_R
;
#X obj 395 106 bng 15 250 50 0 empty empty empty 17 7 0 10 -262144
-1 -1;
#X obj 396 130 float \$0;
#X obj 363 172 pack s f f;
#X obj 351 74 t s b 0;
#X connect 0 0 31 0;
#X connect 1 0 6 0;
#X connect 1 0 4 0;
#X connect 1 1 25 0;
#X connect 2 0 3 0;
#X connect 2 0 11 0;
#X connect 3 0 29 0;
#X connect 3 0 30 0;
#X connect 4 0 12 0;
#X connect 4 0 21 0;
#X connect 5 0 2 0;
#X connect 6 0 3 1;
#X connect 7 0 5 0;
#X connect 9 0 20 0;
#X connect 11 0 15 0;
#X connect 12 0 5 0;
#X connect 13 0 14 0;
#X connect 13 0 19 0;
#X connect 14 0 12 0;
#X connect 14 1 7 0;
#X connect 15 0 18 0;
#X connect 18 0 2 1;
#X connect 19 0 11 0;
#X connect 20 0 0 0;
#X connect 20 1 2 1;
#X connect 20 1 13 0;
#X connect 21 0 13 0;
#X connect 22 0 35 0;
#X connect 25 0 28 0;
#X connect 27 0 24 0;
#X connect 28 0 27 0;
#X connect 29 0 8 0;
#X connect 29 0 27 0;
#X connect 30 0 27 1;
#X connect 31 0 1 0;
#X connect 32 0 33 0;
#X connect 33 0 34 1;
#X connect 33 0 34 2;
#X connect 34 0 31 0;
#X connect 35 0 34 0;
#X connect 35 1 32 0;
#X connect 35 2 2 1;
