#N canvas 252 43 1596 845 10;
#X obj 258 123 snapshot~;
#X msg 422 39 bang;
#X msg 369 103 bang;
#X obj 286 185 + 1000;
#X obj 414 63 metro 20;
#X obj 256 154 * 800;
#X obj 374 148 phasor~ 66;
#X obj 515 139 phasor~ 88;
#X obj 463 160 * -1;
#X obj 268 67 osc~ 0.1;
#N canvas 42 115 1569 821 phasor 0;
#X obj 98 67 inlet~;
#X obj 213 65 inlet~;
#X obj 231 166 rpole~;
#X obj 231 141 rzero_rev~;
#X obj 231 215 rpole~;
#X obj 231 190 rzero_rev~;
#X obj 231 263 rpole~;
#X obj 231 238 rzero_rev~;
#X obj 231 312 rpole~;
#X obj 231 287 rzero_rev~;
#X obj 83 360 rpole~;
#X obj 83 335 rzero_rev~;
#X obj 83 409 rpole~;
#X obj 83 384 rzero_rev~;
#X obj 83 457 rpole~;
#X obj 83 432 rzero_rev~;
#X obj 83 506 rpole~;
#X obj 83 481 rzero_rev~;
#X obj 153 572 outlet~;
#X obj 214 572 outlet~;
#X obj 386 258 phasor~ 0.4;
#X obj 238 484 expr~ 1 - 0.03 - 2*abs($v1-0.5)*abs($v1-0.5);
#X obj 386 290 expr~ 1 - 0.03 - 2*abs($v1-0.5)*abs($v1-0.5);
#X obj 238 452 phasor~ 0.3;
#X connect 0 0 11 0;
#X connect 1 0 3 0;
#X connect 2 0 5 0;
#X connect 3 0 2 0;
#X connect 4 0 7 0;
#X connect 5 0 4 0;
#X connect 6 0 9 0;
#X connect 7 0 6 0;
#X connect 8 0 19 0;
#X connect 9 0 8 0;
#X connect 10 0 13 0;
#X connect 11 0 10 0;
#X connect 12 0 15 0;
#X connect 13 0 12 0;
#X connect 14 0 17 0;
#X connect 15 0 14 0;
#X connect 16 0 18 0;
#X connect 17 0 16 0;
#X connect 20 0 22 0;
#X connect 21 0 11 1;
#X connect 21 0 10 1;
#X connect 21 0 13 1;
#X connect 21 0 12 1;
#X connect 21 0 15 1;
#X connect 21 0 14 1;
#X connect 21 0 17 1;
#X connect 21 0 16 1;
#X connect 22 0 3 1;
#X connect 22 0 2 1;
#X connect 22 0 5 1;
#X connect 22 0 4 1;
#X connect 22 0 7 1;
#X connect 22 0 6 1;
#X connect 22 0 9 1;
#X connect 22 0 8 1;
#X connect 23 0 21 0;
#X restore 286 364 pd phasor;
#X obj 377 269 bp~ 1000 10;
#X obj 522 272 bp~ 1000 15;
#X obj 463 186 + 500;
#X msg 679 91 1;
#X msg 665 125 0;
#X msg 642 55 open audio/watertap.wav;
#X obj 599 184 *~ 0.5;
#X obj 649 207 *~ 0.66;
#X obj 616 150 readsf~ 2;
#X obj 761 216 delay 1500;
#X obj 752 180 delay 9000;
#X obj 787 129 soundfiler;
#N canvas 0 23 450 300 (subpatch) 0;
#X array array1 77971 float 0;
#X coords 0 1 77970 -1 300 100 1;
#X restore 709 266 graph;
#N canvas 0 22 450 300 (subpatch) 0;
#X array array2 77971 float 0;
#X coords 0 1 77970 -1 300 100 1;
#X restore 709 384 graph;
#X msg 776 104 read audio/watertap.wav array1 array2;
#X obj 846 206 tabread4~ array1;
#X obj 877 175 *~ 77000;
#X obj 856 147 phasor~ 1;
#X obj 989 176 *~ 77000;
#X obj 959 207 tabread4~ array2;
#X obj 969 149 phasor~ 0.7;
#X obj 50 547 delread4~ \$0-delay;
#X obj 183 892 delwrite~ \$0-delay 3000;
#X obj 232 326 rev3~ 110 97 3000 20;
#X obj 46 50 ctl_input_jdn 12 80 100;
#X obj 49 145 ctl_input_jdn 14 66 132;
#X obj 48 176 ctl_input_jdn 14 88 44;
#X obj 305 219 clip 20 10000;
#X obj 458 216 clip 20 10000;
#X floatatom 107 234 5 0 0 0 - - - 0;
#X floatatom 103 268 5 0 0 0 - - - 0;
#X floatatom 113 310 5 0 0 0 - - - 0;
#X floatatom 108 378 5 0 0 0 - - - 0;
#X obj 309 471 +~;
#X obj 531 522 else/mix4~;
#X obj 613 734 else/gain2~ 1 0 20 0 0.95;
#X obj 48 85 ctl_input_jdn 13 5 20;
#X obj 918 501 loadbang;
#X obj 735 498 r mix-params;
#X obj 853 18 loadbang;
#X obj 447 778 vsl 18 80 -100 0 0 0 empty empty Db_Reduction 0 -9 0
10 #dcdcdc #000000 #000000 0 1;
#X obj 237 797 else/pvoc.freeze~;
#X msg 341 738 1;
#X msg 353 762 0;
#X text 369 738 freeze;
#X text 385 762 unfreeze;
#X obj 222 702 else/flanger~ 0.1 20 -0.9 -tri;
#X obj 32 416 ctl_input_jdn 15 0.01 20;
#X obj 833 790 else/rms~;
#X floatatom 830 836 5 0 0 0 - - - 0;
#X obj 1006 687 env~ 128;
#X obj 1010 748 vu 15 120 empty empty -1 -8 0 10 #404040 #000000 1
0;
#X obj 1008 714 - 100;
#X obj 941 688 env~ 128;
#X obj 945 749 vu 15 120 empty empty -1 -8 0 10 #404040 #000000 1 0
;
#X obj 943 715 - 100;
#X obj 50 595 env~ 128;
#X obj 55 663 vu 15 120 empty Input_Level -1 -8 0 10 #404040 #000000
1 0;
#X obj 52 622 - 100;
#X obj 36 444 nbx 5 14 -1e+37 1e+37 0 1 empty empty empty 0 -8 0 10
#fcfcfc #000000 #000000 0.1 256;
#X obj 1129 133 switch~;
#X obj 1045 39 tgl 15 1 empty empty empty 17 7 0 10 #fcfcfc #000000
#000000 0 1;
#X obj 1031 14 inlet;
#X obj 563 909 outlet~;
#X obj 690 906 outlet~;
#X obj 431 621 s trackedPitch;
#X obj 511 46 r trackedPitch;
#X floatatom 573 93 5 0 0 0 - - - 0;
#X obj 425 593 mtof;
#X obj 267 498 mic_controller_jdn 40 9;
#X obj 214 628 rev3~ 100 95 5000 20;
#X obj 226 846 else/compress~ -15 4 5 10 0 256;
#X obj 565 870 else/autofade2~ 1000 500 2;
#X obj 1125 54 select 1 0;
#X msg 1124 82 1;
#X obj 1160 83 delay 500;
#X msg 1159 108 0;
#X obj 1042 79 s \$0-enable;
#X obj 512 840 r \$0-enable;
#X obj 431 393 select 1 0;
#X obj 441 416 bng 15 250 50 0 empty empty empty 17 7 0 10 #fcfcfc
#000000 #000000;
#X obj 466 416 bng 15 250 50 0 empty empty empty 17 7 0 10 #fcfcfc
#000000 #000000;
#X obj 458 476 line;
#X msg 489 444 0 15000;
#X msg 437 445 1 500;
#X obj 517 109 * 2.001;
#X floatatom 367 614 5 0 0 0 - - - 0;
#X obj 405 571 else/floor;
#X obj 385 547 + 0.49;
#X obj 479 85 * 1.5;
#X obj 346 524 sigmund~ -maxfreq 8000 pitch;
#X obj 213 561 else/fbdelay~ 600 5000;
#X obj 520 318 else/fbdelay~ 900 12000;
#X msg 911 534 \; mix-params gain1 0.6 \; mix-params gain2 0.7 \; mix-params
gain3 0.7 \; mix-params gain4 0.7 \; mix-params pan1 -100 \; mix-params
pan2 50 \; mix-params pan3 100 \; mix-params pan4 0;
#X msg 804 585 set 0.95;
#X msg 510 718 set \$1;
#X connect 0 0 5 0;
#X connect 1 0 4 0;
#X connect 2 0 0 0;
#X connect 3 0 38 0;
#X connect 4 0 2 0;
#X connect 5 0 3 0;
#X connect 5 0 8 0;
#X connect 6 0 11 0;
#X connect 7 0 12 0;
#X connect 8 0 13 0;
#X connect 9 0 0 0;
#X connect 10 0 44 0;
#X connect 10 1 45 1;
#X connect 11 0 34 0;
#X connect 11 0 44 1;
#X connect 12 0 103 0;
#X connect 13 0 39 0;
#X connect 14 0 19 0;
#X connect 15 0 19 0;
#X connect 16 0 19 0;
#X connect 17 0 34 0;
#X connect 18 0 34 1;
#X connect 19 0 17 0;
#X connect 19 1 18 0;
#X connect 19 2 20 0;
#X connect 19 2 21 0;
#X connect 20 0 16 0;
#X connect 21 0 14 0;
#X connect 25 0 22 0;
#X connect 26 0 17 0;
#X connect 27 0 26 0;
#X connect 28 0 27 0;
#X connect 29 0 30 0;
#X connect 30 0 18 0;
#X connect 31 0 29 0;
#X connect 32 0 11 0;
#X connect 32 0 67 0;
#X connect 32 0 45 3;
#X connect 34 0 10 0;
#X connect 34 1 10 1;
#X connect 35 0 40 0;
#X connect 36 0 42 0;
#X connect 37 0 43 0;
#X connect 38 0 11 1;
#X connect 39 0 12 1;
#X connect 40 0 34 3;
#X connect 41 0 11 2;
#X connect 41 0 12 2;
#X connect 42 0 6 0;
#X connect 43 0 7 0;
#X connect 44 0 45 0;
#X connect 45 0 46 0;
#X connect 45 1 46 1;
#X connect 46 0 59 0;
#X connect 46 0 64 0;
#X connect 46 0 83 1;
#X connect 46 1 61 0;
#X connect 46 1 83 2;
#X connect 47 0 41 0;
#X connect 48 0 104 0;
#X connect 48 0 105 0;
#X connect 49 0 45 0;
#X connect 50 0 16 0;
#X connect 50 0 25 0;
#X connect 52 0 82 0;
#X connect 53 0 52 1;
#X connect 54 0 52 1;
#X connect 57 0 52 0;
#X connect 58 0 70 0;
#X connect 59 0 60 0;
#X connect 61 0 63 0;
#X connect 63 0 62 0;
#X connect 64 0 66 0;
#X connect 66 0 65 0;
#X connect 67 0 69 0;
#X connect 69 0 68 0;
#X connect 70 0 57 1;
#X connect 72 0 84 0;
#X connect 72 0 88 0;
#X connect 73 0 72 0;
#X connect 77 0 78 0;
#X connect 77 0 100 0;
#X connect 77 0 96 0;
#X connect 79 0 76 0;
#X connect 80 0 102 0;
#X connect 80 0 101 0;
#X connect 80 1 90 0;
#X connect 81 0 57 0;
#X connect 82 0 33 0;
#X connect 82 0 45 3;
#X connect 82 1 51 0;
#X connect 83 0 74 0;
#X connect 83 1 75 0;
#X connect 84 0 85 0;
#X connect 84 1 86 0;
#X connect 85 0 71 0;
#X connect 86 0 87 0;
#X connect 87 0 71 0;
#X connect 89 0 83 0;
#X connect 90 0 91 0;
#X connect 90 1 92 0;
#X connect 91 0 95 0;
#X connect 92 0 94 0;
#X connect 93 0 106 0;
#X connect 94 0 93 0;
#X connect 95 0 93 0;
#X connect 96 0 7 0;
#X connect 98 0 79 0;
#X connect 98 0 97 0;
#X connect 99 0 98 0;
#X connect 100 0 6 0;
#X connect 101 0 97 0;
#X connect 101 0 99 0;
#X connect 102 0 81 0;
#X connect 103 0 45 2;
#X connect 103 0 34 1;
#X connect 105 0 46 0;
#X connect 106 0 46 0;
