#N canvas 343 109 1273 824 12;
#X obj 275 863 outlet~;
#X obj 290 210 rfft~;
#X obj 485 705 block~;
#X msg 485 672 set \$1 4;
#X obj 275 818 *~;
#X obj 472 743 expr 1 / ($f1 * 1.5);
#X obj 260 271 *~;
#X obj 331 278 *~;
#X obj 281 312 +~;
#X obj 277 347 sqrt~;
#X obj 280 375 clip~ -0.9 0.9;
#X obj 423 221 rfft~;
#X obj 393 282 *~;
#X obj 464 289 *~;
#X obj 414 323 +~;
#X obj 416 348 sqrt~;
#X obj 412 374 clip~ -0.9 0.9;
#X obj 131 507 rfft~;
#X text 306 403 fftamp1;
#X text 447 400 fftamp2;
#X obj 302 64 inlet~ rhythm;
#X obj 155 73 inlet~ noise;
#X obj 247 512 rfft~;
#X obj 121 571 *~;
#X obj 172 574 *~;
#X obj 109 626 rifft~;
#X obj 240 572 *~;
#X obj 291 575 *~;
#X obj 262 634 rifft~;
#X obj 193 750 +~;
#X text 141 34 thanks to the msp convolution workshop old example.
:);
#X obj 471 629 r window-size;
#X obj 113 692 *~;
#X obj 150 410 tabreceive~ rz-hann;
#X obj 129 443 *~;
#X obj 130 667 tabreceive~ rz-hann;
#X obj 276 165 *~;
#X obj 298 136 tabreceive~ rz-hann;
#X obj 452 116 *~;
#X obj 485 78 tabreceive~ rz-hann-2;
#X obj 282 701 *~;
#X obj 306 674 tabreceive~ rz-hann-2;
#X obj 253 475 *~;
#X obj 285 443 tabreceive~ rz-hann-2;
#X connect 1 0 6 0;
#X connect 1 0 6 1;
#X connect 1 1 7 0;
#X connect 1 1 7 1;
#X connect 3 0 2 0;
#X connect 4 0 0 0;
#X connect 5 0 4 1;
#X connect 6 0 8 0;
#X connect 7 0 8 1;
#X connect 8 0 9 0;
#X connect 9 0 10 0;
#X connect 10 0 24 1;
#X connect 10 0 23 1;
#X connect 11 0 12 0;
#X connect 11 0 12 1;
#X connect 11 1 13 0;
#X connect 11 1 13 1;
#X connect 12 0 14 0;
#X connect 13 0 14 1;
#X connect 14 0 15 0;
#X connect 15 0 16 0;
#X connect 16 0 26 1;
#X connect 16 0 27 1;
#X connect 17 0 23 0;
#X connect 17 1 24 0;
#X connect 20 0 36 0;
#X connect 20 0 38 0;
#X connect 21 0 34 0;
#X connect 21 0 42 0;
#X connect 22 0 26 0;
#X connect 22 1 27 0;
#X connect 23 0 25 0;
#X connect 24 0 25 1;
#X connect 25 0 32 0;
#X connect 26 0 28 0;
#X connect 27 0 28 1;
#X connect 28 0 40 0;
#X connect 29 0 4 0;
#X connect 31 0 3 0;
#X connect 31 0 5 0;
#X connect 32 0 29 0;
#X connect 33 0 34 1;
#X connect 34 0 17 0;
#X connect 35 0 32 1;
#X connect 36 0 1 0;
#X connect 37 0 36 1;
#X connect 38 0 11 0;
#X connect 39 0 38 1;
#X connect 40 0 29 1;
#X connect 41 0 40 1;
#X connect 42 0 22 0;
#X connect 43 0 42 1;
