#N canvas 1310 957 381 283 10;
#X floatatom 107 87 0 0 0 0 - - -;
#X floatatom 91 116 0 0 0 0 - - -;
#X floatatom 123 54 0 0 0 0 - - -;
#X obj 91 29 ctlin;
#X text 122 117 value;
#X text 154 55 channel;
#X text 135 28 (all controllers \, omni);
#X text 138 87 controller #;
#X obj 54 187 int 0;
#X obj 108 156 sel \$1;
#X obj 53 221 remap_jdn 0 127 \$2 \$3;
#X obj 53 248 outlet;
#X connect 0 0 9 0;
#X connect 1 0 8 1;
#X connect 3 0 1 0;
#X connect 3 1 0 0;
#X connect 3 2 2 0;
#X connect 8 0 10 0;
#X connect 9 0 8 0;
#X connect 10 0 11 0;
