#N canvas 0 96 1024 672 10;
#X obj 262 291 delread4~ \$0-delay2;
#X obj 309 204 pack 0 1000;
#X obj 309 229 line~;
#X obj 233 259 delwrite~ \$0-delay2 4000;
#X text 305 158 mic delay (ms);
#X obj 488 441 nbx 5 14 -1e+37 1e+37 0 1 empty empty empty 0 -8 0 10
#dcdcdc #000000 #000000 5557.16 256;
#X obj 579 329 nbx 5 14 0 3000 0 1 empty empty empty 0 -8 0 10 #dcdcdc
#000000 #000000 311.432 256;
#X text 645 330 Delay time (ms);
#X text 555 445 Feedback (Decay time in ms);
#X obj 545 730 vsl 18 80 -100 0 0 0 empty empty empty 0 -9 0 10 #dcdcdc
#000000 #000000 0 1;
#X obj 160 380 else/fbdelay~ 3000 6000;
#X obj 310 178 nbx 5 14 0 3000 0 1 empty empty empty 0 -8 0 10 #dcdcdc
#000000 #000000 870 256;
#X obj 461 233 *~ 800;
#X obj 461 281 +~ 801;
#X obj 488 392 else/sig2float~ 20;
#X obj 558 275 else/sig2float~ 20;
#X obj 515 172 phasor~ 0.1;
#X obj 462 185 -~;
#X floatatom 455 76 5 0 0 0 - - - 0;
#X obj 556 66 loadbang;
#X obj 316 44 mic_controller_jdn 36 1;
#X obj 485 317 +~ 800;
#X obj 476 351 *~ 5;
#X obj 219 912 outlet~;
#X obj 364 913 outlet~;
#X obj 104 506 nbx 5 14 -1e+37 1e+37 0 0 empty rate empty 0 -8 0 10
#dcdcdc #000000 #000000 0 256;
#X obj 166 506 nbx 5 14 -1e+37 1e+37 0 0 empty depth empty 0 -8 0 10
#dcdcdc #000000 #000000 0 256;
#X text 110 486 rate;
#X text 173 486 depth;
#X obj 227 506 nbx 5 14 0 1 0 0 empty wet empty 0 -8 0 10 #dcdcdc #000000
#000000 0 256;
#X obj 55 538 else/chorus~, f 22;
#X text 234 485 dry/wet;
#X obj 340 512 nbx 5 14 -1e+37 1e+37 0 0 empty rate empty 0 -8 0 10
#dcdcdc #000000 #000000 0 256;
#X obj 402 512 nbx 5 14 -1e+37 1e+37 0 0 empty depth empty 0 -8 0 10
#dcdcdc #000000 #000000 0 256;
#X text 346 492 rate;
#X text 409 492 depth;
#X obj 463 512 nbx 5 14 0 1 0 0 empty wet empty 0 -8 0 10 #dcdcdc #000000
#000000 0 256;
#X obj 297 538 else/chorus~, f 22;
#X text 470 491 dry/wet;
#X obj 238 662 else/xfade~ 2;
#X obj 710 553 hsl 128 15 -1 1 0 0 empty empty empty -2 -8 0 10 #dcdcdc
#000000 #000000 0 1;
#X floatatom 707 574 0 0 0 0 - - - 0;
#X text 692 552 A;
#X text 843 553 B;
#X obj 591 116 bng 15 250 50 0 empty empty empty 17 7 0 10 #fcfcfc
#000000 #000000;
#X floatatom 621 133 5 0 0 0 - - - 0;
#X obj 478 94 select 1;
#X obj 766 501 line;
#X obj 707 604 else/float2sig~ 100;
#X obj 179 569 else/giga.rev~ -maxsize 300 -size 250 -decay 20 -damp
0.5 -spread 1 -dry 0 -late 0.75;
#X msg 764 471 -1 0 \, 1 20000;
#X text 619 147 connect this to phasor 2 input to reset;
#X obj 606 525 env~ 128;
#X obj 614 598 vu 15 120 empty Input_Level -1 -8 0 10 #404040 #000000
1 0;
#X obj 608 552 - 100;
#X obj 344 760 else/compress~ -10 3 5 5 0 256;
#X obj 314 737 vsl 18 80 -100 0 0 0 empty empty empty 0 -9 0 10 #dcdcdc
#000000 #000000 0 1;
#X obj 113 767 else/compress~ -10 3 5 5 0 256;
#X obj 145 146 switch~;
#X obj 61 52 tgl 15 1 empty empty empty 17 7 0 10 #fcfcfc #000000 #000000
0 1;
#X obj 47 27 inlet;
#X obj 141 67 select 1 0;
#X msg 140 95 1;
#X obj 176 96 delay 500;
#X msg 175 121 0;
#X obj 58 92 s \$0-enable;
#X obj 162 827 r \$0-enable;
#X obj 241 850 else/autofade2~ 150 500 2;
#X obj 255 881 *~ 0.66;
#X obj 369 881 *~ 0.66;
#X obj 313 102 *~ 0.5;
#X connect 0 0 10 0;
#X connect 1 0 2 0;
#X connect 2 0 0 0;
#X connect 10 0 30 0;
#X connect 10 0 37 0;
#X connect 11 0 1 0;
#X connect 12 0 13 0;
#X connect 13 0 10 1;
#X connect 13 0 15 0;
#X connect 13 0 21 0;
#X connect 14 0 5 0;
#X connect 15 0 6 0;
#X connect 16 0 17 1;
#X connect 17 0 12 0;
#X connect 18 0 17 0;
#X connect 18 0 46 0;
#X connect 19 0 44 0;
#X connect 20 0 70 0;
#X connect 20 1 18 0;
#X connect 21 0 22 0;
#X connect 22 0 10 2;
#X connect 22 0 14 0;
#X connect 25 0 30 1;
#X connect 26 0 30 2;
#X connect 29 0 30 3;
#X connect 30 0 39 0;
#X connect 30 0 49 0;
#X connect 32 0 37 1;
#X connect 33 0 37 2;
#X connect 36 0 37 3;
#X connect 37 0 39 1;
#X connect 39 0 57 0;
#X connect 39 1 55 0;
#X connect 40 0 41 0;
#X connect 41 0 48 0;
#X connect 44 0 45 0;
#X connect 44 0 50 0;
#X connect 46 0 44 0;
#X connect 47 0 40 0;
#X connect 48 0 39 4;
#X connect 49 0 39 2;
#X connect 49 1 39 3;
#X connect 50 0 47 0;
#X connect 52 0 54 0;
#X connect 54 0 53 0;
#X connect 55 0 52 0;
#X connect 55 0 67 2;
#X connect 55 1 9 0;
#X connect 57 0 67 1;
#X connect 57 1 56 0;
#X connect 59 0 61 0;
#X connect 59 0 65 0;
#X connect 60 0 59 0;
#X connect 61 0 62 0;
#X connect 61 1 63 0;
#X connect 62 0 58 0;
#X connect 63 0 64 0;
#X connect 64 0 58 0;
#X connect 66 0 67 0;
#X connect 67 0 68 0;
#X connect 67 1 69 0;
#X connect 68 0 23 0;
#X connect 69 0 24 0;
#X connect 70 0 3 0;
