#N canvas 1289 199 878 739 10;
#X obj 262 291 delread4~ \$0-delay2;
#X obj 309 204 pack 0 1000;
#X obj 309 229 line~;
#X obj 233 259 delwrite~ \$0-delay2 4000;
#X text 305 158 mic delay (ms);
#X obj 488 441 nbx 5 14 -1e+37 1e+37 0 1 empty empty empty 0 -8 0 10
-228856 -1 -1 6705.79 256;
#X obj 579 329 nbx 5 14 0 3000 0 1 empty empty empty 0 -8 0 10 -228856
-1 -1 541.159 256;
#X text 645 330 Delay time (ms);
#X text 555 445 Feedback (Decay time in ms);
#X obj 437 405 vsl 18 80 -100 0 0 0 empty empty empty 0 -9 0 10 -228856
-1 -1 7900 1;
#X obj 241 387 else/fbdelay~ 3000 6000;
#X obj 213 434 else/compress~ -30 5 5 5 -3 256;
#X obj 310 178 nbx 5 14 0 3000 0 1 empty empty empty 0 -8 0 10 -228856
-1 -1 870 256;
#X obj 96 99 switch~;
#X obj 97 76 tgl 15 1 empty empty empty 17 7 0 10 -262144 -1 -1 1 1
;
#X obj 98 54 inlet;
#X obj 461 233 *~ 800;
#X obj 461 281 +~ 801;
#X obj 488 392 else/sig2float~ 20;
#X obj 558 275 else/sig2float~ 20;
#X obj 515 172 phasor~ 0.1;
#X obj 462 185 -~;
#X floatatom 455 76 5 0 0 0 - - -;
#X obj 556 66 loadbang;
#X obj 316 44 mic_controller_jdn 36 1;
#X obj 485 317 +~ 800;
#X obj 476 351 *~ 5;
#X obj 135 707 outlet~;
#X obj 377 707 outlet~;
#X obj 104 506 nbx 5 14 -1e+37 1e+37 0 0 empty rate empty 0 -8 0 10
-228856 -1 -1 0 256;
#X obj 166 506 nbx 5 14 -1e+37 1e+37 0 0 empty depth empty 0 -8 0 10
-228856 -1 -1 0 256;
#X text 110 486 rate;
#X text 173 486 depth;
#X obj 227 506 nbx 5 14 0 1 0 0 empty wet empty 0 -8 0 10 -228856 -1
-1 0 256;
#X obj 55 538 else/chorus~, f 22;
#X text 234 485 dry/wet;
#X obj 340 512 nbx 5 14 -1e+37 1e+37 0 0 empty rate empty 0 -8 0 10
-228856 -1 -1 0 256;
#X obj 402 512 nbx 5 14 -1e+37 1e+37 0 0 empty depth empty 0 -8 0 10
-228856 -1 -1 0 256;
#X text 346 492 rate;
#X text 409 492 depth;
#X obj 463 512 nbx 5 14 0 1 0 0 empty wet empty 0 -8 0 10 -228856 -1
-1 0 256;
#X obj 297 538 else/chorus~, f 22;
#X text 470 491 dry/wet;
#X obj 238 662 else/xfade~ 2;
#X obj 710 553 hsl 128 15 -1 1 0 0 empty empty empty -2 -8 0 10 -228856
-1 -1 12700 1;
#X floatatom 707 574 0 0 0 0 - - -;
#X text 692 552 A;
#X text 843 553 B;
#X obj 591 116 bng 15 250 50 0 empty empty empty 17 7 0 10 -262144
-1 -1;
#X floatatom 621 133 5 0 0 0 - - -;
#X obj 478 94 select 1;
#X obj 766 501 line;
#X obj 707 604 else/float2sig~ 100;
#X obj 187 579 else/giga.rev~ -maxsize 300 -size 250 -decay 20 -damp
0.5 -spread 1 -dry 0 -late 0.75;
#X msg 764 471 -1 0 \, 1 20000;
#X text 619 147 connect this to phasor 2 input to reset;
#X connect 0 0 10 0;
#X connect 1 0 2 0;
#X connect 2 0 0 0;
#X connect 10 0 11 0;
#X connect 11 0 34 0;
#X connect 11 0 41 0;
#X connect 11 1 9 0;
#X connect 12 0 1 0;
#X connect 14 0 13 0;
#X connect 15 0 14 0;
#X connect 16 0 17 0;
#X connect 17 0 10 1;
#X connect 17 0 19 0;
#X connect 17 0 25 0;
#X connect 18 0 5 0;
#X connect 19 0 6 0;
#X connect 20 0 21 1;
#X connect 21 0 16 0;
#X connect 22 0 21 0;
#X connect 22 0 50 0;
#X connect 23 0 48 0;
#X connect 24 0 3 0;
#X connect 24 1 22 0;
#X connect 25 0 26 0;
#X connect 26 0 10 2;
#X connect 26 0 18 0;
#X connect 29 0 34 1;
#X connect 30 0 34 2;
#X connect 33 0 34 3;
#X connect 34 0 43 0;
#X connect 34 0 53 0;
#X connect 36 0 41 1;
#X connect 37 0 41 2;
#X connect 40 0 41 3;
#X connect 41 0 43 1;
#X connect 43 0 27 0;
#X connect 43 1 28 0;
#X connect 44 0 45 0;
#X connect 45 0 52 0;
#X connect 48 0 49 0;
#X connect 48 0 54 0;
#X connect 50 0 48 0;
#X connect 51 0 44 0;
#X connect 52 0 43 4;
#X connect 53 0 43 2;
#X connect 53 1 43 3;
#X connect 54 0 51 0;
