#N canvas 186 414 1335 966 10;
#X obj 576 283 adc~ 1;
#X obj 640 192 vsl 15 128 0 1 0 1 empty empty empty 0 -9 0 10 -262144
-1 -1 0 1;
#X obj 638 338 line~ 0 100;
#X obj 599 366 *~;
#X text 683 258 mic input level;
#X obj 753 367 nbx 5 14 -100 0 0 1 empty empty empty 0 -8 0 10 -228856
-1 -1 -38 256;
#X text 748 350 threshold;
#X text 718 365 dBFS;
#X obj 629 395 else/noisegate~ -40 200;
#X obj 715 311 s micOn;
#X obj 855 227 env~ 128;
#X obj 860 295 vu 15 120 empty Input_Level -1 -8 0 10 -66577 -1 1 0
;
#X obj 857 254 - 100;
#X obj 930 76 notein 1;
#X obj 930 127 pack 0 0;
#X obj 930 152 route 43;
#X obj 930 177 expr $i1 > 0;
#X obj 1040 299 noteout;
#X obj 1037 259 unpack f f f;
#X msg 1042 231 14 100 1;
#X obj 1038 197 expr $i1 == 0;
#X obj 1140 203 loadbang;
#X obj 478 593 delread4~ \$0-delay2;
#X obj 525 506 pack 0 1000;
#X obj 525 531 line~;
#X obj 449 561 delwrite~ \$0-delay2 4000;
#X text 521 460 mic delay (ms);
#X obj 702 672 nbx 5 14 -1e+37 1e+37 0 1 empty empty empty 0 -8 0 10
-228856 -1 -1 4992.94 256;
#X obj 499 652 nbx 5 14 0 3000 0 1 empty empty empty 0 -8 0 10 -228856
-1 -1 499.294 256;
#X text 515 632 Delay time (ms);
#X text 685 651 Feedback (Decay time in ms);
#X obj 612 763 vsl 18 80 -100 0 0 0 empty empty empty 0 -9 0 10 -228856
-1 -1 7900 1;
#X obj 488 802 nbx 5 14 -100 0 0 1 empty empty empty 0 -8 0 10 -228856
-1 -1 -41 256;
#X text 483 785 threshold;
#X text 453 800 dBFS;
#X obj 359 834 else/noisegate~ -40 200;
#X obj 457 689 else/fbdelay~ 3000 6000;
#X obj 429 736 else/compress~ -30 5 5 5 -3 256;
#X obj 526 480 nbx 5 14 0 3000 0 1 empty empty empty 0 -8 0 10 -228856
-1 -1 870 256;
#X obj 321 899 dac~;
#X obj 268 110 switch~;
#X obj 269 87 tgl 15 1 empty empty empty 17 7 0 10 -262144 -1 -1 1
1;
#X obj 270 65 inlet;
#X obj 677 535 *~ 800;
#X obj 677 583 +~ 801;
#X obj 766 626 else/sig2float~ 20;
#X obj 774 577 else/sig2float~ 20;
#X obj 705 613 *~ 10;
#X obj 732 458 phasor~ 0.1;
#X obj 678 487 -~;
#X floatatom 679 455 5 0 0 0 - - -;
#X obj 686 425 loadbang;
#X connect 0 0 3 0;
#X connect 0 0 10 0;
#X connect 1 0 2 0;
#X connect 1 0 9 0;
#X connect 2 0 3 1;
#X connect 3 0 8 0;
#X connect 3 0 25 0;
#X connect 5 0 8 1;
#X connect 10 0 12 0;
#X connect 12 0 11 0;
#X connect 13 0 14 0;
#X connect 13 1 14 1;
#X connect 14 0 15 0;
#X connect 15 0 16 0;
#X connect 15 0 20 0;
#X connect 16 0 1 0;
#X connect 18 0 17 0;
#X connect 18 1 17 1;
#X connect 18 2 17 2;
#X connect 19 0 18 0;
#X connect 20 0 19 0;
#X connect 21 0 19 0;
#X connect 22 0 36 0;
#X connect 23 0 24 0;
#X connect 24 0 22 0;
#X connect 32 0 35 1;
#X connect 35 0 39 1;
#X connect 35 0 39 0;
#X connect 36 0 37 0;
#X connect 37 0 35 0;
#X connect 37 1 31 0;
#X connect 38 0 23 0;
#X connect 41 0 40 0;
#X connect 42 0 41 0;
#X connect 43 0 44 0;
#X connect 44 0 36 1;
#X connect 44 0 46 0;
#X connect 44 0 47 0;
#X connect 45 0 27 0;
#X connect 46 0 28 0;
#X connect 47 0 36 2;
#X connect 47 0 45 0;
#X connect 48 0 49 1;
#X connect 49 0 43 0;
#X connect 50 0 49 0;
#X connect 51 0 50 0;
