#N canvas 296 76 1024 672 10;
#X obj 683 995 vsl 18 80 -16 0 0 0 empty empty empty 0 -9 0 10 #dcdcdc
#000000 #000000 0 1;
#X floatatom 785 -33 5 0 0 0 - - - 0;
#X obj 897 -61 loadbang;
#X obj 256 1201 outlet~;
#X obj 370 1197 outlet~;
#X obj 143 615 nbx 5 14 -1e+37 1e+37 0 0 empty rate empty 0 -8 0 10
#dcdcdc #000000 #000000 0 256;
#X obj 205 615 nbx 5 14 -1e+37 1e+37 0 0 empty depth empty 0 -8 0 10
#dcdcdc #000000 #000000 0 256;
#X text 149 595 rate;
#X text 212 595 depth;
#X obj 266 615 nbx 5 14 0 1 0 0 empty wet empty 0 -8 0 10 #dcdcdc #000000
#000000 0 256;
#X obj 94 647 else/chorus~, f 22;
#X text 273 594 dry/wet;
#X obj 379 573 nbx 5 14 -1e+37 1e+37 0 0 empty rate empty 0 -8 0 10
#dcdcdc #000000 #000000 0 256;
#X obj 441 621 nbx 5 14 -1e+37 1e+37 0 0 empty depth empty 0 -8 0 10
#dcdcdc #000000 #000000 0 256;
#X text 448 601 depth;
#X obj 502 621 nbx 5 14 0 1 0 0 empty wet empty 0 -8 0 10 #dcdcdc #000000
#000000 0 256;
#X obj 336 647 else/chorus~, f 22;
#X text 509 600 dry/wet;
#X obj 242 783 else/xfade~ 2;
#X obj 738 253 hsl 128 15 -1 1 0 0 empty empty empty -2 -8 0 10 #dcdcdc
#000000 #000000 0 1;
#X floatatom 735 274 0 0 0 0 - - - 0;
#X text 716 253 A;
#X text 871 253 B;
#X obj 819 79 bng 15 250 50 0 empty empty empty 17 7 0 10 #fcfcfc #000000
#000000;
#X obj 790 -3 select 1;
#X obj 794 201 line;
#X obj 727 711 else/float2sig~ 100;
#X obj 502 1061 env~ 128;
#X obj 510 1134 vu 15 120 empty Input_Level -1 -8 0 10 #404040 #000000
1 0;
#X obj 504 1088 - 100;
#X obj 349 999 vsl 18 80 -16 0 0 0 empty empty empty 0 -9 0 10 #dcdcdc
#000000 #000000 0 1;
#X obj 145 146 switch~;
#X obj 61 52 tgl 15 1 empty empty empty 17 7 0 10 #fcfcfc #000000 #000000
0 1;
#X obj 47 27 inlet;
#X obj 141 67 select 1 0;
#X msg 140 95 1;
#X msg 175 121 0;
#X obj 58 92 s \$0-enable;
#X obj 166 1081 r \$0-enable;
#X obj 39 192 loadbang;
#X obj 139 877 else/flanger~;
#X obj 359 875 else/flanger~;
#X obj 230 826 nbx 5 14 -1e+37 1e+37 0 0 empty frate empty 0 -8 0 10
#dcdcdc #000000 #000000 0 256;
#X obj 289 827 nbx 5 14 -1e+37 1e+37 0 0 empty fdepth empty 0 -8 0
10 #dcdcdc #000000 #000000 0 256;
#X obj 348 827 nbx 5 14 -1e+37 1e+37 0 0 empty fcoefficient empty 0
-8 0 10 #dcdcdc #000000 #000000 0 256;
#X text 235 806 frate;
#X text 291 806 fdepth;
#X text 351 806 fcoefficient;
#X obj 120 921 else/xfade~ 1 0.33;
#X obj 344 917 else/xfade~ 1 0.33;
#X obj 46 993 hip~ 5;
#X obj 436 985 hip~ 5;
#X obj 446 852 * 1.33;
#X obj 379 606 * 1.25;
#X obj 257 1169 hip~ 5;
#X obj 370 1167 hip~ 5;
#X obj 311 -49 mic_controller_jdn 42 13;
#X obj 375 156 else/lfo 1;
#X obj 372 185 else/rescale 100 1000;
#X obj 314 135 *~ 1;
#X obj 458 248 else/rescale 200 2000;
#X obj 461 219 else/lfo 1.73;
#X obj 497 306 else/lfo 2.1435;
#X text 437 124 bp base rate;
#X obj 374 126 nbx 5 14 0.0001 10 1 0 empty bpRate empty 0 -8 0 10
#fcfcfc #000000 #000000 0 256;
#X msg 792 171 -1 0 \, 1 2000;
#X obj 176 96 delay 2000;
#X obj 245 1104 else/autofade2~ 150 2000 2;
#X obj 314 217 else/bandpass~ 100 5;
#X obj 403 383 else/bandpass~ 100 5;
#X obj 312 94 else/fbdelay~ 707 3000;
#X floatatom 655 182 10 0 0 0 - bpQ - 0;
#X obj 311 256 else/bandpass~ 100 5;
#X obj 345 300 else/bandpass~ 100 5;
#X obj 340 331 else/bandpass~ 100 5;
#X obj 403 414 else/bandpass~ 100 5;
#X obj 498 336 else/rescale 300 3000;
#X obj 537 176 * 1.73;
#X obj 615 281 * 2.1435;
#X obj 133 420 else/pan2~;
#X obj 133 383 else/rescale -1 1;
#X obj 264 432 else/pan2~;
#X obj 264 395 else/rescale -1 1;
#X obj 386 496 else/pan2~;
#X obj 386 459 else/rescale -1 1;
#X obj 231 0 else/ffdelay~ 555;
#X obj 362 2 else/giga.rev~ -size 200 -decay 15 -damp 0.2 -spread 0.7
-dry 0;
#X obj 31 954 +~;
#X obj 414 950 +~;
#X msg 38 218 \; bpRate 0.345 \; bpQ 1.5 \; rate 0.05 \; depth 3 \;
wet 0.4 \; frate 0.77 \; fdepth 50 \; fcoefficient -0.44;
#X obj 117 1020 else/compress~ -16 2 30 500 0 256;
#X obj 438 1018 else/compress~ -16 2 30 500 0 256;
#X obj 258 1135 *~ 0.8;
#X obj 370 1134 *~ 0.8;
#X connect 1 0 24 0;
#X connect 2 0 23 0;
#X connect 5 0 10 1;
#X connect 6 0 10 2;
#X connect 9 0 10 3;
#X connect 10 0 18 0;
#X connect 10 0 18 2;
#X connect 12 0 53 0;
#X connect 13 0 16 2;
#X connect 15 0 16 3;
#X connect 16 0 18 1;
#X connect 16 0 18 3;
#X connect 18 0 40 0;
#X connect 18 0 48 0;
#X connect 18 1 41 0;
#X connect 18 1 49 0;
#X connect 19 0 20 0;
#X connect 20 0 26 0;
#X connect 23 0 65 0;
#X connect 24 0 23 0;
#X connect 25 0 19 0;
#X connect 26 0 18 4;
#X connect 27 0 29 0;
#X connect 29 0 28 0;
#X connect 32 0 34 0;
#X connect 32 0 37 0;
#X connect 33 0 32 0;
#X connect 34 0 35 0;
#X connect 34 1 66 0;
#X connect 35 0 31 0;
#X connect 36 0 31 0;
#X connect 38 0 67 0;
#X connect 39 0 89 0;
#X connect 40 0 48 1;
#X connect 41 0 49 1;
#X connect 42 0 40 1;
#X connect 42 0 52 0;
#X connect 43 0 40 2;
#X connect 43 0 41 2;
#X connect 44 0 40 3;
#X connect 44 0 41 3;
#X connect 48 0 87 0;
#X connect 49 0 88 0;
#X connect 50 0 90 0;
#X connect 51 0 91 0;
#X connect 52 0 41 1;
#X connect 53 0 16 1;
#X connect 54 0 3 0;
#X connect 55 0 4 0;
#X connect 56 0 85 0;
#X connect 56 0 86 0;
#X connect 56 1 1 0;
#X connect 57 0 58 0;
#X connect 57 0 84 0;
#X connect 58 0 68 1;
#X connect 58 0 72 1;
#X connect 59 0 68 0;
#X connect 59 0 69 0;
#X connect 59 0 73 0;
#X connect 60 0 73 1;
#X connect 60 0 74 1;
#X connect 61 0 60 0;
#X connect 61 0 80 0;
#X connect 62 0 76 0;
#X connect 62 0 82 0;
#X connect 64 0 57 0;
#X connect 64 0 77 0;
#X connect 64 0 78 0;
#X connect 65 0 25 0;
#X connect 66 0 36 0;
#X connect 67 0 92 0;
#X connect 67 1 93 0;
#X connect 68 0 72 0;
#X connect 69 0 75 0;
#X connect 70 0 59 0;
#X connect 71 0 68 2;
#X connect 71 0 69 2;
#X connect 71 0 72 2;
#X connect 71 0 73 2;
#X connect 71 0 74 2;
#X connect 71 0 75 2;
#X connect 72 0 79 0;
#X connect 73 0 74 0;
#X connect 74 0 81 0;
#X connect 75 0 83 0;
#X connect 76 0 69 1;
#X connect 76 0 75 1;
#X connect 77 0 61 0;
#X connect 78 0 62 0;
#X connect 79 0 10 0;
#X connect 79 1 16 0;
#X connect 80 0 79 1;
#X connect 81 0 10 0;
#X connect 81 1 16 0;
#X connect 82 0 81 1;
#X connect 83 0 10 0;
#X connect 83 1 16 0;
#X connect 84 0 83 1;
#X connect 85 0 70 0;
#X connect 86 0 70 0;
#X connect 87 0 50 0;
#X connect 88 0 51 0;
#X connect 90 0 67 1;
#X connect 90 1 30 0;
#X connect 91 0 27 0;
#X connect 91 0 67 2;
#X connect 91 1 0 0;
#X connect 92 0 54 0;
#X connect 93 0 55 0;
