#N canvas 296 76 1024 672 10;
#X obj 635 835 vsl 18 80 -100 0 0 0 empty empty empty 0 -9 0 10 #dcdcdc
#000000 #000000 0 1;
#X floatatom 455 76 5 0 0 0 - - - 0;
#X obj 556 66 loadbang;
#X obj 255 1045 outlet~;
#X obj 369 1041 outlet~;
#X obj 135 548 nbx 5 14 -1e+37 1e+37 0 0 empty rate empty 0 -8 0 10
#dcdcdc #000000 #000000 0 256;
#X obj 197 548 nbx 5 14 -1e+37 1e+37 0 0 empty depth empty 0 -8 0 10
#dcdcdc #000000 #000000 0 256;
#X text 141 528 rate;
#X text 204 528 depth;
#X obj 258 548 nbx 5 14 0 1 0 0 empty wet empty 0 -8 0 10 #dcdcdc #000000
#000000 0 256;
#X obj 86 580 else/chorus~, f 22;
#X text 265 527 dry/wet;
#X obj 371 506 nbx 5 14 -1e+37 1e+37 0 0 empty rate empty 0 -8 0 10
#dcdcdc #000000 #000000 0 256;
#X obj 433 554 nbx 5 14 -1e+37 1e+37 0 0 empty depth empty 0 -8 0 10
#dcdcdc #000000 #000000 0 256;
#X text 440 534 depth;
#X obj 494 554 nbx 5 14 0 1 0 0 empty wet empty 0 -8 0 10 #dcdcdc #000000
#000000 0 256;
#X obj 328 580 else/chorus~, f 22;
#X text 501 533 dry/wet;
#X obj 241 627 else/xfade~ 2;
#X obj 738 253 hsl 128 15 -1 1 0 0 empty empty empty -2 -8 0 10 #dcdcdc
#000000 #000000 0 1;
#X floatatom 735 274 0 0 0 0 - - - 0;
#X text 716 253 A;
#X text 871 253 B;
#X obj 591 116 bng 15 250 50 0 empty empty empty 17 7 0 10 #fcfcfc
#000000 #000000;
#X obj 478 94 select 1;
#X obj 794 201 line;
#X obj 735 304 else/float2sig~ 100;
#X obj 501 905 env~ 128;
#X obj 509 978 vu 15 120 empty Input_Level -1 -8 0 10 #404040 #000000
1 0;
#X obj 503 932 - 100;
#X obj 317 835 vsl 18 80 -100 0 0 0 empty empty empty 0 -9 0 10 #dcdcdc
#000000 #000000 0 1;
#X obj 145 146 switch~;
#X obj 61 52 tgl 15 1 empty empty empty 17 7 0 10 #fcfcfc #000000 #000000
1 1;
#X obj 47 27 inlet;
#X obj 141 67 select 1 0;
#X msg 140 95 1;
#X obj 176 96 delay 500;
#X msg 175 121 0;
#X obj 58 92 s \$0-enable;
#X obj 165 925 r \$0-enable;
#X obj 244 948 else/autofade2~ 150 500 2;
#X obj 39 196 loadbang;
#X obj 138 721 else/flanger~;
#X obj 358 719 else/flanger~;
#X obj 229 670 nbx 5 14 -1e+37 1e+37 0 0 empty frate empty 0 -8 0 10
#dcdcdc #000000 #000000 0 256;
#X obj 288 671 nbx 5 14 -1e+37 1e+37 0 0 empty fdepth empty 0 -8 0
10 #dcdcdc #000000 #000000 0 256;
#X obj 347 671 nbx 5 14 -1e+37 1e+37 0 0 empty fcoefficient empty 0
-8 0 10 #dcdcdc #000000 #000000 0 256;
#X text 234 650 frate;
#X text 290 650 fdepth;
#X text 350 650 fcoefficient;
#X obj 119 765 else/xfade~ 1 0.33;
#X obj 343 761 else/xfade~ 1 0.33;
#X obj 45 837 hip~ 5;
#X obj 509 837 hip~ 5;
#X obj 445 696 * 1.33;
#X obj 371 539 * 1.25;
#X msg 38 218 \; rate 0.05 \; depth 3 \; wet 0.4 \; frate 0.77 \; fdepth
50 \; fcoefficient -0.44;
#X obj 256 1013 hip~ 5;
#X obj 369 1011 hip~ 5;
#X obj 414 794 else/giga.rev~ -maxsize 60 -size 44 -decay 4 -damp 0.6
-spread 1 -dry 0.5 -late 0.75 -wet 0.3;
#X obj 30 798 else/giga.rev~ -maxsize 50 -size 35 -decay 3 -damp 0.15
-spread 1 -dry 0.5 -late 0.75 -wet 0.25;
#X obj 257 979 *~ 0.45;
#X obj 370 979 *~ 0.45;
#X obj 116 865 else/compress~ -16 3 5 5 0 256;
#X obj 439 863 else/compress~ -16 3 5 5 0 256;
#X obj 316 44 mic_controller_jdn 42 13;
#X obj 375 156 else/lfo 1;
#X obj 372 185 else/rescale 100 1000;
#X obj 313 103 *~ 1;
#X obj 314 217 else/bandpass~ 100 9;
#X obj 345 300 else/bandpass~ 100 9;
#X obj 387 364 else/bandpass~ 100 9;
#X obj 458 248 else/rescale 200 2000;
#X obj 461 219 else/lfo 1.73;
#X obj 501 307 else/lfo 2.1435;
#X obj 498 336 else/rescale 300 3000;
#X text 437 124 bp base rate;
#X obj 537 176 * 1.73;
#X obj 615 281 * 2.1435;
#X obj 376 126 nbx 5 14 0.0001 10 1 0 empty empty empty 0 -8 0 10 #fcfcfc
#000000 #000000 0 256;
#X msg 792 171 -1 0 \, 1 2000;
#X obj 240 442 else/fbdelay~ 2000 12000;
#X obj 413 439 else/fbdelay~ 2000 12000;
#X connect 1 0 24 0;
#X connect 2 0 23 0;
#X connect 5 0 10 1;
#X connect 6 0 10 2;
#X connect 9 0 10 3;
#X connect 10 0 18 0;
#X connect 10 0 18 2;
#X connect 12 0 55 0;
#X connect 13 0 16 2;
#X connect 15 0 16 3;
#X connect 16 0 18 1;
#X connect 16 0 18 3;
#X connect 18 0 42 0;
#X connect 18 0 50 0;
#X connect 18 1 43 0;
#X connect 18 1 51 0;
#X connect 19 0 20 0;
#X connect 20 0 26 0;
#X connect 23 0 80 0;
#X connect 24 0 23 0;
#X connect 25 0 19 0;
#X connect 26 0 18 4;
#X connect 27 0 29 0;
#X connect 29 0 28 0;
#X connect 32 0 34 0;
#X connect 32 0 38 0;
#X connect 33 0 32 0;
#X connect 34 0 35 0;
#X connect 34 1 36 0;
#X connect 35 0 31 0;
#X connect 36 0 37 0;
#X connect 37 0 31 0;
#X connect 39 0 40 0;
#X connect 40 0 61 0;
#X connect 40 1 62 0;
#X connect 41 0 56 0;
#X connect 42 0 50 1;
#X connect 43 0 51 1;
#X connect 44 0 42 1;
#X connect 44 0 54 0;
#X connect 45 0 42 2;
#X connect 45 0 43 2;
#X connect 46 0 42 3;
#X connect 46 0 43 3;
#X connect 50 0 60 0;
#X connect 51 0 59 0;
#X connect 52 0 63 0;
#X connect 53 0 64 0;
#X connect 54 0 43 1;
#X connect 55 0 16 1;
#X connect 57 0 3 0;
#X connect 58 0 4 0;
#X connect 59 1 53 0;
#X connect 60 0 52 0;
#X connect 61 0 57 0;
#X connect 62 0 58 0;
#X connect 63 0 40 1;
#X connect 63 1 30 0;
#X connect 64 0 27 0;
#X connect 64 0 40 2;
#X connect 64 1 0 0;
#X connect 65 0 68 0;
#X connect 65 1 1 0;
#X connect 66 0 67 0;
#X connect 67 0 69 1;
#X connect 68 0 69 0;
#X connect 68 0 70 0;
#X connect 68 0 71 0;
#X connect 69 0 81 0;
#X connect 70 0 81 0;
#X connect 71 0 81 0;
#X connect 72 0 70 1;
#X connect 73 0 72 0;
#X connect 74 0 75 0;
#X connect 75 0 71 1;
#X connect 77 0 73 0;
#X connect 78 0 74 0;
#X connect 79 0 66 0;
#X connect 79 0 77 0;
#X connect 79 0 78 0;
#X connect 80 0 25 0;
#X connect 81 0 10 0;
#X connect 81 0 16 0;
#X connect 82 0 16 0;
