#N canvas 568 154 1024 725 10;
#X obj 600 356 vsl 18 80 -100 0 0 0 empty empty empty 0 -9 0 10 -228856
-1 -1 7900 1;
#X obj 476 395 nbx 5 14 -100 0 0 1 empty empty empty 0 -8 0 10 -228856
-1 -1 -41 256;
#X text 471 378 threshold;
#X text 441 393 dBFS;
#X obj 300 431 else/noisegate~ -40 200;
#X obj 59 38 inlet;
#X floatatom 717 160 5 0 0 0 - - -;
#X obj 733 121 loadbang;
#X obj 178 698 outlet~;
#X obj 381 702 outlet~;
#X obj 375 222 nbx 6 14 -1e+37 1e+37 0 0 empty empty empty 0 -8 0 10
-228856 -1 -1 0 256;
#X obj 453 222 nbx 6 14 -1e+37 1e+37 0 0 empty empty empty 0 -8 0 10
-228856 -1 -1 0 256;
#X text 377 204 speed (%);
#X text 468 202 cents;
#X obj 501 245 bng 15 250 50 0 empty empty empty 17 7 0 10 -228856
-1 -1;
#X text 523 249 <= reset;
#X obj 547 33 mic_controller_jdn 39 7;
#X obj 569 211 select 1;
#X obj 473 506 nbx 5 14 -1e+37 1e+37 0 0 empty empty empty 0 -8 0 10
-228856 -1 -1 0 256;
#X obj 542 507 nbx 5 14 -1e+37 1e+37 0 0 empty empty empty 0 -8 0 10
-228856 -1 -1 0 256;
#X obj 611 507 nbx 5 14 -1e+37 1e+37 0 0 empty empty empty 0 -8 0 10
-228856 -1 -1 0 256;
#X obj 404 535 else/flanger~ 0.1 20 -0.6 -tri;
#X text 478 486 rate;
#X text 544 486 depth;
#X text 614 486 coefficient;
#X obj 127 509 nbx 5 14 -1e+37 1e+37 0 0 empty empty empty 0 -8 0 10
-228856 -1 -1 0 256;
#X obj 196 510 nbx 5 14 -1e+37 1e+37 0 0 empty empty empty 0 -8 0 10
-228856 -1 -1 0 256;
#X obj 265 510 nbx 5 14 -1e+37 1e+37 0 0 empty empty empty 0 -8 0 10
-228856 -1 -1 0 256;
#X text 132 489 rate;
#X text 198 489 depth;
#X text 268 489 coefficient;
#X obj 56 538 else/flanger~ 0.12 20 -0.6 -tri;
#X obj 220 580 else/free.rev~ 0.5 0.2 1 0.5;
#X msg 655 142 1;
#X obj 339 333 else/compress~ -15 5 5 5 0 256;
#X obj 315 278 else/pvoc.live~ 10000 20 -200;
#X obj 300 150 delread4~ \$0-delay2;
#X obj 347 63 pack 0 1000;
#X obj 347 88 line~;
#X text 343 17 mic delay (ms);
#X obj 348 37 nbx 5 14 0 3000 0 1 empty empty empty 0 -8 0 10 -228856
-1 -1 200 256;
#X obj 271 118 delwrite~ \$0-delay2 1000;
#X obj 144 162 switch~;
#X obj 60 68 tgl 15 1 empty empty empty 17 7 0 10 -262144 -1 -1 0 1
;
#X obj 140 83 select 1 0;
#X msg 139 111 1;
#X obj 175 112 delay 500;
#X msg 174 137 0;
#X obj 57 108 s \$0-enable;
#X obj 134 608 r \$0-enable;
#X obj 240 624 else/autofade2~ 250 500 2;
#X obj 465 74 *~ 1;
#X obj 232 655 *~ 0.3;
#X obj 414 657 *~ 0.3;
#X connect 1 0 4 1;
#X connect 4 0 21 0;
#X connect 4 0 31 0;
#X connect 5 0 43 0;
#X connect 6 0 17 0;
#X connect 7 0 33 0;
#X connect 10 0 35 1;
#X connect 11 0 35 2;
#X connect 14 0 35 3;
#X connect 16 0 51 0;
#X connect 16 1 6 0;
#X connect 17 0 14 0;
#X connect 18 0 21 1;
#X connect 19 0 21 2;
#X connect 20 0 21 3;
#X connect 21 0 32 1;
#X connect 25 0 31 1;
#X connect 26 0 31 2;
#X connect 27 0 31 3;
#X connect 31 0 32 0;
#X connect 32 0 50 1;
#X connect 32 1 50 2;
#X connect 33 0 17 0;
#X connect 34 0 4 0;
#X connect 34 1 0 0;
#X connect 35 0 34 0;
#X connect 36 0 35 0;
#X connect 37 0 38 0;
#X connect 38 0 36 0;
#X connect 40 0 37 0;
#X connect 43 0 44 0;
#X connect 43 0 48 0;
#X connect 44 0 45 0;
#X connect 44 1 46 0;
#X connect 45 0 42 0;
#X connect 46 0 47 0;
#X connect 47 0 42 0;
#X connect 49 0 50 0;
#X connect 50 0 52 0;
#X connect 50 1 53 0;
#X connect 51 0 41 0;
#X connect 52 0 8 0;
#X connect 53 0 9 0;
