#N canvas 471 169 1024 725 10;
#X obj 600 356 vsl 18 80 -100 0 0 0 empty empty empty 0 -9 0 10 #dcdcdc
#000000 #000000 0 1;
#X obj 476 395 nbx 5 14 -100 0 0 1 empty empty empty 0 -8 0 10 #dcdcdc
#000000 #000000 -41 256;
#X text 471 378 threshold;
#X text 441 393 dBFS;
#X obj 59 38 inlet;
#X floatatom 717 160 5 0 0 0 - - - 0;
#X obj 733 121 loadbang;
#X obj 178 698 outlet~;
#X obj 381 702 outlet~;
#X obj 375 222 nbx 6 14 -1e+37 1e+37 0 0 empty empty empty 0 -8 0 10
#dcdcdc #000000 #000000 0 256;
#X obj 453 222 nbx 6 14 -1e+37 1e+37 0 0 empty empty empty 0 -8 0 10
#dcdcdc #000000 #000000 0 256;
#X text 377 204 speed (%);
#X text 468 202 cents;
#X obj 501 245 bng 15 250 50 0 empty empty empty 17 7 0 10 #dcdcdc
#000000 #000000;
#X text 523 249 <= reset;
#X obj 547 33 mic_controller_jdn 39 7;
#X obj 569 211 select 1;
#X obj 473 506 nbx 5 14 -1e+37 1e+37 0 0 empty empty empty 0 -8 0 10
#dcdcdc #000000 #000000 0 256;
#X obj 542 507 nbx 5 14 -1e+37 1e+37 0 0 empty empty empty 0 -8 0 10
#dcdcdc #000000 #000000 0 256;
#X obj 611 507 nbx 5 14 -1e+37 1e+37 0 0 empty empty empty 0 -8 0 10
#dcdcdc #000000 #000000 0 256;
#X obj 404 535 else/flanger~ 0.1 20 -0.6 -tri;
#X text 478 486 rate;
#X text 544 486 depth;
#X text 614 486 coefficient;
#X obj 127 509 nbx 5 14 -1e+37 1e+37 0 0 empty empty empty 0 -8 0 10
#dcdcdc #000000 #000000 0 256;
#X obj 196 510 nbx 5 14 -1e+37 1e+37 0 0 empty empty empty 0 -8 0 10
#dcdcdc #000000 #000000 0 256;
#X obj 265 510 nbx 5 14 -1e+37 1e+37 0 0 empty empty empty 0 -8 0 10
#dcdcdc #000000 #000000 0 256;
#X text 132 489 rate;
#X text 198 489 depth;
#X text 268 489 coefficient;
#X obj 56 538 else/flanger~ 0.12 20 -0.6 -tri;
#X obj 220 580 else/free.rev~ 0.5 0.2 1 0.5;
#X msg 655 142 1;
#X obj 339 333 else/compress~ -15 5 5 5 0 256;
#X obj 300 150 delread4~ \$0-delay2;
#X obj 347 63 pack 0 1000;
#X obj 347 88 line~;
#X text 343 17 mic delay (ms);
#X obj 348 37 nbx 5 14 0 3000 0 1 empty empty empty 0 -8 0 10 #dcdcdc
#000000 #000000 287 256;
#X obj 144 162 switch~;
#X obj 60 68 tgl 15 1 empty empty empty 17 7 0 10 #fcfcfc #000000 #000000
1 1;
#X obj 140 83 select 1 0;
#X msg 139 111 1;
#X obj 175 112 delay 500;
#X msg 174 137 0;
#X obj 57 108 s \$0-enable;
#X obj 134 608 r \$0-enable;
#X obj 240 624 else/autofade2~ 250 500 2;
#X obj 465 74 *~ 1;
#X obj 232 655 *~ 0.3;
#X obj 414 657 *~ 0.3;
#X obj 271 118 delwrite~ \$0-delay2 1000;
#X obj 309 277 else/pvoc.live~ 10000 20 -200;
#X connect 4 0 40 0;
#X connect 5 0 16 0;
#X connect 6 0 32 0;
#X connect 9 0 52 1;
#X connect 10 0 52 2;
#X connect 13 0 52 0;
#X connect 15 0 48 0;
#X connect 15 1 5 0;
#X connect 16 0 13 0;
#X connect 17 0 20 1;
#X connect 18 0 20 2;
#X connect 19 0 20 3;
#X connect 20 0 31 1;
#X connect 24 0 30 1;
#X connect 25 0 30 2;
#X connect 26 0 30 3;
#X connect 30 0 31 0;
#X connect 31 0 47 1;
#X connect 31 1 47 2;
#X connect 32 0 16 0;
#X connect 33 0 20 0;
#X connect 33 0 30 0;
#X connect 33 1 0 0;
#X connect 34 0 52 0;
#X connect 35 0 36 0;
#X connect 36 0 34 0;
#X connect 38 0 35 0;
#X connect 40 0 41 0;
#X connect 40 0 45 0;
#X connect 41 0 42 0;
#X connect 41 1 43 0;
#X connect 42 0 39 0;
#X connect 43 0 44 0;
#X connect 44 0 39 0;
#X connect 46 0 47 0;
#X connect 47 0 49 0;
#X connect 47 1 50 0;
#X connect 48 0 51 0;
#X connect 49 0 7 0;
#X connect 50 0 8 0;
#X connect 52 0 33 0;
