#N canvas 296 76 1048 849 10;
#X obj 262 291 delread4~ \$0-delay2;
#X obj 309 204 pack 0 1000;
#X obj 309 229 line~;
#X obj 233 259 delwrite~ \$0-delay2 4000;
#X text 305 158 mic delay (ms);
#X obj 488 441 nbx 5 14 -1e+37 1e+37 0 1 empty empty empty 0 -8 0 10
#dcdcdc #000000 #000000 7325.88 256;
#X obj 579 329 nbx 5 14 0 3000 0 1 empty empty empty 0 -8 0 10 #dcdcdc
#000000 #000000 665.175 256;
#X text 645 330 Delay time (ms);
#X text 555 445 Feedback (Decay time in ms);
#X obj 666 848 vsl 18 80 -12 0 0 0 empty empty empty 0 -9 0 10 #dcdcdc
#000000 #000000 0 1;
#X obj 309 178 nbx 5 14 0 3000 0 1 empty empty empty 0 -8 0 10 #dcdcdc
#000000 #000000 301 256;
#X obj 461 233 *~ 800;
#X obj 461 281 +~ 801;
#X obj 488 392 else/sig2float~ 20;
#X obj 558 275 else/sig2float~ 20;
#X obj 462 185 -~;
#X floatatom 455 76 5 0 0 0 - - - 0;
#X obj 556 66 loadbang;
#X obj 485 317 +~ 800;
#X obj 476 351 *~ 5;
#X obj 255 1045 outlet~;
#X obj 369 1041 outlet~;
#X obj 135 548 nbx 5 14 -1e+37 1e+37 0 0 empty rate empty 0 -8 0 10
#dcdcdc #000000 #000000 0 256;
#X obj 197 548 nbx 5 14 -1e+37 1e+37 0 0 empty depth empty 0 -8 0 10
#dcdcdc #000000 #000000 0 256;
#X text 141 528 rate;
#X text 204 528 depth;
#X obj 258 548 nbx 5 14 0 1 0 0 empty wet empty 0 -8 0 10 #dcdcdc #000000
#000000 0 256;
#X obj 86 580 else/chorus~, f 22;
#X text 265 527 dry/wet;
#X obj 371 506 nbx 5 14 -1e+37 1e+37 0 0 empty rate empty 0 -8 0 10
#dcdcdc #000000 #000000 0 256;
#X obj 433 554 nbx 5 14 -1e+37 1e+37 0 0 empty depth empty 0 -8 0 10
#dcdcdc #000000 #000000 0 256;
#X text 346 444 rate;
#X text 440 534 depth;
#X obj 494 554 nbx 5 14 0 1 0 0 empty wet empty 0 -8 0 10 #dcdcdc #000000
#000000 0 256;
#X obj 328 580 else/chorus~, f 22;
#X text 501 533 dry/wet;
#X obj 241 627 else/xfade~ 2;
#X obj 710 553 hsl 128 15 -1 1 0 0 empty empty empty -2 -8 0 10 #dcdcdc
#000000 #000000 0 1;
#X floatatom 707 574 0 0 0 0 - - - 0;
#X text 692 552 A;
#X text 843 553 B;
#X obj 591 116 bng 15 250 50 0 empty empty empty 17 7 0 10 #fcfcfc
#000000 #000000;
#X floatatom 590 143 5 0 0 0 - - - 0;
#X obj 478 94 select 1;
#X obj 766 501 line;
#X obj 707 604 else/float2sig~ 100;
#X text 619 147 connect this to phasor 2 input to reset;
#X obj 606 525 env~ 128;
#X obj 614 598 vu 15 120 empty Input_Level -1 -8 0 10 #404040 #000000
1 0;
#X obj 608 552 - 100;
#X obj 335 842 vsl 18 80 -12 0 0 0 empty empty empty 0 -9 0 10 #dcdcdc
#000000 #000000 0 1;
#X obj 145 146 switch~;
#X obj 61 52 tgl 15 1 empty empty empty 17 7 0 10 #fcfcfc #000000 #000000
0 1;
#X obj 47 27 inlet;
#X obj 141 67 select 1 0;
#X msg 140 95 1;
#X obj 176 96 delay 500;
#X msg 175 121 0;
#X obj 58 92 s \$0-enable;
#X obj 165 925 r \$0-enable;
#X obj 244 948 else/autofade2~ 150 500 2;
#X obj 515 172 phasor~ 0.001;
#X obj 39 196 loadbang;
#X obj 138 721 else/flanger~;
#X obj 358 719 else/flanger~;
#X obj 229 670 nbx 5 14 -1e+37 1e+37 0 0 empty frate empty 0 -8 0 10
#dcdcdc #000000 #000000 0 256;
#X obj 288 671 nbx 5 14 -1e+37 1e+37 0 0 empty fdepth empty 0 -8 0
10 #dcdcdc #000000 #000000 0 256;
#X obj 347 671 nbx 5 14 -1e+37 1e+37 0 0 empty fcoefficient empty 0
-8 0 10 #dcdcdc #000000 #000000 0 256;
#X text 234 650 frate;
#X text 290 650 fdepth;
#X text 350 650 fcoefficient;
#X obj 119 765 else/xfade~ 1 0.33;
#X obj 343 761 else/xfade~ 1 0.33;
#X obj 45 837 hip~ 5;
#X obj 509 837 hip~ 5;
#X msg 764 471 -1 0 \, 1 500;
#X obj 445 696 * 1.33;
#X obj 371 539 * 1.25;
#X msg 38 218 \; rate 0.05 \; depth 3 \; wet 0.4 \; frate 0.77 \; fdepth
50 \; fcoefficient -0.44;
#X obj 258 403 snapshot~;
#X obj 347 416 nbx 5 14 -1e+37 1e+37 0 1 empty empty empty 0 -8 0 10
#dcdcdc #000000 #000000 933.973 256;
#X obj 243 348 metro 10;
#X obj 207 320 bng 15 250 50 0 empty empty empty 17 7 0 10 #fcfcfc
#000000 #000000;
#X text 210 378 number of grains, f 9;
#X obj 193 293 loadbang;
#X obj 256 1013 hip~ 5;
#X obj 369 1011 hip~ 5;
#X obj 106 437 else/pitch.shift~ 0 500;
#X obj 182 489 else/fbdelay~ 1200 12000;
#X obj 317 320 phasor~ -4;
#X obj 391 342 else/impulse~ 50;
#X obj 405 394 else/s2f~;
#X obj 317 347 *~ 1200;
#X obj 288 376 +~ 100;
#X obj 157 387 hip~ 1000;
#X obj 414 794 else/giga.rev~ -maxsize 60 -size 44 -decay 4 -damp 0.6
-spread 1 -dry 0.5 -late 0.75 -wet 0.3;
#X obj 30 798 else/giga.rev~ -maxsize 50 -size 35 -decay 3 -damp 0.15
-spread 1 -dry 0.5 -late 0.75 -wet 0.25;
#X obj 279 445 +~ 23;
#X obj 121 463 else/flanger~ 0.1 7 -0.6;
#X obj 381 370 else/drunkard~ 0.1 -1 -8;
#X obj 316 44 mic_controller_jdn 43 15;
#X obj 313 103 *~ 1;
#X obj 116 865 else/compress~ -18 3 30 500 0 256;
#X obj 439 863 else/compress~ -18 3 30 500 0 256;
#X obj 257 979 *~ 0.6;
#X obj 370 979 *~ 0.6;
#X connect 0 0 94 0;
#X connect 1 0 2 0;
#X connect 2 0 0 0;
#X connect 10 0 1 0;
#X connect 11 0 12 0;
#X connect 12 0 14 0;
#X connect 12 0 18 0;
#X connect 13 0 5 0;
#X connect 14 0 6 0;
#X connect 15 0 11 0;
#X connect 16 0 15 0;
#X connect 16 0 43 0;
#X connect 17 0 41 0;
#X connect 18 0 19 0;
#X connect 19 0 13 0;
#X connect 22 0 27 1;
#X connect 23 0 27 2;
#X connect 26 0 27 3;
#X connect 27 0 36 0;
#X connect 27 0 36 2;
#X connect 29 0 77 0;
#X connect 30 0 34 2;
#X connect 33 0 34 3;
#X connect 34 0 36 1;
#X connect 34 0 36 3;
#X connect 36 0 63 0;
#X connect 36 0 71 0;
#X connect 36 1 64 0;
#X connect 36 1 72 0;
#X connect 37 0 38 0;
#X connect 38 0 45 0;
#X connect 41 0 42 0;
#X connect 41 0 75 0;
#X connect 43 0 41 0;
#X connect 44 0 37 0;
#X connect 45 0 36 4;
#X connect 47 0 49 0;
#X connect 49 0 48 0;
#X connect 52 0 54 0;
#X connect 52 0 58 0;
#X connect 53 0 52 0;
#X connect 54 0 55 0;
#X connect 54 1 56 0;
#X connect 55 0 51 0;
#X connect 56 0 57 0;
#X connect 57 0 51 0;
#X connect 59 0 60 0;
#X connect 60 0 104 0;
#X connect 60 1 105 0;
#X connect 61 0 15 1;
#X connect 62 0 78 0;
#X connect 63 0 71 1;
#X connect 64 0 72 1;
#X connect 65 0 63 1;
#X connect 65 0 76 0;
#X connect 66 0 63 2;
#X connect 66 0 64 2;
#X connect 67 0 63 3;
#X connect 67 0 64 3;
#X connect 71 0 96 0;
#X connect 72 0 95 0;
#X connect 73 0 102 0;
#X connect 74 0 103 0;
#X connect 75 0 44 0;
#X connect 76 0 64 1;
#X connect 77 0 34 1;
#X connect 79 0 80 0;
#X connect 80 0 87 1;
#X connect 81 0 79 0;
#X connect 82 0 81 0;
#X connect 84 0 82 0;
#X connect 85 0 20 0;
#X connect 86 0 21 0;
#X connect 87 0 98 0;
#X connect 88 0 34 0;
#X connect 88 0 27 0;
#X connect 89 0 92 0;
#X connect 90 0 99 0;
#X connect 91 0 89 0;
#X connect 92 0 93 0;
#X connect 92 0 97 0;
#X connect 93 0 79 0;
#X connect 94 0 87 0;
#X connect 95 1 74 0;
#X connect 96 0 73 0;
#X connect 97 0 88 1;
#X connect 98 0 88 0;
#X connect 99 0 91 0;
#X connect 100 0 101 0;
#X connect 100 1 16 0;
#X connect 101 0 3 0;
#X connect 102 0 60 1;
#X connect 102 1 50 0;
#X connect 103 0 47 0;
#X connect 103 0 60 2;
#X connect 103 1 9 0;
#X connect 104 0 85 0;
#X connect 105 0 86 0;
