#N canvas 1243 438 996 621 10;
#X obj 653 362 +~;
#X obj 579 495 *~ 1;
#X obj 574 458 else/xfade~ 2;
#X obj 626 499 *~ 1;
#X obj 727 353 else/float2sig~ 20;
#X obj 644 156 inlet curRecorder;
#X obj 541 549 outlet~;
#X obj 618 555 outlet~;
#X obj 497 117 inlet recLength;
#X obj 630 300 tabplay~ 1-memory_rain;
#X msg 716 252 set \$1-memory_rain;
#X obj 499 206 bng 15 250 50 0 empty empty empty 17 7 0 10 -262144
-1 -1;
#X obj 277 169 phasor~ 1;
#X obj 334 294 tabread4~ 1-memory_rain;
#X obj 335 255 *~ 1;
#X obj 424 227 nbx 5 14 -1e+37 1e+37 0 0 empty empty empty 0 -8 0 10
-262144 -1 -1 0 256;
#X connect 0 0 2 0;
#X connect 0 0 2 1;
#X connect 1 0 6 0;
#X connect 2 0 1 0;
#X connect 2 1 3 0;
#X connect 3 0 7 0;
#X connect 4 0 2 4;
#X connect 5 0 10 0;
#X connect 8 0 11 0;
#X connect 8 0 14 1;
#X connect 8 0 15 0;
#X connect 10 0 9 0;
#X connect 10 0 13 0;
#X connect 11 0 9 0;
#X connect 12 0 14 0;
#X connect 13 0 6 0;
#X connect 13 0 7 0;
#X connect 14 0 13 0;
#X coords 0 621 1 620 220 230 0;
