#N canvas 623 127 1579 1229 10;
#X obj 980 411 tgl 30 0 empty empty empty 17 7 0 10 -262144 -1 -1 0
1;
#X obj 976 533 timer;
#X obj 986 464 select 1 0;
#X floatatom 976 568 8 0 0 0 - - -;
#X obj 734 252 +~;
#X obj 392 357 +~;
#X obj 980 379 else/schmitt 0.5 0.1;
#X msg 521 114 recLength \$1;
#X obj 731 297 vradio 15 1 0 4 sdvs asfgasgf empty 0 -8 0 10 -228856
-1 -1 1;
#X obj 731 370 nbx 2 15 -1e+37 1e+37 0 0 xfkvds asfmnv empty 0 -8 0
12 -228856 -1 -1 1 256;
#X text 749 297 none;
#X text 749 312 1st;
#X text 749 327 2nd;
#X text 749 342 3rd;
#X text 768 366 outlet #;
#X obj 557 346 else/router 3;
#X msg 496 259 recStop bang;
#X msg 508 191 recStart bang;
#X obj 647 135 bng 15 250 50 0 empty empty empty 17 7 0 10 -262144
-1 -1;
#X obj 620 183 expr 1+(($i2)%3);
#X obj 509 53 t b b;
#X msg 693 443 1 2 3;
#X obj 711 483 else/rotate;
#X obj 730 405 t b f;
#X obj 767 450 * -1;
#X obj 885 711 bng 15 250 50 0 empty empty empty 17 7 0 10 -262144
-1 -1;
#X obj 786 750 nbx 5 14 -1e+37 1e+37 0 0 empty empty empty 0 -8 0 10
-262144 -1 -1 2 256;
#X obj 492 728 nbx 5 14 -1e+37 1e+37 0 0 empty empty empty 0 -8 0 10
-262144 -1 -1 1 256;
#X obj 748 712 expr (($i1+3)%3)+1;
#X obj 1181 715 bng 15 250 50 0 empty empty empty 17 7 0 10 -262144
-1 -1;
#X obj 1082 754 nbx 5 14 -1e+37 1e+37 0 0 empty empty empty 0 -8 0
10 -262144 -1 -1 3 256;
#X obj 1044 716 expr (($i1+4)%3)+1;
#X obj 609 576 else/coin 10 100;
#X obj 737 605 else/coin 10 90;
#X obj 830 630 else/coin 10 80;
#X obj 675 720 * 1.5;
#X obj 964 734 * 2;
#X obj 687 684 nbx 5 14 0.1 5 0 1 empty empty empty 0 -8 0 10 -262144
-1 -1 1.5 256;
#X obj 977 705 nbx 5 14 0.1 5 0 1 empty empty empty 0 -8 0 10 -262144
-1 -1 2 256;
#X obj 264 87 switch~;
#X obj 265 64 tgl 15 1 empty empty empty 17 7 0 10 -262144 -1 -1 1
1;
#X obj 266 42 inlet;
#X obj 824 116 mic_controller_jdn 37 3;
#X obj 700 1158 +~;
#X obj 935 1154 +~;
#X obj 937 1200 outlet~;
#X obj 688 1200 outlet~;
#X obj 496 24 r recStart_rn;
#X obj 520 84 r recLength_rn;
#X obj 496 229 r recStop_rn;
#X obj 331 677 r recLength_rn;
#X obj 484 676 r curRecorder_rn;
#X obj 626 651 r recLength_rn;
#X obj 771 671 r curRecorder_rn;
#X obj 938 679 r recLength_rn;
#X obj 1068 675 r curRecorder_rn;
#X obj 339 792 rain_player;
#X obj 689 805 rain_player;
#X obj 999 811 rain_player;
#X obj 471 386 recorder_rain 1;
#X obj 470 411 recorder_rain 2;
#X obj 472 442 recorder_rain 3;
#X obj 375 1165 dac~;
#X obj 1031 508 s recStart_rn;
#X obj 1124 510 s recStop_rn;
#X obj 976 604 s recLength_rn;
#X obj 830 431 s curRecorder_rn;
#X obj 829 400 + 0;
#X connect 0 0 2 0;
#X connect 1 0 3 0;
#X connect 2 0 1 0;
#X connect 2 0 63 0;
#X connect 2 1 1 1;
#X connect 2 1 64 0;
#X connect 3 0 65 0;
#X connect 4 0 5 0;
#X connect 5 0 59 0;
#X connect 5 0 60 0;
#X connect 5 0 61 0;
#X connect 6 0 0 0;
#X connect 7 0 15 0;
#X connect 8 0 9 0;
#X connect 9 0 19 1;
#X connect 9 0 23 0;
#X connect 9 0 15 1;
#X connect 9 0 67 0;
#X connect 15 0 59 1;
#X connect 15 1 60 1;
#X connect 15 2 61 1;
#X connect 16 0 15 0;
#X connect 17 0 15 0;
#X connect 18 0 19 0;
#X connect 18 0 32 0;
#X connect 19 0 8 0;
#X connect 20 0 17 0;
#X connect 20 1 18 0;
#X connect 21 0 22 0;
#X connect 23 0 21 0;
#X connect 23 1 24 0;
#X connect 24 0 22 1;
#X connect 28 0 26 0;
#X connect 28 0 57 1;
#X connect 31 0 30 0;
#X connect 31 0 58 1;
#X connect 32 1 33 0;
#X connect 33 0 25 0;
#X connect 33 1 34 0;
#X connect 34 0 29 0;
#X connect 35 0 57 0;
#X connect 36 0 58 0;
#X connect 37 0 35 1;
#X connect 38 0 36 1;
#X connect 40 0 39 0;
#X connect 41 0 40 0;
#X connect 42 0 4 1;
#X connect 42 1 6 0;
#X connect 43 0 46 0;
#X connect 44 0 45 0;
#X connect 47 0 20 0;
#X connect 48 0 7 0;
#X connect 49 0 16 0;
#X connect 50 0 56 0;
#X connect 51 0 27 0;
#X connect 51 0 56 1;
#X connect 52 0 35 0;
#X connect 53 0 28 0;
#X connect 54 0 36 0;
#X connect 55 0 31 0;
#X connect 56 0 43 0;
#X connect 56 0 62 0;
#X connect 56 1 44 0;
#X connect 56 1 62 1;
#X connect 67 0 66 0;
