#N canvas 172 48 1526 855 10;
#X obj 980 356 tgl 30 0 empty empty empty 17 7 0 10 #fcfcfc #000000
#000000 0 1;
#X obj 977 460 timer;
#X obj 984 398 select 1 0;
#X floatatom 977 529 8 0 0 0 - - - 0;
#X obj 392 357 +~;
#X obj 980 324 else/schmitt 0.5 0.1;
#X msg 521 114 recLength \$1;
#X obj 802 257 vradio 15 1 0 6 sdvs asfgasgf empty 0 -8 0 10 #dcdcdc
#000000 #000000 0;
#X obj 732 367 nbx 2 15 -1e+37 1e+37 0 0 xfkvds asfmnv empty 0 -8 0
12 #dcdcdc #000000 #000000 0 256;
#X text 820 257 none;
#X text 820 272 1st;
#X text 820 287 2nd;
#X text 820 302 3rd;
#X text 768 366 outlet #;
#X msg 496 259 recStop bang;
#X msg 508 191 recStart bang;
#X obj 647 135 bng 15 250 50 0 empty empty empty 17 7 0 10 #fcfcfc
#000000 #000000;
#X obj 509 53 t b b;
#X msg 693 443 1 2 3;
#X obj 711 483 else/rotate;
#X obj 730 405 t b f;
#X obj 767 450 * -1;
#X obj 572 717 bng 15 250 50 0 empty empty empty 17 7 0 10 #fcfcfc
#000000 #000000;
#X obj 885 711 bng 15 250 50 0 empty empty empty 17 7 0 10 #fcfcfc
#000000 #000000;
#X obj 786 750 nbx 5 14 -1e+37 1e+37 0 0 empty empty empty 0 -8 0 10
#fcfcfc #000000 #000000 0 256;
#X obj 492 728 nbx 5 14 -1e+37 1e+37 0 0 empty empty empty 0 -8 0 10
#fcfcfc #000000 #000000 0 256;
#X obj 1181 715 bng 15 250 50 0 empty empty empty 17 7 0 10 #fcfcfc
#000000 #000000;
#X obj 1082 754 nbx 5 14 -1e+37 1e+37 0 0 empty empty empty 0 -8 0
10 #fcfcfc #000000 #000000 0 256;
#X obj 675 720 * 1.5;
#X obj 964 734 * 2;
#X obj 556 1059 loadbang;
#X obj 573 1078 bng 15 250 50 0 empty empty empty 17 7 0 10 #fcfcfc
#000000 #000000;
#X obj 687 688 nbx 5 14 0.1 5 0 1 empty empty empty 0 -8 0 10 #fcfcfc
#000000 #000000 1.33 256;
#X obj 977 705 nbx 5 14 0.1 5 0 1 empty empty empty 0 -8 0 10 #fcfcfc
#000000 #000000 2.5 256;
#X obj 698 1149 +~;
#X obj 948 1150 +~;
#X obj 807 1465 outlet~;
#X obj 669 1470 outlet~;
#X text 820 317 4nd;
#X text 820 332 5rd;
#X obj 557 346 else/router 3;
#X obj 666 178 expr 1+(($i2)%3);
#X obj 748 712 expr (($i1+3)%3)+1;
#X obj 1044 716 expr (($i1+4)%3)+1;
#X obj 777 193 +~;
#X obj 259 198 switch~;
#X obj 175 104 tgl 15 1 empty empty empty 17 7 0 10 #fcfcfc #000000
#000000 0 1;
#X obj 161 79 inlet;
#X obj 255 119 select 1 0;
#X msg 254 147 1;
#X obj 290 148 delay 500;
#X msg 289 173 0;
#X obj 172 144 s \$0-enable;
#X obj 604 1410 r \$0-enable;
#X obj 683 1433 else/autofade2~ 150 500 2;
#X msg 301 1115 echoAmp 1 0.8 0.6 0.5 \, echoWet 0.3 0.7 0.9 1;
#X msg 616 1115 echoAmp 0.1 0.6 0.4 0.9 \, echoWet 0.8 0.85 0.2 0.77
;
#X msg 947 1114 echoAmp 0.1 0.4 0.8 0.6 \, echoWet 0.9 0.6 0.7 0.4
;
#X obj 500 592 float \$1;
#X obj 1154 593 float \$2;
#X obj 491 520 else/loadbanger;
#X obj 490 496 bng 15 250 50 0 empty empty empty 17 7 0 10 #fcfcfc
#000000 #000000;
#X obj 609 576 else/chance 10 100;
#X obj 737 605 else/chance 10 90;
#X obj 830 630 else/chance 10 80;
#X obj 774 1206 else/gain2~ 1 0 20 0 1;
#X obj 771 94 mic_controller_jdn 38 5;
#X obj 471 386 recorder_jdn 1 \$0;
#X obj 470 410 recorder_jdn 2 \$0;
#X obj 472 442 recorder_jdn 3 \$0;
#X obj 496 24 r recStart-\$0;
#X obj 1031 453 s recStart-\$0;
#X obj 1137 453 s recStop-\$0;
#X obj 496 229 r recStop-\$0;
#X obj 653 318 - 1;
#X obj 978 635 s recLength-\$0;
#X obj 520 84 r recLength-\$0;
#X obj 484 676 r curRecorder-\$0;
#X obj 791 400 s curRecorder-\$0;
#X obj 772 671 r curRecorder-\$0;
#X obj 1068 675 r curRecorder-\$0;
#X obj 938 679 r recLength-\$0;
#X obj 626 651 r recLength-\$0;
#X obj 354 680 r recLength-\$0;
#X obj 1019 588 metro 100;
#X obj 974 609 f 1;
#X obj 1108 494 delay 2000;
#X msg 1094 556 0;
#X obj 1232 573 line 1;
#X obj 838 1317 *~;
#X obj 1188 1267 +~;
#X obj 696 1314 *~;
#X obj 307 722 bng 15 250 50 0 empty empty empty 17 7 0 10 #fcfcfc
#000000 #000000;
#X obj 978 491 / 1.5;
#X obj 647 1374 else/plate.rev~ 180 0.5 0.25 0.9 0.4;
#X obj 885 1376 else/plate.rev~ 200 0.5 0.25 0.9 0.4;
#X msg 1213 491 1 50;
#X obj 639 1346 else/flanger~ 5 20 -0.3;
#X obj 886 1344 else/flanger~ 7 23 -0.4;
#X obj 1312 458 bng 15 250 50 0 empty empty empty 17 7 0 10 #fcfcfc
#000000 #000000;
#X text 1343 459 record released;
#X msg 1214 523 0 20000;
#X msg 645 1175 set 1;
#X obj 330 771 sequenced_player_rain \$0 5 5000 7000;
#X obj 638 769 sequenced_player_rain \$0 3 7000 8000;
#X obj 933 776 sequenced_player_rain \$0 4 9000 3000;
#X connect 0 0 2 0;
#X connect 1 0 84 1;
#X connect 1 0 93 0;
#X connect 2 0 1 0;
#X connect 2 0 71 0;
#X connect 2 0 96 0;
#X connect 2 0 103 6;
#X connect 2 0 104 6;
#X connect 2 0 105 6;
#X connect 2 1 1 1;
#X connect 2 1 72 0;
#X connect 2 1 86 0;
#X connect 2 1 101 0;
#X connect 2 1 84 0;
#X connect 2 1 99 0;
#X connect 3 0 85 1;
#X connect 4 0 67 0;
#X connect 4 0 68 0;
#X connect 4 0 69 0;
#X connect 4 0 103 4;
#X connect 5 0 0 0;
#X connect 6 0 40 0;
#X connect 7 0 8 0;
#X connect 8 0 20 0;
#X connect 8 0 41 1;
#X connect 8 0 74 0;
#X connect 8 0 78 0;
#X connect 14 0 40 0;
#X connect 15 0 40 0;
#X connect 16 0 41 0;
#X connect 16 0 62 0;
#X connect 17 0 15 0;
#X connect 17 1 16 0;
#X connect 18 0 19 0;
#X connect 20 0 18 0;
#X connect 20 1 21 0;
#X connect 21 0 19 1;
#X connect 22 0 103 3;
#X connect 23 0 104 3;
#X connect 26 0 105 3;
#X connect 28 0 104 1;
#X connect 29 0 105 1;
#X connect 30 0 31 0;
#X connect 30 0 102 0;
#X connect 31 0 55 0;
#X connect 31 0 56 0;
#X connect 31 0 57 0;
#X connect 32 0 28 1;
#X connect 33 0 29 1;
#X connect 34 0 65 0;
#X connect 35 0 65 1;
#X connect 40 0 67 1;
#X connect 40 1 68 1;
#X connect 40 2 69 1;
#X connect 41 0 7 0;
#X connect 42 0 24 0;
#X connect 42 0 104 2;
#X connect 43 0 27 0;
#X connect 43 0 105 2;
#X connect 44 0 4 0;
#X connect 46 0 48 0;
#X connect 46 0 52 0;
#X connect 47 0 46 0;
#X connect 48 0 49 0;
#X connect 48 1 50 0;
#X connect 49 0 45 0;
#X connect 50 0 51 0;
#X connect 51 0 45 0;
#X connect 53 0 54 0;
#X connect 54 0 37 0;
#X connect 54 1 36 0;
#X connect 55 0 103 0;
#X connect 56 0 104 0;
#X connect 57 0 105 0;
#X connect 58 0 32 0;
#X connect 59 0 33 0;
#X connect 60 0 58 0;
#X connect 60 0 59 0;
#X connect 61 0 60 0;
#X connect 62 0 22 0;
#X connect 62 1 63 0;
#X connect 63 0 23 0;
#X connect 63 1 64 0;
#X connect 64 0 26 0;
#X connect 65 0 91 0;
#X connect 65 1 89 0;
#X connect 66 0 44 0;
#X connect 66 1 5 0;
#X connect 70 0 17 0;
#X connect 73 0 14 0;
#X connect 74 0 40 1;
#X connect 76 0 6 0;
#X connect 77 0 25 0;
#X connect 77 0 103 2;
#X connect 79 0 42 0;
#X connect 80 0 43 0;
#X connect 81 0 29 0;
#X connect 82 0 28 0;
#X connect 83 0 92 0;
#X connect 83 0 103 1;
#X connect 84 0 85 0;
#X connect 85 0 75 0;
#X connect 86 0 87 0;
#X connect 87 0 84 0;
#X connect 88 0 90 0;
#X connect 89 0 98 0;
#X connect 90 0 89 1;
#X connect 90 0 91 1;
#X connect 91 0 97 0;
#X connect 93 0 3 0;
#X connect 94 0 54 1;
#X connect 95 1 54 2;
#X connect 96 0 88 0;
#X connect 97 0 94 0;
#X connect 98 0 95 0;
#X connect 99 0 103 5;
#X connect 99 0 104 5;
#X connect 99 0 105 5;
#X connect 101 0 88 0;
#X connect 102 0 65 0;
#X connect 103 0 34 0;
#X connect 103 1 35 0;
#X connect 104 0 34 0;
#X connect 104 1 35 0;
#X connect 105 0 34 0;
#X connect 105 1 35 0;
