#N canvas 226 350 760 427 10;
#X obj 223 76 expr 44100*10;
#X obj 224 45 loadbang;
#X obj 80 69 * 44.1;
#N canvas 0 23 632 474 (subpatch) 0;
#X array \$1-memory 441000 float 2;
#X coords 0 -1 441000 1 262 96 1 25 25;
#X restore 244 216 graph;
#X msg 153 219 stop;
#X msg 82 220 start 0;
#X obj 395 53 inlet~ audio;
#X obj 511 54 inlet messages;
#X obj 477 106 route recLength recStart recStop;
#X obj 94 281 tabwrite~ \$1-memory;
#X msg 170 113 memory resize \$1 \;;
#X connect 0 0 10 0;
#X connect 1 0 0 0;
#X connect 2 0 10 0;
#X connect 4 0 9 0;
#X connect 5 0 9 0;
#X connect 6 0 9 0;
#X connect 7 0 8 0;
#X connect 8 0 2 0;
#X connect 8 1 5 0;
#X connect 8 2 4 0;
