#N canvas 90 555 760 427 10;
#X obj 168 144 expr 44100*10;
#X obj 628 187 loadbang;
#X obj 83 107 * 44.1;
#N canvas 0 23 632 474 (subpatch) 0;
#X array \$1-memory_rain 441000 float 2;
#X coords 0 -1 441000 1 262 96 1 25 25;
#X restore 247 254 graph;
#X msg 156 257 stop;
#X msg 85 258 start 0;
#X obj 398 91 inlet~ audio;
#X obj 514 92 inlet messages;
#X obj 480 144 route recLength recStart recStop;
#X msg 116 190 memory resize \$1 \;;
#X obj 564 306 pack f f;
#X obj 563 267 float \$1;
#X obj 571 242 t b b;
#X obj 642 216 bng 15 250 50 0 empty empty empty 17 7 0 10 -262144
-1 -1;
#X obj 97 319 tabwrite~ \$1-memory_rain;
#X msg 567 356 \; \$1-memory_rain const 0;
#X connect 0 0 9 0;
#X connect 1 0 13 0;
#X connect 2 0 9 0;
#X connect 4 0 14 0;
#X connect 5 0 14 0;
#X connect 6 0 14 0;
#X connect 7 0 8 0;
#X connect 8 0 2 0;
#X connect 8 1 5 0;
#X connect 8 1 13 0;
#X connect 8 2 4 0;
#X connect 10 0 15 0;
#X connect 11 0 10 0;
#X connect 12 0 11 0;
#X connect 13 0 12 0;
