#N canvas 324 492 1124 745 10;
#X msg 163 128 1;
#X msg 149 162 0;
#X obj 100 187 readsf~ 2;
#X obj 109 43 loadbang;
#X obj 226 547 dac~;
#X obj 820 283 adc~ 1;
#X obj 656 453 delread4~ \$0-delay2;
#X floatatom 658 336 0 0 1000 0 - - -;
#X obj 659 364 pack 0 1000;
#X obj 659 389 line~;
#X msg 176 93 open audio/medium/Beach1_trim1.wav;
#X obj 189 220 vsl 15 128 0 1 0 1 empty empty empty 0 -9 0 10 -262144
-1 -1 9800 1;
#X obj 178 364 line~ 0 100;
#X obj 101 412 *~;
#X obj 139 412 *~;
#X obj 236 175 bng 15 250 50 0 empty empty empty 17 7 0 10 -262144
-1 -1;
#X obj 267 182 t b b;
#X obj 278 239 delay 200;
#X obj 921 149 vsl 15 128 0 1 0 1 empty empty empty 0 -9 0 10 -262144
-1 -1 0 1;
#X obj 893 305 line~ 0 100;
#X obj 829 341 *~;
#X obj 798 385 delwrite~ \$0-delay2 4000;
#X msg 162 66 open audio/medium/splashes.wav;
#X msg 180 34 open audio/medium/lk_whitney_trim.aif;
#N canvas 855 414 338 547 sampler 0;
#X obj 91 189 openpanel;
#X obj 91 246 soundfiler;
#X obj 91 410 phasor~;
#X obj 91 437 *~;
#X obj 91 314 expr 1 / ( $f1 / 44100 );
#X obj 91 385 sig~;
#X obj 148 410 sig~;
#X obj 125 361 t 0;
#X obj 91 498 outlet~;
#X obj 188 28 bng 15 250 50 0 empty empty empty 17 7 0 10 -262144 -1
-1;
#X text 208 30 Play/Stop;
#X obj 28 437 snapshot~;
#X obj 91 361 f;
#X obj 269 28 tgl 15 0 empty empty empty 17 7 0 10 -262144 -1 -1 1
1;
#X obj 242 314 sel 1 0;
#X msg 28 461 set \$1;
#X text 156 30 Load;
#N canvas 0 22 450 278 (subpatch) 0;
#X array Sample_Loop_A 8.00706e+06 float 2;
#X coords 0 1 8.00706e+06 -1 256 64 2 0 0;
#X restore 28 46 graph;
#X obj 31 110 hsl 251 8 0 1 0 0 empty empty empty 0 0 0 10 -262144
-1 -1 19580 0;
#X obj 28 408 metro 20;
#X obj 91 155 t b 0;
#X msg 157 362 1;
#X msg 91 218 read -maxsize 1e+09 \$1 Sample_Loop_A;
#X obj 91 463 tabread4~ Sample_Loop_A;
#X connect 0 0 22 0;
#X connect 1 0 6 0;
#X connect 1 0 4 0;
#X connect 2 0 3 0;
#X connect 2 0 11 0;
#X connect 3 0 23 0;
#X connect 4 0 12 0;
#X connect 4 0 21 0;
#X connect 5 0 2 0;
#X connect 6 0 3 1;
#X connect 7 0 5 0;
#X connect 9 0 20 0;
#X connect 11 0 15 0;
#X connect 12 0 5 0;
#X connect 13 0 14 0;
#X connect 13 0 19 0;
#X connect 14 0 12 0;
#X connect 14 1 7 0;
#X connect 15 0 18 0;
#X connect 18 0 2 1;
#X connect 19 0 11 0;
#X connect 20 0 0 0;
#X connect 20 1 2 1;
#X connect 20 1 13 0;
#X connect 21 0 13 0;
#X connect 22 0 1 0;
#X connect 23 0 8 0;
#X coords 0 -1 1 1 262 96 2 25 25;
#X restore 571 9 pd sampler;
#N canvas 855 414 338 547 sampler 0;
#X obj 91 189 openpanel;
#X obj 91 246 soundfiler;
#X obj 91 410 phasor~;
#X obj 91 437 *~;
#X obj 91 314 expr 1 / ( $f1 / 44100 );
#X obj 91 385 sig~;
#X obj 148 410 sig~;
#X obj 125 361 t 0;
#X obj 91 498 outlet~;
#X obj 188 28 bng 15 250 50 0 empty empty empty 17 7 0 10 -262144 -1
-1;
#X text 208 30 Play/Stop;
#X obj 28 437 snapshot~;
#X obj 91 361 f;
#X obj 269 28 tgl 15 0 empty empty empty 17 7 0 10 -262144 -1 -1 1
1;
#X obj 242 314 sel 1 0;
#X msg 28 461 set \$1;
#X text 156 30 Load;
#N canvas 0 22 450 278 (subpatch) 0;
#X array Sample_Loop_B 1.323e+06 float 2;
#X coords 0 1 1.323e+06 -1 256 64 2 0 0;
#X restore 28 46 graph;
#X obj 31 110 hsl 251 8 0 1 0 0 empty empty empty 0 0 0 10 -262144
-1 -1 19929 0;
#X obj 28 408 metro 20;
#X obj 91 155 t b 0;
#X msg 157 362 1;
#X msg 91 218 read -maxsize 1e+09 \$1 Sample_Loop_B;
#X obj 91 463 tabread4~ Sample_Loop_B;
#X connect 0 0 22 0;
#X connect 1 0 6 0;
#X connect 1 0 4 0;
#X connect 2 0 3 0;
#X connect 2 0 11 0;
#X connect 3 0 23 0;
#X connect 4 0 12 0;
#X connect 4 0 21 0;
#X connect 5 0 2 0;
#X connect 6 0 3 1;
#X connect 7 0 5 0;
#X connect 9 0 20 0;
#X connect 11 0 15 0;
#X connect 12 0 5 0;
#X connect 13 0 14 0;
#X connect 13 0 19 0;
#X connect 14 0 12 0;
#X connect 14 1 7 0;
#X connect 15 0 18 0;
#X connect 18 0 2 1;
#X connect 19 0 11 0;
#X connect 20 0 0 0;
#X connect 20 1 2 1;
#X connect 20 1 13 0;
#X connect 21 0 13 0;
#X connect 22 0 1 0;
#X connect 23 0 8 0;
#X coords 0 -1 1 1 262 96 2 25 25;
#X restore 836 9 pd sampler;
#X text 672 104 carrier;
#X text 947 104 filter;
#N canvas 1194 265 780 990 ampl_convo_else~ 0;
#X obj 203 865 outlet~;
#X obj 218 212 rfft~;
#X obj 318 710 block~;
#X msg 318 677 set \$1 4;
#X obj 305 639 r \$0-size;
#X obj 218 165 else/hann~;
#X obj 203 820 *~;
#X obj 305 748 expr 1 / ($f1 * 1.5);
#X obj 479 681 loadbang;
#X obj 479 743 s \$0-size;
#X msg 479 710 2048;
#X obj 188 273 *~;
#X obj 259 280 *~;
#X obj 209 314 +~;
#X obj 205 349 sqrt~;
#X obj 208 377 clip~ -0.9 0.9;
#X obj 351 223 rfft~;
#X obj 321 284 *~;
#X obj 392 291 *~;
#X obj 342 325 +~;
#X obj 344 350 sqrt~;
#X obj 340 376 clip~ -0.9 0.9;
#X obj 59 509 rfft~;
#X obj 57 445 else/hann~;
#X text 234 405 fftamp1;
#X text 375 402 fftamp2;
#X obj 287 78 inlet~ rhythm;
#X obj 83 75 inlet~ noise;
#X obj 175 514 rfft~;
#X obj 49 573 *~;
#X obj 100 576 *~;
#X obj 55 637 rifft~;
#X obj 55 683 else/hann~;
#X obj 168 574 *~;
#X obj 219 577 *~;
#X obj 174 638 rifft~;
#X obj 121 752 +~;
#X text 69 36 thanks to the msp convolution workshop old example. :)
;
#X obj 333 119 shift_hann_jdn;
#X obj 150 445 shift_hann_jdn;
#X obj 174 688 shift_hann_jdn;
#X connect 1 0 11 0;
#X connect 1 0 11 1;
#X connect 1 1 12 0;
#X connect 1 1 12 1;
#X connect 3 0 2 0;
#X connect 4 0 3 0;
#X connect 4 0 7 0;
#X connect 5 0 1 0;
#X connect 6 0 0 0;
#X connect 7 0 6 1;
#X connect 8 0 10 0;
#X connect 10 0 9 0;
#X connect 11 0 13 0;
#X connect 12 0 13 1;
#X connect 13 0 14 0;
#X connect 14 0 15 0;
#X connect 15 0 30 1;
#X connect 15 0 29 1;
#X connect 16 0 17 0;
#X connect 16 0 17 1;
#X connect 16 1 18 0;
#X connect 16 1 18 1;
#X connect 17 0 19 0;
#X connect 18 0 19 1;
#X connect 19 0 20 0;
#X connect 20 0 21 0;
#X connect 21 0 33 1;
#X connect 21 0 34 1;
#X connect 22 0 29 0;
#X connect 22 1 30 0;
#X connect 23 0 22 0;
#X connect 26 0 5 0;
#X connect 26 0 38 0;
#X connect 27 0 23 0;
#X connect 27 0 39 0;
#X connect 28 0 33 0;
#X connect 28 1 34 0;
#X connect 29 0 31 0;
#X connect 30 0 31 1;
#X connect 31 0 32 0;
#X connect 32 0 36 0;
#X connect 33 0 35 0;
#X connect 34 0 35 1;
#X connect 35 0 40 0;
#X connect 36 0 6 0;
#X connect 38 0 16 0;
#X connect 39 0 28 0;
#X connect 40 0 36 1;
#X restore 248 488 pd ampl_convo_else~;
#X text 959 213 mic input level;
#X text 655 315 mic delay (ms);
#X connect 0 0 2 0;
#X connect 1 0 2 0;
#X connect 2 0 13 0;
#X connect 2 1 14 0;
#X connect 2 2 15 0;
#X connect 3 0 10 0;
#X connect 5 0 20 0;
#X connect 6 0 28 1;
#X connect 7 0 8 0;
#X connect 8 0 9 0;
#X connect 9 0 6 0;
#X connect 10 0 2 0;
#X connect 11 0 12 0;
#X connect 12 0 13 1;
#X connect 12 0 14 1;
#X connect 15 0 16 0;
#X connect 16 0 17 0;
#X connect 16 1 23 0;
#X connect 17 0 0 0;
#X connect 18 0 19 0;
#X connect 19 0 20 1;
#X connect 20 0 21 0;
#X connect 22 0 2 0;
#X connect 23 0 2 0;
#X connect 24 0 28 0;
#X connect 25 0 28 1;
#X connect 28 0 4 0;
#X connect 28 0 4 1;
