#N canvas 284 36 1440 855 10;
#X obj 980 411 tgl 30 0 empty empty empty 17 7 0 10 #fcfcfc #000000
#000000 0 1;
#X obj 976 533 timer;
#X obj 986 464 select 1 0;
#X floatatom 976 568 8 0 0 0 - - - 0;
#X obj 1031 508 s recStart;
#X obj 1107 508 s recStop;
#X obj 976 604 s recLength;
#X obj 375 362 +~;
#X obj 980 379 else/schmitt 0.5 0.1;
#X obj 496 24 r recStart;
#X obj 496 229 r recStop;
#X obj 520 84 r recLength;
#X msg 521 114 recLength \$1;
#X obj 802 257 vradio 15 1 0 6 dasda asfgasgf324243 empty 0 -8 0 10
#dcdcdc #000000 #000000 0;
#X obj 728 367 nbx 2 15 -1e+37 1e+37 0 0 xfkvds asfmnv empty 0 -8 0
12 #dcdcdc #000000 #000000 0 256;
#X text 820 257 none;
#X text 820 272 1st;
#X text 820 287 2nd;
#X text 820 302 3rd;
#X text 768 366 outlet #;
#X msg 496 259 recStop bang;
#X msg 508 191 recStart bang;
#X obj 647 135 bng 15 250 50 0 empty empty empty 17 7 0 10 #fcfcfc
#000000 #000000;
#X obj 509 53 t b b;
#X msg 693 443 1 2 3;
#X obj 711 483 else/rotate;
#X obj 730 405 t b f;
#X obj 767 450 * -1;
#X obj 354 680 r recLength;
#X obj 572 717 bng 15 250 50 0 empty empty empty 17 7 0 10 #fcfcfc
#000000 #000000;
#X obj 610 653 r recLength;
#X obj 772 671 r curRecorder;
#X obj 885 711 bng 15 250 50 0 empty empty empty 17 7 0 10 #fcfcfc
#000000 #000000;
#X obj 786 750 nbx 5 14 -1e+37 1e+37 0 0 empty empty empty 0 -8 0 10
#fcfcfc #000000 #000000 0 256;
#X obj 498 740 nbx 5 14 -1e+37 1e+37 0 0 empty empty empty 0 -8 0 10
#fcfcfc #000000 #000000 0 256;
#X obj 914 668 r recLength;
#X obj 1068 675 r curRecorder;
#X obj 1181 715 bng 15 250 50 0 empty empty empty 17 7 0 10 #fcfcfc
#000000 #000000;
#X obj 1082 754 nbx 5 14 -1e+37 1e+37 0 0 empty empty empty 0 -8 0
10 #fcfcfc #000000 #000000 0 256;
#X obj 665 685 * 1.5;
#X obj 974 701 * 2;
#X obj 556 1087 loadbang;
#X obj 573 1106 bng 15 250 50 0 empty empty empty 17 7 0 10 #fcfcfc
#000000 #000000;
#X obj 702 654 nbx 5 14 0.1 5 0 1 empty empty empty 0 -8 0 10 #fcfcfc
#000000 #000000 1.5 256;
#X obj 1002 663 nbx 5 14 0.1 5 0 1 empty empty empty 0 -8 0 10 #fcfcfc
#000000 #000000 2 256;
#X obj 698 1177 +~;
#X obj 948 1178 +~;
#X obj 849 1592 outlet~;
#X obj 711 1597 outlet~;
#X text 820 317 4nd;
#X text 820 332 5rd;
#X obj 666 178 expr 1+(($i2)%3);
#X obj 748 712 expr (($i1+3)%3)+1;
#X obj 1044 716 expr (($i1+4)%3)+1;
#X obj 777 193 +~;
#X obj 259 198 switch~;
#X obj 175 104 tgl 15 1 empty empty empty 17 7 0 10 #fcfcfc #000000
#000000 1 1;
#X obj 161 79 inlet;
#X obj 255 119 select 1 0;
#X msg 254 147 1;
#X obj 290 148 delay 500;
#X msg 289 173 0;
#X obj 172 144 s \$0-enable;
#X obj 646 1537 r \$0-enable;
#X obj 725 1560 else/autofade2~ 150 500 2;
#X msg 301 1143 echoAmp 1 0.8 0.6 0.5 \, echoWet 0.3 0.7 0.9 1;
#X obj 500 592 float \$1;
#X obj 1154 593 float \$2;
#X obj 491 520 else/loadbanger;
#X obj 490 496 bng 15 250 50 0 empty empty empty 17 7 0 10 #fcfcfc
#000000 #000000;
#X obj 771 94 mic_controller_jdn 37 3;
#X obj 773 1234 else/gain2~ 1 0 20 0 0.85;
#X obj 454 391 recorder_jdn 1 \$0;
#X obj 452 416 recorder_jdn 2 \$0;
#X obj 455 447 recorder_jdn 3 \$0;
#X obj 336 828 sequenced_player_jdn \$0;
#X obj 635 835 sequenced_player_jdn \$0;
#X obj 930 844 sequenced_player_jdn \$0;
#X obj 483 676 r curRecorder;
#X obj 564 347 else/router 3;
#X obj 664 309 - 1;
#X obj 858 413 s curRecorder;
#X obj 943 1300 else/rescale~ 100 1000;
#X obj 943 1276 osc~ 0.33;
#X obj 582 1288 else/rescale~ 100 1000;
#X obj 582 1264 osc~ 0.4;
#X obj 638 1346 else/phaser~ 2 1 0.9;
#X obj 886 1345 else/phaser~ 2 1 0.9;
#X obj 647 1375 else/plate.rev~ 180 0.5 0.25 0.9 0.3;
#X obj 887 1374 else/plate.rev~ 200 0.5 0.25 0.9 0.3;
#X obj 667 709 t f f;
#X obj 684 760 delay 200;
#X obj 711 731 / 4;
#X obj 626 763 float 1;
#X obj 971 731 t f f;
#X obj 988 782 delay 200;
#X obj 1015 753 / 4;
#X obj 930 785 float 1;
#X msg 616 1143 echoAmp 0.1 0.6 0.4 0.9 \, echoWet 0.8 0.85 0.5 0.75
;
#X msg 946 1142 echoAmp 0.1 0.4 0.8 0.6 \, echoWet 0.9 0.6 0.7 0.85
;
#X obj 643 507 bng 15 250 50 0 empty empty empty 17 7 0 10 #fcfcfc
#000000 #000000;
#X obj 609 576 else/chance 50;
#X obj 731 579 else/chance 33;
#X obj 850 583 else/chance 25;
#X msg 644 1203 set 0.85;
#X obj 1193 1451 vsl 18 80 -12 0 0 0 empty empty empty 0 -9 0 10 #dcdcdc
#000000 #000000 0 1;
#X obj 862 1445 vsl 18 80 -12 0 0 0 empty empty empty 0 -9 0 10 #dcdcdc
#000000 #000000 0 1;
#X obj 643 1468 else/compress~ -16 2 30 500 0 256;
#X obj 967 1466 else/compress~ -16 2 30 500 0 256;
#X connect 0 0 2 0;
#X connect 1 0 3 0;
#X connect 2 0 1 0;
#X connect 2 0 4 0;
#X connect 2 1 1 1;
#X connect 2 1 5 0;
#X connect 3 0 6 0;
#X connect 7 0 72 0;
#X connect 7 0 73 0;
#X connect 7 0 74 0;
#X connect 8 0 0 0;
#X connect 9 0 23 0;
#X connect 10 0 20 0;
#X connect 11 0 12 0;
#X connect 12 0 79 0;
#X connect 13 0 14 0;
#X connect 14 0 26 0;
#X connect 14 0 51 1;
#X connect 14 0 80 0;
#X connect 14 0 81 0;
#X connect 20 0 79 0;
#X connect 21 0 79 0;
#X connect 22 0 51 0;
#X connect 22 0 100 0;
#X connect 23 0 21 0;
#X connect 23 1 22 0;
#X connect 24 0 25 0;
#X connect 26 0 24 0;
#X connect 26 1 27 0;
#X connect 27 0 25 1;
#X connect 28 0 75 1;
#X connect 29 0 75 3;
#X connect 30 0 39 0;
#X connect 31 0 52 0;
#X connect 32 0 76 3;
#X connect 35 0 40 0;
#X connect 36 0 53 0;
#X connect 37 0 77 3;
#X connect 39 0 90 0;
#X connect 40 0 94 0;
#X connect 41 0 42 0;
#X connect 41 0 104 0;
#X connect 42 0 65 0;
#X connect 42 0 98 0;
#X connect 42 0 99 0;
#X connect 43 0 39 1;
#X connect 44 0 40 1;
#X connect 45 0 71 0;
#X connect 46 0 71 1;
#X connect 51 0 13 0;
#X connect 52 0 33 0;
#X connect 52 0 76 2;
#X connect 53 0 38 0;
#X connect 53 0 77 2;
#X connect 54 0 7 0;
#X connect 56 0 58 0;
#X connect 56 0 62 0;
#X connect 57 0 56 0;
#X connect 58 0 59 0;
#X connect 58 1 60 0;
#X connect 59 0 55 0;
#X connect 60 0 61 0;
#X connect 61 0 55 0;
#X connect 63 0 64 0;
#X connect 64 0 48 0;
#X connect 64 1 47 0;
#X connect 65 0 75 0;
#X connect 66 0 43 0;
#X connect 67 0 44 0;
#X connect 68 0 66 0;
#X connect 68 0 67 0;
#X connect 69 0 68 0;
#X connect 70 0 54 0;
#X connect 70 1 8 0;
#X connect 71 0 86 0;
#X connect 71 1 87 0;
#X connect 75 0 45 0;
#X connect 75 1 46 0;
#X connect 76 0 45 0;
#X connect 76 1 46 0;
#X connect 77 0 45 0;
#X connect 77 1 46 0;
#X connect 78 0 34 0;
#X connect 78 0 75 2;
#X connect 79 0 72 1;
#X connect 79 1 73 1;
#X connect 79 2 74 1;
#X connect 80 0 79 1;
#X connect 82 0 87 1;
#X connect 83 0 82 0;
#X connect 84 0 86 1;
#X connect 85 0 84 0;
#X connect 86 0 88 0;
#X connect 87 0 89 0;
#X connect 88 0 107 0;
#X connect 89 1 108 0;
#X connect 90 0 93 1;
#X connect 90 1 92 0;
#X connect 91 0 93 0;
#X connect 92 0 91 0;
#X connect 93 0 76 1;
#X connect 94 0 97 1;
#X connect 94 1 96 0;
#X connect 95 0 97 0;
#X connect 96 0 95 0;
#X connect 97 0 77 1;
#X connect 98 0 76 0;
#X connect 99 0 77 0;
#X connect 100 0 101 0;
#X connect 100 0 102 0;
#X connect 100 0 103 0;
#X connect 101 0 29 0;
#X connect 102 0 32 0;
#X connect 103 0 37 0;
#X connect 104 0 71 0;
#X connect 107 0 64 1;
#X connect 107 1 106 0;
#X connect 108 0 64 2;
#X connect 108 1 105 0;
