#N canvas 666 261 853 708 10;
#X obj 82 524 dorien_sketch;
#X obj 177 524 ripples_sketch_amp;
#X obj 272 367 hradio 15 1 0 8 empty empty empty 0 -8 0 10 -262144
-1 -1 2;
#X obj 82 501 expr $i1==0;
#X obj 177 502 expr $i1==1;
#X obj 261 8 notein 1;
#X obj 261 40 pack 0 0;
#X obj 261 96 route 36 37 38 39;
#X obj 257 139 >;
#X obj 299 138 >;
#X obj 339 138 >;
#X obj 374 139 >;
#X msg 257 181 0;
#X msg 298 182 1;
#X msg 339 182 2;
#X msg 377 182 3;
#X obj 489 548 noteout;
#X obj 486 508 unpack f f f;
#X obj 486 416 route 0 1 2 3;
#X msg 485 468 1 100 1;
#X msg 551 468 3 100 1;
#X msg 615 468 5 100 1;
#X msg 681 469 7 100 1;
#X msg 635 414 1 0 1 \, 3 0 1 \, 5 0 1 \, 7 0 1;
#X obj 435 393 t f b;
#X obj 315 502 expr $i1==2;
#X obj 315 524 ripplezone_main;
#X connect 2 0 3 0;
#X connect 2 0 4 0;
#X connect 2 0 24 0;
#X connect 2 0 25 0;
#X connect 3 0 0 0;
#X connect 4 0 1 0;
#X connect 5 0 6 0;
#X connect 5 1 6 1;
#X connect 6 0 7 0;
#X connect 7 0 8 0;
#X connect 7 1 9 0;
#X connect 7 2 10 0;
#X connect 7 3 11 0;
#X connect 8 0 12 0;
#X connect 9 0 13 0;
#X connect 10 0 14 0;
#X connect 11 0 15 0;
#X connect 12 0 2 0;
#X connect 13 0 2 0;
#X connect 14 0 2 0;
#X connect 15 0 2 0;
#X connect 17 0 16 0;
#X connect 17 1 16 1;
#X connect 17 2 16 2;
#X connect 18 0 19 0;
#X connect 18 1 20 0;
#X connect 18 2 21 0;
#X connect 18 3 22 0;
#X connect 19 0 17 0;
#X connect 20 0 17 0;
#X connect 21 0 17 0;
#X connect 22 0 17 0;
#X connect 23 0 17 0;
#X connect 24 0 18 0;
#X connect 24 1 23 0;
#X connect 25 0 26 0;
