#N canvas 408 407 1096 753 10;
#X obj 82 524 dorien_sketch;
#X obj 177 524 ripples_sketch_amp;
#X obj 272 367 hradio 15 1 0 8 empty empty empty 0 -8 0 10 -262144
-1 -1 1;
#X obj 82 501 expr $i1==0;
#X obj 177 502 expr $i1==1;
#X obj 261 8 notein 1;
#X obj 261 40 pack 0 0;
#X obj 257 139 >;
#X obj 299 138 >;
#X obj 339 138 >;
#X obj 374 139 >;
#X msg 257 181 0;
#X msg 300 180 1;
#X msg 339 182 2;
#X msg 377 182 3;
#X obj 600 458 noteout;
#X obj 597 418 unpack f f f;
#X obj 597 326 route 0 1 2 3;
#X msg 596 378 1 100 1;
#X msg 662 378 3 100 1;
#X msg 726 378 5 100 1;
#X msg 792 379 7 100 1;
#X msg 722 330 1 0 1 \, 3 0 1 \, 5 0 1 \, 7 0 1;
#X obj 546 303 t f b;
#X obj 315 502 expr $i1==2;
#X obj 597 67 loadbang;
#X obj 597 101 delay 100;
#X msg 595 138 \; pd dsp 1;
#X obj 512 138 delay 100;
#X obj 48 235 ambient_playa_jdn;
#X obj 46 198 bng 15 250 50 0 empty empty empty 17 7 0 10 -262144 -1
-1;
#X obj 227 663 dac~;
#X obj 55 287 else/gain2~;
#X obj 173 223 loadbang;
#X obj 50 616 +~;
#X obj 84 614 +~;
#X msg 172 254 0.66;
#X obj 442 524 ice_sketch;
#X obj 442 500 expr $i1==3;
#X obj 419 140 >;
#X msg 422 183 4;
#X obj 261 96 route 36 37 38 40;
#X obj 567 507 expr $i1==4;
#X obj 315 525 rain_sketch;
#X obj 569 534 conform_sketch;
#X msg 457 238 1;
#X connect 0 0 31 0;
#X connect 0 1 31 1;
#X connect 1 0 31 0;
#X connect 1 1 31 1;
#X connect 2 0 3 0;
#X connect 2 0 4 0;
#X connect 2 0 23 0;
#X connect 2 0 24 0;
#X connect 2 0 38 0;
#X connect 2 0 42 0;
#X connect 3 0 0 0;
#X connect 4 0 1 0;
#X connect 5 0 6 0;
#X connect 5 1 6 1;
#X connect 6 0 41 0;
#X connect 7 0 11 0;
#X connect 8 0 12 0;
#X connect 9 0 13 0;
#X connect 10 0 14 0;
#X connect 11 0 2 0;
#X connect 12 0 2 0;
#X connect 13 0 2 0;
#X connect 14 0 2 0;
#X connect 16 0 15 0;
#X connect 16 1 15 1;
#X connect 16 2 15 2;
#X connect 17 0 18 0;
#X connect 17 1 19 0;
#X connect 17 2 20 0;
#X connect 17 3 21 0;
#X connect 18 0 16 0;
#X connect 19 0 16 0;
#X connect 20 0 16 0;
#X connect 21 0 16 0;
#X connect 22 0 16 0;
#X connect 23 0 17 0;
#X connect 23 1 22 0;
#X connect 24 0 43 0;
#X connect 25 0 26 0;
#X connect 26 0 27 0;
#X connect 26 0 28 0;
#X connect 28 0 45 0;
#X connect 29 0 32 0;
#X connect 29 1 32 1;
#X connect 30 0 29 0;
#X connect 32 0 34 0;
#X connect 32 1 35 0;
#X connect 33 0 36 0;
#X connect 34 0 31 0;
#X connect 35 0 31 1;
#X connect 36 0 32 2;
#X connect 37 0 31 0;
#X connect 37 1 31 1;
#X connect 38 0 37 0;
#X connect 39 0 40 0;
#X connect 40 0 2 0;
#X connect 41 0 7 0;
#X connect 41 1 8 0;
#X connect 41 2 9 0;
#X connect 41 3 10 0;
#X connect 41 4 39 0;
#X connect 42 0 44 0;
#X connect 43 0 31 0;
#X connect 43 1 31 1;
#X connect 44 0 31 0;
#X connect 44 1 31 1;
#X connect 45 0 2 0;
