#N canvas 625 47 1044 779 10;
#X obj 154 483 dorien_sketch;
#X obj 265 283 hradio 15 1 0 8 empty empty empty 0 -8 0 10 #fcfcfc
#000000 #000000 0;
#X obj 154 460 expr $i1==0;
#X obj 249 461 expr $i1==1;
#X obj 261 8 notein 1;
#X obj 261 40 pack 0 0;
#X obj 191 125 >;
#X obj 233 124 >;
#X obj 273 124 >;
#X obj 308 125 >;
#X msg 191 167 0;
#X msg 234 166 1;
#X msg 311 168 3;
#X obj 714 538 noteout;
#X obj 711 498 unpack f f f;
#X msg 678 374 1 100 1;
#X msg 744 374 3 100 1;
#X msg 810 374 5 100 1;
#X msg 874 375 7 100 1;
#X obj 576 241 t f b;
#X obj 409 460 expr $i1==2;
#X obj 597 67 loadbang;
#X obj 597 101 delay 100;
#X msg 595 138 \; pd dsp 1;
#X obj 512 138 delay 100;
#X obj 48 235 ambient_playa_jdn;
#X obj 46 198 bng 15 250 50 0 empty empty empty 17 7 0 10 #fcfcfc #000000
#000000;
#X obj 55 287 else/gain2~ 1 0 20 0 0.7;
#X obj 124 278 loadbang;
#X obj 45 482 +~;
#X obj 79 480 +~;
#X obj 581 484 ice_sketch;
#X obj 581 460 expr $i1==3;
#X obj 156 392 expr $i1==4;
#X obj 158 419 conform_sketch;
#X msg 505 208 1;
#X obj 679 322 route 0 1 2 3 4 5 6 7;
#X obj 225 82 route 36 37 38 39 40 41 42 43;
#X obj 349 125 >;
#X obj 391 124 >;
#X obj 431 124 >;
#X obj 466 125 >;
#X msg 349 167 4;
#X msg 703 286 1 0 1 \, 3 0 1 \, 5 0 1 \, 7 0 1 \, 9 0 1 \, 11 0 1
\, 13 0 1 \, 15 0 1;
#X msg 701 411 9 100 1;
#X msg 761 412 11 100 1;
#X msg 829 412 13 100 1;
#X msg 895 410 15 100 1;
#X obj 260 389 expr $i1==5;
#X obj 373 389 expr $i1==6;
#X obj 492 389 expr $i1==7;
#X msg 273 168 2;
#X msg 392 166 5;
#X msg 431 168 6;
#X msg 469 168 7;
#X obj 841 76 bng 15 250 50 0 empty empty empty 17 7 0 10 #dcdcdc #000000
#000000;
#X msg 722 84 start;
#X msg 770 85 stop;
#X msg 802 50 loop \$1;
#X obj 802 30 tgl 15 0 empty empty empty 17 7 0 10 #dcdcdc #000000
#000000 0 1;
#X obj 818 76 tgl 15 0 empty empty empty 17 7 0 10 #dcdcdc #000000
#000000 0 1;
#X msg 874 77 open bagal.aif;
#X msg 884 100 open;
#X msg 924 104 set dholak.aif;
#X text 652 135 comment;
#X obj 809 211 send~ g_testTone;
#X obj 813 175 *~ 2;
#X obj 817 134 else/play.file~ test1.wav 0 1;
#X msg 123 309 set 0.7;
#X obj 249 483 ripples_sketch_amp 1.5 2;
#N canvas 588 241 864 523 hann-window 0;
#N canvas 0 0 450 300 (subpatch) 0;
#X array rz-hann 2048 float 0;
#X coords 0 1 2047 0 300 100 1 0 0;
#X restore 110 394 graph;
#X obj 327 184 osc~;
#X obj 327 209 *~ -0.5;
#X obj 327 233 +~ 0.5;
#X obj 86 113 r window-size;
#X obj 175 205 samplerate~;
#X obj 67 251 swap;
#X obj 67 275 /;
#X obj 67 299 s window-hz;
#X obj 86 148 t f b f;
#X msg 175 155 resize \$1;
#X obj 175 179 s \$0-hann;
#X obj 279 122 r window-hz;
#X text 56 20 calculate Hann window table (variable window size) and
constants window-hz (fundamental frequency of analysis) \, window-sec
and window-msec (analysis window size in seconds and msec)., f 56
;
#X obj 214 71 loadbang;
#X msg 215 100 2048;
#X obj 186 126 s window-size;
#X obj 310 276 tabwrite~ rz-hann;
#N canvas 0 0 450 300 (subpatch) 0;
#X array rz-hann-2 2048 float 0;
#X coords 0 1 2047 0 300 100 1 0 0;
#X restore 429 393 graph;
#X obj 477 187 osc~;
#X obj 477 212 *~ -0.5;
#X obj 477 236 +~ 0.5;
#X msg 357 161 0;
#X obj 279 150 t f b;
#X obj 419 154 t f b;
#X obj 460 279 tabwrite~ rz-hann-2;
#X msg 491 149 0.5;
#X connect 1 0 2 0;
#X connect 2 0 3 0;
#X connect 3 0 17 0;
#X connect 4 0 9 0;
#X connect 5 0 6 1;
#X connect 6 0 7 0;
#X connect 6 1 7 1;
#X connect 7 0 8 0;
#X connect 9 0 6 0;
#X connect 9 1 5 0;
#X connect 9 2 10 0;
#X connect 10 0 11 0;
#X connect 12 0 23 0;
#X connect 12 0 24 0;
#X connect 14 0 15 0;
#X connect 15 0 16 0;
#X connect 19 0 20 0;
#X connect 20 0 21 0;
#X connect 21 0 25 0;
#X connect 22 0 1 1;
#X connect 23 0 1 0;
#X connect 23 1 17 0;
#X connect 23 1 22 0;
#X connect 24 0 19 0;
#X connect 24 1 26 0;
#X connect 24 1 25 0;
#X connect 26 0 19 1;
#X restore 52 27 pd hann-window;
#N canvas 1337 139 325 395 carriers 0;
#X obj 41 23 carrier_player_global 1 car1;
#X obj 41 48 carrier_player_global 2 car2;
#X obj 41 75 carrier_player_global 3 car3;
#X obj 41 100 carrier_player_global 4 car4;
#X obj 40 126 carrier_player_global 5 car5;
#X obj 40 151 carrier_player_global 6 car6;
#X obj 40 178 carrier_player_global 7 car7;
#X obj 40 203 carrier_player_global 8 car8;
#X obj 39 226 carrier_player_global 9 car9;
#X obj 40 252 carrier_player_global 10 car10;
#X obj 40 279 carrier_player_global 11 car11;
#X obj 40 304 carrier_player_global 12 car12;
#X obj 39 327 carrier_player_global 13 car13;
#X restore 52 56 pd carriers;
#X obj 272 418 wet_sketch;
#X obj 237 553 else/gain2~ 1 0 20 0 1;
#X obj 229 725 dac~;
#X msg 172 558 set 1;
#X obj 513 412 lattice_sketch;
#X obj 430 484 rain_sketch 1.33 2.5;
#X connect 0 0 73 0;
#X connect 0 1 73 1;
#X connect 1 0 2 0;
#X connect 1 0 19 0;
#X connect 1 0 20 0;
#X connect 1 0 32 0;
#X connect 1 0 33 0;
#X connect 1 0 48 0;
#X connect 1 0 49 0;
#X connect 1 0 50 0;
#X connect 1 0 3 0;
#X connect 2 0 0 0;
#X connect 3 0 69 0;
#X connect 4 0 5 0;
#X connect 4 1 5 1;
#X connect 5 0 37 0;
#X connect 6 0 10 0;
#X connect 7 0 11 0;
#X connect 8 0 51 0;
#X connect 9 0 12 0;
#X connect 10 0 1 0;
#X connect 11 0 1 0;
#X connect 12 0 1 0;
#X connect 14 0 13 0;
#X connect 14 1 13 1;
#X connect 14 2 13 2;
#X connect 15 0 14 0;
#X connect 16 0 14 0;
#X connect 17 0 14 0;
#X connect 18 0 14 0;
#X connect 19 0 36 0;
#X connect 19 1 43 0;
#X connect 20 0 77 0;
#X connect 21 0 22 0;
#X connect 22 0 23 0;
#X connect 22 0 24 0;
#X connect 24 0 35 0;
#X connect 25 0 27 0;
#X connect 25 1 27 1;
#X connect 26 0 25 0;
#X connect 27 0 29 0;
#X connect 27 1 30 0;
#X connect 28 0 68 0;
#X connect 28 0 75 0;
#X connect 29 0 73 0;
#X connect 30 0 73 1;
#X connect 31 0 73 0;
#X connect 31 1 73 1;
#X connect 32 0 31 0;
#X connect 33 0 34 0;
#X connect 34 0 73 0;
#X connect 34 1 73 1;
#X connect 35 0 1 0;
#X connect 36 0 15 0;
#X connect 36 1 16 0;
#X connect 36 2 17 0;
#X connect 36 3 18 0;
#X connect 36 4 44 0;
#X connect 36 5 45 0;
#X connect 36 6 46 0;
#X connect 36 7 47 0;
#X connect 37 0 6 0;
#X connect 37 1 7 0;
#X connect 37 2 8 0;
#X connect 37 3 9 0;
#X connect 37 4 38 0;
#X connect 37 5 39 0;
#X connect 37 6 40 0;
#X connect 37 7 41 0;
#X connect 38 0 42 0;
#X connect 39 0 52 0;
#X connect 40 0 53 0;
#X connect 41 0 54 0;
#X connect 42 0 1 0;
#X connect 43 0 14 0;
#X connect 44 0 14 0;
#X connect 45 0 14 0;
#X connect 46 0 14 0;
#X connect 47 0 14 0;
#X connect 48 0 72 0;
#X connect 50 0 76 0;
#X connect 51 0 1 0;
#X connect 52 0 1 0;
#X connect 53 0 1 0;
#X connect 54 0 1 0;
#X connect 55 0 67 0;
#X connect 56 0 67 0;
#X connect 57 0 67 0;
#X connect 58 0 67 0;
#X connect 59 0 58 0;
#X connect 60 0 67 0;
#X connect 61 0 67 0;
#X connect 62 0 67 0;
#X connect 63 0 67 0;
#X connect 66 0 65 0;
#X connect 67 0 66 0;
#X connect 68 0 27 0;
#X connect 69 0 73 0;
#X connect 69 1 73 1;
#X connect 72 0 73 0;
#X connect 72 1 73 1;
#X connect 73 0 74 0;
#X connect 73 1 74 1;
#X connect 75 0 73 0;
#X connect 76 0 73 0;
#X connect 76 1 73 1;
#X connect 77 0 73 0;
#X connect 77 1 73 1;
