#N canvas 172 48 1440 855 10;
#X obj 980 411 tgl 30 0 empty empty empty 17 7 0 10 #fcfcfc #000000
#000000 0 1;
#X obj 976 533 timer;
#X obj 986 464 select 1 0;
#X floatatom 976 568 8 0 0 0 - - - 0;
#X obj 1031 508 s recStart;
#X obj 1107 508 s recStop;
#X obj 976 604 s recLength;
#X obj 392 357 +~;
#X obj 980 379 else/schmitt 0.5 0.1;
#X obj 471 386 recorder_jdn 1;
#X obj 496 24 r recStart;
#X obj 496 229 r recStop;
#X obj 520 84 r recLength;
#X msg 521 114 recLength \$1;
#X obj 802 257 vradio 15 1 0 6 sdvs asfgasgf empty 0 -8 0 10 #dcdcdc
#000000 #000000 0;
#X obj 732 367 nbx 2 15 -1e+37 1e+37 0 0 xfkvds asfmnv empty 0 -8 0
12 #dcdcdc #000000 #000000 0 256;
#X text 820 257 none;
#X text 820 272 1st;
#X text 820 287 2nd;
#X text 820 302 3rd;
#X text 768 366 outlet #;
#X obj 470 411 recorder_jdn 2;
#X obj 472 442 recorder_jdn 3;
#X msg 496 259 recStop bang;
#X msg 508 191 recStart bang;
#X obj 647 135 bng 15 250 50 0 empty empty empty 17 7 0 10 #fcfcfc
#000000 #000000;
#X obj 509 53 t b b;
#X msg 693 443 1 2 3;
#X obj 711 483 else/rotate;
#X obj 730 405 t b f;
#X obj 767 450 * -1;
#X obj 791 400 s curRecorder;
#X obj 354 680 r recLength;
#X obj 484 676 r curRecorder;
#X obj 340 764 sequenced_player_jdn;
#X obj 572 717 bng 15 250 50 0 empty empty empty 17 7 0 10 #fcfcfc
#000000 #000000;
#X obj 638 771 sequenced_player_jdn;
#X obj 626 651 r recLength;
#X obj 772 671 r curRecorder;
#X obj 885 711 bng 15 250 50 0 empty empty empty 17 7 0 10 #fcfcfc
#000000 #000000;
#X obj 786 750 nbx 5 14 -1e+37 1e+37 0 0 empty empty empty 0 -8 0 10
#fcfcfc #000000 #000000 0 256;
#X obj 492 728 nbx 5 14 -1e+37 1e+37 0 0 empty empty empty 0 -8 0 10
#fcfcfc #000000 #000000 0 256;
#X obj 934 775 sequenced_player_jdn;
#X obj 938 679 r recLength;
#X obj 1068 675 r curRecorder;
#X obj 1181 715 bng 15 250 50 0 empty empty empty 17 7 0 10 #fcfcfc
#000000 #000000;
#X obj 1082 754 nbx 5 14 -1e+37 1e+37 0 0 empty empty empty 0 -8 0
10 #fcfcfc #000000 #000000 0 256;
#X obj 675 720 * 1.5;
#X obj 964 734 * 2;
#X obj 556 1059 loadbang;
#X obj 573 1078 bng 15 250 50 0 empty empty empty 17 7 0 10 #fcfcfc
#000000 #000000;
#X obj 687 688 nbx 5 14 0.1 5 0 1 empty empty empty 0 -8 0 10 #fcfcfc
#000000 #000000 1.5 256;
#X obj 977 705 nbx 5 14 0.1 5 0 1 empty empty empty 0 -8 0 10 #fcfcfc
#000000 #000000 2 256;
#X obj 698 1149 +~;
#X obj 945 1151 +~;
#X obj 867 1295 outlet~;
#X obj 729 1300 outlet~;
#X text 820 317 4nd;
#X text 820 332 5rd;
#X obj 557 346 else/router 3;
#X obj 666 178 expr 1+(($i2)%3);
#X obj 748 712 expr (($i1+3)%3)+1;
#X obj 1044 716 expr (($i1+4)%3)+1;
#X obj 777 193 +~;
#X obj 259 198 switch~;
#X obj 175 104 tgl 15 1 empty empty empty 17 7 0 10 #fcfcfc #000000
#000000 1 1;
#X obj 161 79 inlet;
#X obj 255 119 select 1 0;
#X msg 254 147 1;
#X obj 290 148 delay 500;
#X msg 289 173 0;
#X obj 172 144 s \$0-enable;
#X obj 664 1240 r \$0-enable;
#X obj 743 1263 else/autofade2~ 150 500 2;
#X msg 301 1115 echoAmp 1 0.8 0.6 0.5 \, echoWet 0.3 0.7 0.9 1;
#X msg 616 1115 echoAmp 0.1 0.6 0.4 0.9 \, echoWet 0.8 0.85 0.2 0.77
;
#X msg 947 1114 echoAmp 0.1 0.4 0.8 0.6 \, echoWet 0.9 0.6 0.7 0.4
;
#X obj 500 592 float \$1;
#X obj 1154 593 float \$2;
#X obj 491 520 else/loadbanger;
#X obj 490 496 bng 15 250 50 0 empty empty empty 17 7 0 10 #fcfcfc
#000000 #000000;
#X obj 609 576 else/chance 10 100;
#X obj 737 605 else/chance 10 90;
#X obj 830 630 else/chance 10 80;
#X obj 771 94 mic_controller_jdn 37 3;
#X obj 707 1205 else/plate.rev~ 180 0.5 0.25 0.9 0.33;
#X obj 945 1207 else/plate.rev~ 200 0.5 0.25 0.9 0.33;
#X obj 699 1176 else/phaser~;
#X obj 946 1175 else/phaser~;
#X connect 0 0 2 0;
#X connect 1 0 3 0;
#X connect 2 0 1 0;
#X connect 2 0 4 0;
#X connect 2 1 1 1;
#X connect 2 1 5 0;
#X connect 3 0 6 0;
#X connect 7 0 9 0;
#X connect 7 0 21 0;
#X connect 7 0 22 0;
#X connect 8 0 0 0;
#X connect 10 0 26 0;
#X connect 11 0 23 0;
#X connect 12 0 13 0;
#X connect 13 0 59 0;
#X connect 14 0 15 0;
#X connect 15 0 29 0;
#X connect 15 0 31 0;
#X connect 15 0 59 1;
#X connect 15 0 60 1;
#X connect 23 0 59 0;
#X connect 24 0 59 0;
#X connect 25 0 60 0;
#X connect 25 0 81 0;
#X connect 26 0 24 0;
#X connect 26 1 25 0;
#X connect 27 0 28 0;
#X connect 29 0 27 0;
#X connect 29 1 30 0;
#X connect 30 0 28 1;
#X connect 32 0 34 1;
#X connect 33 0 34 2;
#X connect 33 0 41 0;
#X connect 34 0 53 0;
#X connect 34 1 54 0;
#X connect 35 0 34 3;
#X connect 36 0 53 0;
#X connect 36 1 54 0;
#X connect 37 0 47 0;
#X connect 38 0 61 0;
#X connect 39 0 36 3;
#X connect 42 0 53 0;
#X connect 42 1 54 0;
#X connect 43 0 48 0;
#X connect 44 0 62 0;
#X connect 45 0 42 3;
#X connect 47 0 36 1;
#X connect 48 0 42 1;
#X connect 49 0 50 0;
#X connect 50 0 74 0;
#X connect 50 0 75 0;
#X connect 50 0 76 0;
#X connect 51 0 47 1;
#X connect 52 0 48 1;
#X connect 53 0 87 0;
#X connect 54 0 88 0;
#X connect 59 0 9 1;
#X connect 59 1 21 1;
#X connect 59 2 22 1;
#X connect 60 0 14 0;
#X connect 61 0 40 0;
#X connect 61 0 36 2;
#X connect 62 0 46 0;
#X connect 62 0 42 2;
#X connect 63 0 7 0;
#X connect 65 0 67 0;
#X connect 65 0 71 0;
#X connect 66 0 65 0;
#X connect 67 0 68 0;
#X connect 67 1 69 0;
#X connect 68 0 64 0;
#X connect 69 0 70 0;
#X connect 70 0 64 0;
#X connect 72 0 73 0;
#X connect 73 0 56 0;
#X connect 73 1 55 0;
#X connect 74 0 34 0;
#X connect 75 0 36 0;
#X connect 76 0 42 0;
#X connect 77 0 51 0;
#X connect 78 0 52 0;
#X connect 79 0 77 0;
#X connect 79 0 78 0;
#X connect 80 0 79 0;
#X connect 81 0 35 0;
#X connect 81 1 82 0;
#X connect 82 0 39 0;
#X connect 82 1 83 0;
#X connect 83 0 45 0;
#X connect 84 0 63 0;
#X connect 84 1 8 0;
#X connect 85 0 73 1;
#X connect 86 1 73 2;
#X connect 87 0 85 0;
#X connect 88 0 86 0;
