#N canvas 927 233 1124 745 10;
#X msg 163 128 1;
#X msg 149 162 0;
#X obj 100 187 readsf~ 2;
#X obj 109 43 loadbang;
#X obj 100 475 dac~;
#X obj 448 53 adc~ 1;
#X obj 421 440 delread4~ \$0-delay2;
#X floatatom 423 323 0 0 1000 0 - - -;
#X obj 424 351 pack 0 1000;
#X obj 424 376 line~;
#X msg 176 93 open audio/medium/Beach1_trim1.wav;
#X obj 186 206 vsl 15 128 0.01 1 1 1 empty empty empty 0 -9 0 10 -262144
-1 -1 9800 1;
#X obj 178 364 line~ 0 100;
#X obj 101 412 *~;
#X obj 139 412 *~;
#X obj 236 175 bng 15 250 50 0 empty empty empty 17 7 0 10 -262144
-1 -1;
#X obj 267 182 t b b;
#X obj 278 239 delay 200;
#X obj 697 136 vsl 15 128 0.01 1 1 1 empty empty empty 0 -9 0 10 -262144
-1 -1 0 1;
#X obj 664 284 line~ 0 100;
#X obj 457 111 *~;
#X obj 426 155 delwrite~ \$0-delay2 4000;
#X msg 162 66 open audio/medium/splashes.wav;
#X msg 180 34 open audio/medium/lk_whitney_trim.aif;
#N canvas 855 414 338 547 sampler 0;
#X obj 91 189 openpanel;
#X obj 91 246 soundfiler;
#X obj 91 410 phasor~;
#X obj 91 437 *~;
#X obj 91 314 expr 1 / ( $f1 / 44100 );
#X obj 91 385 sig~;
#X obj 148 410 sig~;
#X obj 125 361 t 0;
#X obj 91 498 outlet~;
#X obj 188 28 bng 15 250 50 0 empty empty empty 17 7 0 10 -262144 -1
-1;
#X text 208 30 Play/Stop;
#X obj 28 437 snapshot~;
#X obj 91 361 f;
#X obj 269 28 tgl 15 0 empty empty empty 17 7 0 10 -262144 -1 -1 1
1;
#X obj 242 314 sel 1 0;
#X msg 28 461 set \$1;
#X text 156 30 Load;
#N canvas 0 22 450 278 (subpatch) 0;
#X array Sample_Loop_A 8.00706e+06 float 2;
#X coords 0 1 8.00706e+06 -1 256 64 2 0 0;
#X restore 28 46 graph;
#X obj 31 110 hsl 251 8 0 1 0 0 empty empty empty 0 0 0 10 -262144
-1 -1 2688 0;
#X obj 28 408 metro 20;
#X obj 91 155 t b 0;
#X msg 157 362 1;
#X msg 91 218 read -maxsize 1e+09 \$1 Sample_Loop_A;
#X obj 91 463 tabread4~ Sample_Loop_A;
#X connect 0 0 22 0;
#X connect 1 0 6 0;
#X connect 1 0 4 0;
#X connect 2 0 3 0;
#X connect 2 0 11 0;
#X connect 3 0 23 0;
#X connect 4 0 12 0;
#X connect 4 0 21 0;
#X connect 5 0 2 0;
#X connect 6 0 3 1;
#X connect 7 0 5 0;
#X connect 9 0 20 0;
#X connect 11 0 15 0;
#X connect 12 0 5 0;
#X connect 13 0 14 0;
#X connect 13 0 19 0;
#X connect 14 0 12 0;
#X connect 14 1 7 0;
#X connect 15 0 18 0;
#X connect 18 0 2 1;
#X connect 19 0 11 0;
#X connect 20 0 0 0;
#X connect 20 1 2 1;
#X connect 20 1 13 0;
#X connect 21 0 13 0;
#X connect 22 0 1 0;
#X connect 23 0 8 0;
#X coords 0 -1 1 1 262 96 2 25 25;
#X restore 571 9 pd sampler;
#N canvas 855 414 338 547 sampler 0;
#X obj 91 189 openpanel;
#X obj 91 246 soundfiler;
#X obj 91 410 phasor~;
#X obj 91 437 *~;
#X obj 91 314 expr 1 / ( $f1 / 44100 );
#X obj 91 385 sig~;
#X obj 148 410 sig~;
#X obj 125 361 t 0;
#X obj 91 498 outlet~;
#X obj 188 28 bng 15 250 50 0 empty empty empty 17 7 0 10 -262144 -1
-1;
#X text 208 30 Play/Stop;
#X obj 28 437 snapshot~;
#X obj 91 361 f;
#X obj 269 28 tgl 15 0 empty empty empty 17 7 0 10 -262144 -1 -1 1
1;
#X obj 242 314 sel 1 0;
#X msg 28 461 set \$1;
#X text 156 30 Load;
#N canvas 0 22 450 278 (subpatch) 0;
#X array Sample_Loop_B 1.323e+06 float 2;
#X coords 0 1 1.323e+06 -1 256 64 2 0 0;
#X restore 28 46 graph;
#X obj 31 110 hsl 251 8 0 1 0 0 empty empty empty 0 0 0 10 -262144
-1 -1 8865 0;
#X obj 28 408 metro 20;
#X obj 91 155 t b 0;
#X msg 157 362 1;
#X msg 91 218 read -maxsize 1e+09 \$1 Sample_Loop_B;
#X obj 91 463 tabread4~ Sample_Loop_B;
#X connect 0 0 22 0;
#X connect 1 0 6 0;
#X connect 1 0 4 0;
#X connect 2 0 3 0;
#X connect 2 0 11 0;
#X connect 3 0 23 0;
#X connect 4 0 12 0;
#X connect 4 0 21 0;
#X connect 5 0 2 0;
#X connect 6 0 3 1;
#X connect 7 0 5 0;
#X connect 9 0 20 0;
#X connect 11 0 15 0;
#X connect 12 0 5 0;
#X connect 13 0 14 0;
#X connect 13 0 19 0;
#X connect 14 0 12 0;
#X connect 14 1 7 0;
#X connect 15 0 18 0;
#X connect 18 0 2 1;
#X connect 19 0 11 0;
#X connect 20 0 0 0;
#X connect 20 1 2 1;
#X connect 20 1 13 0;
#X connect 21 0 13 0;
#X connect 22 0 1 0;
#X connect 23 0 8 0;
#X coords 0 -1 1 1 262 96 2 25 25;
#X restore 836 9 pd sampler;
#X text 672 104 carrier;
#X text 947 104 filter;
#N canvas 1348 328 1125 1090 ampl_convo_else~ 1;
#X obj 380 775 outlet~;
#X obj 380 655 rifft~;
#X obj 225 230 rfft~;
#X obj 528 757 block~;
#X msg 528 724 set \$1 4;
#X obj 515 686 r \$0-size;
#X obj 225 183 else/hann~;
#X obj 380 689 else/hann~;
#X obj 380 730 *~;
#X obj 475 529 else/car2pol~;
#X obj 515 795 expr 1 / ($f1 * 1.5);
#X obj 664 645 loadbang;
#X obj 664 707 s \$0-size;
#X obj 363 615 *~;
#X obj 419 573 *~;
#X msg 664 674 2048;
#X obj 195 291 *~;
#X obj 266 298 *~;
#X obj 216 332 +~;
#X obj 212 367 sqrt~;
#X obj 215 395 clip~ -0.9 0.9;
#X obj 358 241 rfft~;
#X obj 328 302 *~;
#X obj 399 309 *~;
#X obj 349 343 +~;
#X obj 351 368 sqrt~;
#X obj 347 394 clip~ -0.9 0.9;
#X obj 66 527 rfft~;
#X obj 64 463 else/hann~;
#N canvas 1424 339 450 300 shift_hann 0;
#X obj 65 40 r pd-dsp-started;
#X msg 220 160 resize \$1;
#X obj 65 146 else/loop;
#X obj 234 94 v twopi;
#X obj 65 89 change;
#X obj 65 64 else/blocksize~;
#X obj 65 116 trigger float float;
#X obj 109 267 outlet~;
#X obj 234 71 else/pi 2;
#X obj 220 181 array define hann_shift_\$0;
#X obj 109 236 tabreceive~ hann_shift_\$0;
#X obj 65 173 expr hann_shift_\$0[$f1] = sin(twopi*$f1/$f2) * -0.5
+ 0.5, f 23;
#X connect 0 0 5 0;
#X connect 1 0 9 0;
#X connect 2 0 11 0;
#X connect 4 0 6 0;
#X connect 5 0 4 0;
#X connect 6 0 2 0;
#X connect 6 1 1 0;
#X connect 6 1 11 1;
#X connect 8 0 3 0;
#X connect 10 0 7 0;
#X restore 387 138 pd shift_hann;
#X obj 344 183 *~;
#X text 241 423 fftamp1;
#X text 382 420 fftamp2;
#X obj 281 98 inlet~ rhythm;
#X obj 90 93 inlet~ noise;
#X obj 149 469 *~;
#X obj 182 532 rfft~;
#X obj 56 591 *~;
#X obj 107 594 *~;
#X obj 62 655 rifft~;
#X obj 62 701 else/hann~;
#X obj 175 592 *~;
#X obj 226 595 *~;
#X obj 181 656 rifft~;
#X obj 176 697 *~;
#X obj 128 770 +~;
#X connect 1 0 7 0;
#X connect 2 0 16 0;
#X connect 2 0 16 1;
#X connect 2 1 17 0;
#X connect 2 1 17 1;
#X connect 4 0 3 0;
#X connect 5 0 4 0;
#X connect 5 0 10 0;
#X connect 6 0 2 0;
#X connect 8 0 0 0;
#X connect 9 0 13 1;
#X connect 9 1 14 1;
#X connect 10 0 8 1;
#X connect 11 0 15 0;
#X connect 13 0 1 0;
#X connect 14 0 1 1;
#X connect 15 0 12 0;
#X connect 16 0 18 0;
#X connect 17 0 18 1;
#X connect 18 0 19 0;
#X connect 19 0 20 0;
#X connect 20 0 38 1;
#X connect 20 0 37 1;
#X connect 21 0 22 0;
#X connect 21 0 22 1;
#X connect 21 1 23 0;
#X connect 21 1 23 1;
#X connect 22 0 24 0;
#X connect 23 0 24 1;
#X connect 24 0 25 0;
#X connect 25 0 26 0;
#X connect 26 0 41 1;
#X connect 26 0 42 1;
#X connect 27 0 37 0;
#X connect 27 1 38 0;
#X connect 28 0 27 0;
#X connect 29 0 30 1;
#X connect 29 0 35 1;
#X connect 29 0 44 1;
#X connect 30 0 21 0;
#X connect 33 0 30 0;
#X connect 33 0 6 0;
#X connect 34 0 28 0;
#X connect 34 0 35 0;
#X connect 35 0 36 0;
#X connect 36 0 41 0;
#X connect 36 1 42 0;
#X connect 37 0 39 0;
#X connect 38 0 39 1;
#X connect 39 0 40 0;
#X connect 40 0 45 0;
#X connect 41 0 43 0;
#X connect 42 0 43 1;
#X connect 43 0 44 0;
#X connect 44 0 45 1;
#X connect 45 0 8 0;
#X restore 227 494 pd ampl_convo_else~;
#X connect 0 0 2 0;
#X connect 1 0 2 0;
#X connect 2 0 13 0;
#X connect 2 1 14 0;
#X connect 2 2 15 0;
#X connect 3 0 10 0;
#X connect 5 0 20 0;
#X connect 6 0 28 1;
#X connect 7 0 8 0;
#X connect 8 0 9 0;
#X connect 9 0 6 0;
#X connect 10 0 2 0;
#X connect 11 0 12 0;
#X connect 12 0 13 1;
#X connect 12 0 14 1;
#X connect 15 0 16 0;
#X connect 16 0 17 0;
#X connect 16 1 23 0;
#X connect 17 0 0 0;
#X connect 18 0 19 0;
#X connect 19 0 20 1;
#X connect 20 0 21 0;
#X connect 22 0 2 0;
#X connect 23 0 2 0;
#X connect 24 0 28 0;
#X connect 25 0 28 1;
#X connect 28 0 4 0;
#X connect 28 0 4 1;
