#N canvas 786 56 1494 1362 10;
#X obj 107 13 loadbang;
#X obj 251 984 dac~;
#X obj 852 238 adc~ 1;
#X obj 916 147 vsl 15 128 0 1 0 1 empty empty empty 0 -9 0 10 -262144
-1 -1 200 1;
#X obj 914 293 line~ 0 100;
#X obj 875 321 *~;
#N canvas 1629 447 800 653 sampler 0;
#X obj 91 189 openpanel;
#X obj 91 246 soundfiler;
#X obj 91 410 phasor~;
#X obj 91 437 *~;
#X obj 91 314 expr 1 / ( $f1 / 44100 );
#X obj 91 385 sig~;
#X obj 148 410 sig~;
#X obj 125 361 t 0;
#X obj 91 498 outlet~;
#X obj 188 28 bng 15 250 50 0 empty empty empty 17 7 0 10 -262144 -1
-1;
#X text 208 30 Play/Stop;
#X obj 28 437 snapshot~;
#X obj 91 361 f;
#X obj 269 28 tgl 15 0 empty empty empty 17 7 0 10 -262144 -1 -1 1
1;
#X obj 242 314 sel 1 0;
#X msg 28 461 set \$1;
#X text 156 30 Load;
#N canvas 0 22 450 278 (subpatch) 0;
#X array Sample_Loop_A 8.00706e+06 float 2;
#X coords 0 1 8.00706e+06 -1 256 64 2 0 0;
#X restore 28 46 graph;
#X obj 31 110 hsl 251 8 0 1 0 0 empty empty empty 0 0 0 10 -262144
-1 -1 19898 0;
#X obj 28 408 metro 20;
#X obj 91 155 t b 0;
#X msg 157 362 1;
#X obj 91 463 tabread4~ Sample_Loop_A;
#X obj 307 155 inlet;
#X obj 303 182 t s 0;
#N canvas 0 23 450 278 (subpatch) 0;
#X array Sample_Loop_A_R 8.00706e+06 float 2;
#X coords 0 1 8.00706e+06 -1 200 140 1;
#X restore 435 76 graph;
#X msg 91 217 read -maxsize 1e+09 \$1 Sample_Loop_A Sample_Loop_A_R
;
#X obj 258 461 tabread4~ Sample_Loop_A_R;
#X obj 266 585 outlet~;
#X msg 336 321 \$3;
#X text 417 516 mono support;
#X obj 263 517 else/xselect~ 2 100 0;
#X floatatom 337 363 5 0 0 0 - - -;
#X connect 0 0 26 0;
#X connect 1 0 6 0;
#X connect 1 0 4 0;
#X connect 1 1 29 0;
#X connect 2 0 3 0;
#X connect 2 0 11 0;
#X connect 3 0 22 0;
#X connect 3 0 27 0;
#X connect 4 0 12 0;
#X connect 4 0 21 0;
#X connect 5 0 2 0;
#X connect 6 0 3 1;
#X connect 7 0 5 0;
#X connect 9 0 20 0;
#X connect 11 0 15 0;
#X connect 12 0 5 0;
#X connect 13 0 14 0;
#X connect 13 0 19 0;
#X connect 14 0 12 0;
#X connect 14 1 7 0;
#X connect 15 0 18 0;
#X connect 18 0 2 1;
#X connect 19 0 11 0;
#X connect 20 0 0 0;
#X connect 20 1 2 1;
#X connect 20 1 13 0;
#X connect 21 0 13 0;
#X connect 22 0 8 0;
#X connect 22 0 31 0;
#X connect 23 0 24 0;
#X connect 24 0 26 0;
#X connect 24 1 2 1;
#X connect 26 0 1 0;
#X connect 27 0 31 1;
#X connect 29 0 32 0;
#X connect 31 0 28 0;
#X connect 32 0 31 0;
#X coords 0 653 1 652 262 96 0;
#X restore 443 90 pd sampler;
#N canvas 855 414 338 547 sampler 0;
#X obj 91 189 openpanel;
#X obj 91 246 soundfiler;
#X obj 91 410 phasor~;
#X obj 91 437 *~;
#X obj 91 314 expr 1 / ( $f1 / 44100 );
#X obj 91 385 sig~;
#X obj 148 410 sig~;
#X obj 125 361 t 0;
#X obj 91 498 outlet~;
#X obj 188 28 bng 15 250 50 0 empty empty empty 17 7 0 10 -262144 -1
-1;
#X text 208 30 Play/Stop;
#X obj 28 437 snapshot~;
#X obj 91 361 f;
#X obj 269 28 tgl 15 0 empty empty empty 17 7 0 10 -262144 -1 -1 0
1;
#X obj 242 314 sel 1 0;
#X msg 28 461 set \$1;
#X text 156 30 Load;
#N canvas 0 22 450 278 (subpatch) 0;
#X array Sample_Loop_B 1.323e+06 float 2;
#X coords 0 1 1.323e+06 -1 256 64 2 0 0;
#X restore 28 46 graph;
#X obj 31 110 hsl 251 8 0 1 0 0 empty empty empty 0 0 0 10 -262144
-1 -1 0 0;
#X obj 28 408 metro 20;
#X obj 91 155 t b 0;
#X msg 157 362 1;
#X msg 91 218 read -maxsize 1e+09 \$1 Sample_Loop_B;
#X obj 91 463 tabread4~ Sample_Loop_B;
#X connect 0 0 22 0;
#X connect 1 0 6 0;
#X connect 1 0 4 0;
#X connect 2 0 3 0;
#X connect 2 0 11 0;
#X connect 3 0 23 0;
#X connect 4 0 12 0;
#X connect 4 0 21 0;
#X connect 5 0 2 0;
#X connect 6 0 3 1;
#X connect 7 0 5 0;
#X connect 9 0 20 0;
#X connect 11 0 15 0;
#X connect 12 0 5 0;
#X connect 13 0 14 0;
#X connect 13 0 19 0;
#X connect 14 0 12 0;
#X connect 14 1 7 0;
#X connect 15 0 18 0;
#X connect 18 0 2 1;
#X connect 19 0 11 0;
#X connect 20 0 0 0;
#X connect 20 1 2 1;
#X connect 20 1 13 0;
#X connect 21 0 13 0;
#X connect 22 0 1 0;
#X connect 23 0 8 0;
#X coords 0 -1 1 1 262 96 2 25 25;
#X restore 836 9 pd sampler;
#X text 526 88 carrier;
#X text 947 104 filter;
#N canvas 1194 265 780 990 ampl_convo_else~ 0;
#X obj 203 865 outlet~;
#X obj 218 212 rfft~;
#X obj 318 710 block~;
#X msg 318 677 set \$1 4;
#X obj 305 639 r \$0-size;
#X obj 218 165 else/hann~;
#X obj 203 820 *~;
#X obj 305 748 expr 1 / ($f1 * 1.5);
#X obj 479 681 loadbang;
#X obj 479 743 s \$0-size;
#X msg 479 710 2048;
#X obj 188 273 *~;
#X obj 259 280 *~;
#X obj 209 314 +~;
#X obj 205 349 sqrt~;
#X obj 208 377 clip~ -0.9 0.9;
#X obj 351 223 rfft~;
#X obj 321 284 *~;
#X obj 392 291 *~;
#X obj 342 325 +~;
#X obj 344 350 sqrt~;
#X obj 340 376 clip~ -0.9 0.9;
#X obj 59 509 rfft~;
#X obj 57 445 else/hann~;
#X text 234 405 fftamp1;
#X text 375 402 fftamp2;
#X obj 287 78 inlet~ rhythm;
#X obj 83 75 inlet~ noise;
#X obj 175 514 rfft~;
#X obj 49 573 *~;
#X obj 100 576 *~;
#X obj 55 637 rifft~;
#X obj 55 683 else/hann~;
#X obj 168 574 *~;
#X obj 219 577 *~;
#X obj 174 638 rifft~;
#X obj 121 752 +~;
#X text 69 36 thanks to the msp convolution workshop old example. :)
;
#X obj 333 119 shift_hann_jdn;
#X obj 150 445 shift_hann_jdn;
#X obj 174 688 shift_hann_jdn;
#X connect 1 0 11 0;
#X connect 1 0 11 1;
#X connect 1 1 12 0;
#X connect 1 1 12 1;
#X connect 3 0 2 0;
#X connect 4 0 3 0;
#X connect 4 0 7 0;
#X connect 5 0 1 0;
#X connect 6 0 0 0;
#X connect 7 0 6 1;
#X connect 8 0 10 0;
#X connect 10 0 9 0;
#X connect 11 0 13 0;
#X connect 12 0 13 1;
#X connect 13 0 14 0;
#X connect 14 0 15 0;
#X connect 15 0 30 1;
#X connect 15 0 29 1;
#X connect 16 0 17 0;
#X connect 16 0 17 1;
#X connect 16 1 18 0;
#X connect 16 1 18 1;
#X connect 17 0 19 0;
#X connect 18 0 19 1;
#X connect 19 0 20 0;
#X connect 20 0 21 0;
#X connect 21 0 33 1;
#X connect 21 0 34 1;
#X connect 22 0 29 0;
#X connect 22 1 30 0;
#X connect 23 0 22 0;
#X connect 26 0 5 0;
#X connect 26 0 38 0;
#X connect 27 0 23 0;
#X connect 27 0 39 0;
#X connect 28 0 33 0;
#X connect 28 1 34 0;
#X connect 29 0 31 0;
#X connect 30 0 31 1;
#X connect 31 0 32 0;
#X connect 32 0 36 0;
#X connect 33 0 35 0;
#X connect 34 0 35 1;
#X connect 35 0 40 0;
#X connect 36 0 6 0;
#X connect 38 0 16 0;
#X connect 39 0 28 0;
#X connect 40 0 36 1;
#X restore 285 663 pd ampl_convo_else~;
#X text 959 213 mic input level;
#X obj 1029 322 nbx 5 14 -100 0 0 1 empty empty empty 0 -8 0 10 -228856
-1 -1 -38 256;
#X text 1024 305 threshold;
#X text 994 320 dBFS;
#X obj 905 350 else/noisegate~ -40 200;
#N canvas 1194 265 780 990 ampl_convo_else~ 0;
#X obj 203 865 outlet~;
#X obj 218 212 rfft~;
#X obj 318 710 block~;
#X msg 318 677 set \$1 4;
#X obj 305 639 r \$0-size;
#X obj 218 165 else/hann~;
#X obj 203 820 *~;
#X obj 305 748 expr 1 / ($f1 * 1.5);
#X obj 479 681 loadbang;
#X obj 479 743 s \$0-size;
#X msg 479 710 2048;
#X obj 188 273 *~;
#X obj 259 280 *~;
#X obj 209 314 +~;
#X obj 205 349 sqrt~;
#X obj 208 377 clip~ -0.9 0.9;
#X obj 351 223 rfft~;
#X obj 321 284 *~;
#X obj 392 291 *~;
#X obj 342 325 +~;
#X obj 344 350 sqrt~;
#X obj 340 376 clip~ -0.9 0.9;
#X obj 59 509 rfft~;
#X obj 57 445 else/hann~;
#X text 234 405 fftamp1;
#X text 375 402 fftamp2;
#X obj 287 78 inlet~ rhythm;
#X obj 83 75 inlet~ noise;
#X obj 175 514 rfft~;
#X obj 49 573 *~;
#X obj 100 576 *~;
#X obj 55 637 rifft~;
#X obj 55 683 else/hann~;
#X obj 168 574 *~;
#X obj 219 577 *~;
#X obj 174 638 rifft~;
#X obj 121 752 +~;
#X text 69 36 thanks to the msp convolution workshop old example. :)
;
#X obj 333 119 shift_hann_jdn;
#X obj 150 445 shift_hann_jdn;
#X obj 174 688 shift_hann_jdn;
#X connect 1 0 11 0;
#X connect 1 0 11 1;
#X connect 1 1 12 0;
#X connect 1 1 12 1;
#X connect 3 0 2 0;
#X connect 4 0 3 0;
#X connect 4 0 7 0;
#X connect 5 0 1 0;
#X connect 6 0 0 0;
#X connect 7 0 6 1;
#X connect 8 0 10 0;
#X connect 10 0 9 0;
#X connect 11 0 13 0;
#X connect 12 0 13 1;
#X connect 13 0 14 0;
#X connect 14 0 15 0;
#X connect 15 0 30 1;
#X connect 15 0 29 1;
#X connect 16 0 17 0;
#X connect 16 0 17 1;
#X connect 16 1 18 0;
#X connect 16 1 18 1;
#X connect 17 0 19 0;
#X connect 18 0 19 1;
#X connect 19 0 20 0;
#X connect 20 0 21 0;
#X connect 21 0 33 1;
#X connect 21 0 34 1;
#X connect 22 0 29 0;
#X connect 22 1 30 0;
#X connect 23 0 22 0;
#X connect 26 0 5 0;
#X connect 26 0 38 0;
#X connect 27 0 23 0;
#X connect 27 0 39 0;
#X connect 28 0 33 0;
#X connect 28 1 34 0;
#X connect 29 0 31 0;
#X connect 30 0 31 1;
#X connect 31 0 32 0;
#X connect 32 0 36 0;
#X connect 33 0 35 0;
#X connect 34 0 35 1;
#X connect 35 0 40 0;
#X connect 36 0 6 0;
#X connect 38 0 16 0;
#X connect 39 0 28 0;
#X connect 40 0 36 1;
#X restore 431 672 pd ampl_convo_else~;
#N canvas 1111 570 838 728 select_file 0;
#X msg 135 221 seek \$1;
#X obj 135 194 nbx 3 14 -1e+37 1e+37 0 0 empty empty empty 0 -8 0 10
-228856 -1 -1 2 256;
#X obj 135 118 bng 18 250 50 0 empty empty empty 17 7 0 10 -228856
-1 -1;
#X msg 96 220 next;
#X obj 222 145 nbx 4 14 -1e+37 1e+37 0 0 empty empty empty 0 -8 0 10
-228856 -1 -1 6 256;
#X obj 135 168 else/rand.i 1 1;
#X obj 219 223 else/initmess n \, dir;
#X text 271 143 n;
#X msg 133 315 \$2/\$1;
#X obj 133 286 pack s s;
#X obj 134 353 symbol;
#X obj 134 392 outlet;
#X obj 139 67 inlet;
#X obj 135 253 else/dir audio/carriers;
#X obj 229 313 print carrier:;
#X connect 0 0 13 0;
#X connect 1 0 0 0;
#X connect 2 0 5 0;
#X connect 3 0 13 0;
#X connect 4 0 5 2;
#X connect 5 0 1 0;
#X connect 6 0 13 0;
#X connect 8 0 10 0;
#X connect 9 0 8 0;
#X connect 10 0 11 0;
#X connect 12 0 2 0;
#X connect 13 0 9 0;
#X connect 13 0 14 0;
#X connect 13 1 9 1;
#X connect 13 2 4 0;
#X coords 0 -1 1 1 60 40 1 100 100;
#X restore 435 26 pd select_file;
#X obj 187 209 vsl 15 128 0 1 0 1 empty empty empty 0 -9 0 10 -262144
-1 -1 3800 1;
#X obj 191 406 line~ 0 100;
#X obj 118 454 *~;
#X obj 152 454 *~;
#N canvas 62 736 732 429 bg_loops 0;
#X msg 87 116 1;
#X msg 73 150 0;
#X obj 27 211 readsf~ 2;
#X obj 157 90 bng 15 250 50 0 empty empty empty 17 7 0 10 -262144 -1
-1;
#X obj 185 250 delay 200;
#X msg 218 207 open \$1;
#X obj 191 170 t b l;
#X obj 17 278 outlet~;
#X obj 80 280 outlet~;
#X obj 167 20 inlet;
#X symbolatom 215 115 80 0 0 0 - - -;
#X connect 0 0 2 0;
#X connect 1 0 2 0;
#X connect 2 0 7 0;
#X connect 2 1 8 0;
#X connect 2 2 3 0;
#X connect 3 0 10 0;
#X connect 4 0 0 0;
#X connect 5 0 2 0;
#X connect 6 0 4 0;
#X connect 6 1 5 0;
#X connect 9 0 10 0;
#X connect 10 0 6 0;
#X restore 77 196 pd bg_loops;
#N canvas 1031 620 838 728 select_file 0;
#X msg 135 221 seek \$1;
#X obj 135 194 nbx 3 14 -1e+37 1e+37 0 0 empty empty empty 0 -8 0 10
-228856 -1 -1 9 256;
#X obj 135 118 bng 18 250 50 0 empty empty empty 17 7 0 10 -228856
-1 -1;
#X msg 96 220 next;
#X obj 222 145 nbx 4 14 -1e+37 1e+37 0 0 empty empty empty 0 -8 0 10
-228856 -1 -1 11 256;
#X obj 135 168 else/rand.i 1 1;
#X obj 219 223 else/initmess n \, dir;
#X text 271 143 n;
#X msg 133 315 \$2/\$1;
#X obj 133 286 pack s s;
#X obj 134 353 symbol;
#X obj 134 392 outlet;
#X obj 139 67 inlet;
#X obj 135 253 else/dir audio/medium;
#X obj 224 298 print background:;
#X connect 0 0 13 0;
#X connect 1 0 0 0;
#X connect 2 0 5 0;
#X connect 3 0 13 0;
#X connect 4 0 5 2;
#X connect 5 0 1 0;
#X connect 6 0 13 0;
#X connect 8 0 10 0;
#X connect 9 0 8 0;
#X connect 10 0 11 0;
#X connect 12 0 2 0;
#X connect 13 0 9 0;
#X connect 13 0 14 0;
#X connect 13 1 9 1;
#X connect 13 2 4 0;
#X coords 0 -1 1 1 60 40 1 100 100;
#X restore 73 135 pd select_file;
#X obj 416 715 +~;
#X obj 291 713 +~;
#X obj 268 892 sig~;
#N canvas 1642 646 785 441 stero_duck_micOn 0;
#X obj 85 192 outlet~;
#X obj 295 197 outlet~;
#X obj 55 25 inlet~;
#X obj 123 28 inlet~;
#X obj 204 24 inlet~;
#X obj 294 24 inlet~;
#X obj 472 26 loadbang;
#X msg 474 65 thresh -10 \, ratio 0.5 \, attack 100 \, release 500
;
#X obj 57 127 else/duck~;
#X obj 288 129 else/duck~;
#X connect 2 0 8 0;
#X connect 3 0 9 0;
#X connect 4 0 8 1;
#X connect 5 0 9 1;
#X connect 6 0 7 0;
#X connect 7 0 8 2;
#X connect 7 0 9 2;
#X connect 8 0 0 0;
#X connect 9 0 1 0;
#X restore 193 936 pd stero_duck_micOn;
#X obj 1063 526 tgl 30 0 empty empty empty 17 7 0 10 -262144 -1 -1
0 1;
#X obj 1059 648 timer;
#X obj 1069 579 select 1 0;
#X floatatom 1059 683 8 0 0 0 - - -;
#X obj 817 367 +~;
#N canvas 134 90 647 549 mic_proc_biz 0;
#X obj 178 176 delread4~ \$0-delay2;
#X obj 225 89 pack 0 1000;
#X obj 225 114 line~;
#X obj 149 144 delwrite~ \$0-delay2 4000;
#X text 221 43 mic delay (ms);
#X obj 272 235 nbx 5 14 -1e+37 1e+37 0 1 empty empty empty 0 -8 0 10
-228856 -1 -1 7000 256;
#X obj 199 235 nbx 5 14 0 3000 0 1 empty empty empty 0 -8 0 10 -228856
-1 -1 1348 256;
#X text 215 215 Delay time (ms);
#X text 335 233 Feedback (Decay time in ms);
#X obj 312 346 vsl 18 80 -100 0 0 0 empty empty empty 0 -9 0 10 -228856
-1 -1 7900 1;
#X obj 188 385 nbx 5 14 -100 0 0 1 empty empty empty 0 -8 0 10 -228856
-1 -1 -41 256;
#X text 183 368 threshold;
#X text 153 383 dBFS;
#X obj 64 413 else/noisegate~ -40 200;
#X obj 157 272 else/fbdelay~ 3000 6000;
#X obj 129 319 else/compress~ -30 5 5 5 -3 256;
#X obj 226 63 nbx 5 14 0 3000 0 1 empty empty empty 0 -8 0 10 -228856
-1 -1 870 256;
#X connect 0 0 14 0;
#X connect 1 0 2 0;
#X connect 2 0 0 0;
#X connect 5 0 14 2;
#X connect 6 0 14 1;
#X connect 10 0 13 1;
#X connect 14 0 15 0;
#X connect 15 0 13 0;
#X connect 15 1 9 0;
#X connect 16 0 1 0;
#X restore 1097 813 pd mic_proc_biz;
#X obj 1114 623 s recStart;
#X obj 1190 623 s recStop;
#X obj 1059 719 s recLength;
#X obj 475 472 +~;
#X obj 332 601 +~;
#X obj 776 725 delay;
#X msg 866 649 \$1;
#X obj 776 754 delay;
#X obj 776 786 delay;
#X obj 776 815 delay;
#X obj 850 729 bng 15 250 50 0 empty empty empty 17 7 0 10 -262144
-1 -1;
#X obj 850 765 bng 15 250 50 0 empty empty empty 17 7 0 10 -262144
-1 -1;
#X obj 853 800 bng 15 250 50 0 empty empty empty 17 7 0 10 -262144
-1 -1;
#X obj 850 832 bng 15 250 50 0 empty empty empty 17 7 0 10 -262144
-1 -1;
#X obj 944 644 * 2;
#X msg 867 690 \$1;
#X obj 1063 494 else/schmitt 0.5 0.1;
#X obj 991 266 s micOn;
#X obj 274 864 r micOn;
#X obj 898 878 else/xfade~ 2;
#X obj 871 974 line 0;
#X msg 876 939 -1 \, 1 \$1;
#X floatatom 879 1009 5 0 0 0 - - -;
#X obj 885 1042 else/float2sig~ 20;
#X obj 872 912 * 6;
#X obj 554 501 recorder_jdn 1;
#X obj 579 139 r recStart;
#X obj 579 344 r recStop;
#X obj 603 199 r recLength;
#X msg 604 229 recLength \$1;
#X obj 814 412 vradio 15 1 0 4 sdvs asfgasgf empty 0 -8 0 10 -228856
-1 -1 1;
#X obj 814 485 nbx 2 15 -1e+37 1e+37 0 0 xfkvds asfmnv empty 0 -8 0
12 -228856 -1 -1 1 256;
#X text 832 412 none;
#X text 832 427 1st;
#X text 832 442 2nd;
#X text 832 457 3rd;
#X text 851 481 outlet #;
#X obj 553 526 recorder_jdn 2;
#X obj 917 742 tabplay~ 1-memory;
#X obj 937 768 tabplay~ 2-memory;
#X obj 640 461 else/router 3;
#X obj 944 796 tabplay~ 3-memory;
#X obj 555 557 recorder_jdn 3;
#X msg 579 374 recStop bang;
#X msg 591 306 recStart bang;
#X obj 730 250 bng 15 250 50 0 empty empty empty 17 7 0 10 -262144
-1 -1;
#X obj 703 298 expr 1+(($i2)%3);
#X obj 592 168 t b b;
#X msg 776 558 1 2 3;
#X obj 794 598 else/rotate;
#X obj 813 520 t b f;
#X obj 806 633 print cheese;
#X obj 850 565 * -1;
#N canvas 292 433 1011 805 echoRun 0;
#N canvas 0 23 450 278 (subpatch) 0;
#X array echoAmp 4 float 3;
#A 0 0.287502 0.5 0.299999 0.562502;
#X coords 0 1 4 0 200 80 1 0 0;
#X restore 101 123 graph;
#N canvas 0 23 450 278 (subpatch) 0;
#X array echoWet 4 float 3;
#A 0 0.224999 0.537499 0.675 0.85;
#X coords 0 1 4 0 200 80 1 0 0;
#X restore 101 218 graph;
#X obj 453 72 bng 15 250 50 0 empty empty empty 17 7 0 10 -262144 -1
-1;
#X obj 447 270 hradio 15 1 0 4 empty empty empty 0 -8 0 10 -261234
-204786 -1 4;
#X obj 470 133 metro 300;
#X obj 522 86 t b f;
#X obj 427 364 tabread echoAmp;
#X obj 461 206 expr ($i2+1)%($i3+1);
#X obj 506 315 select 0;
#X obj 391 131 bng 15 250 50 0 empty empty empty 17 7 0 10 -262144
-1 -1;
#X obj 366 97 loadbang;
#X msg 588 350 stop;
#X obj 413 450 outlet;
#X obj 457 396 tabread echoWet;
#X obj 510 452 outlet;
#X obj 505 33 inlet start;
#X obj 393 170 nbx 5 14 -1e+37 1e+37 0 1 empty empty empty 0 -8 0 10
-262144 -1 -1 4 256;
#X connect 2 0 4 0;
#X connect 3 0 6 0;
#X connect 3 0 7 1;
#X connect 3 0 8 0;
#X connect 3 0 13 0;
#X connect 4 0 7 0;
#X connect 5 0 4 0;
#X connect 5 1 4 1;
#X connect 6 0 12 0;
#X connect 7 0 3 0;
#X connect 8 0 11 0;
#X connect 9 0 16 0;
#X connect 10 0 9 0;
#X connect 11 0 4 0;
#X connect 13 0 14 0;
#X connect 15 0 5 0;
#X connect 16 0 7 2;
#X connect 16 0 8 1;
#X coords 0 -1 1 1 200 200 1 100 100;
#X restore 508 965 pd echoRun;
#X connect 0 0 17 0;
#X connect 0 0 23 0;
#X connect 2 0 5 0;
#X connect 3 0 4 0;
#X connect 3 0 50 0;
#X connect 3 0 51 0;
#X connect 4 0 5 1;
#X connect 5 0 15 0;
#X connect 5 0 32 1;
#X connect 6 0 10 0;
#X connect 6 1 16 0;
#X connect 7 0 32 0;
#X connect 10 0 25 0;
#X connect 12 0 15 1;
#X connect 16 0 24 0;
#X connect 17 0 6 0;
#X connect 18 0 19 0;
#X connect 19 0 20 1;
#X connect 19 0 21 1;
#X connect 20 0 27 0;
#X connect 21 0 27 1;
#X connect 22 0 20 0;
#X connect 22 1 21 0;
#X connect 23 0 22 0;
#X connect 26 0 27 2;
#X connect 26 0 27 3;
#X connect 27 0 1 0;
#X connect 27 1 1 1;
#X connect 28 0 30 0;
#X connect 29 0 31 0;
#X connect 30 0 29 0;
#X connect 30 0 34 0;
#X connect 30 1 29 1;
#X connect 30 1 35 0;
#X connect 31 0 36 0;
#X connect 31 0 48 0;
#X connect 31 0 49 0;
#X connect 32 0 37 0;
#X connect 37 0 38 0;
#X connect 37 0 59 0;
#X connect 37 0 71 0;
#X connect 37 0 76 0;
#X connect 38 0 10 1;
#X connect 38 0 16 1;
#X connect 39 0 41 0;
#X connect 39 0 44 0;
#X connect 40 0 41 1;
#X connect 40 0 42 1;
#X connect 40 0 43 1;
#X connect 40 0 87 0;
#X connect 41 0 42 0;
#X connect 41 0 45 0;
#X connect 42 0 43 0;
#X connect 42 0 46 0;
#X connect 43 0 47 0;
#X connect 44 0 72 0;
#X connect 44 0 73 0;
#X connect 44 0 75 0;
#X connect 45 0 72 0;
#X connect 45 0 73 0;
#X connect 45 0 75 0;
#X connect 46 0 72 0;
#X connect 46 0 73 0;
#X connect 46 0 75 0;
#X connect 47 0 72 0;
#X connect 47 0 73 0;
#X connect 47 0 75 0;
#X connect 48 0 40 0;
#X connect 49 0 39 0;
#X connect 49 0 58 0;
#X connect 50 0 28 0;
#X connect 52 0 26 0;
#X connect 53 0 27 0;
#X connect 53 1 27 1;
#X connect 54 0 56 0;
#X connect 55 0 54 0;
#X connect 56 0 57 0;
#X connect 57 0 53 4;
#X connect 58 0 55 0;
#X connect 60 0 81 0;
#X connect 61 0 77 0;
#X connect 62 0 63 0;
#X connect 63 0 74 0;
#X connect 64 0 65 0;
#X connect 65 0 74 1;
#X connect 65 0 80 1;
#X connect 65 0 84 0;
#X connect 72 0 53 0;
#X connect 72 0 53 1;
#X connect 73 0 53 2;
#X connect 74 0 59 1;
#X connect 74 1 71 1;
#X connect 74 2 76 1;
#X connect 75 0 53 3;
#X connect 77 0 74 0;
#X connect 78 0 74 0;
#X connect 79 0 80 0;
#X connect 80 0 64 0;
#X connect 81 0 78 0;
#X connect 81 1 79 0;
#X connect 82 0 83 0;
#X connect 83 0 85 0;
#X connect 84 0 82 0;
#X connect 84 1 86 0;
#X connect 86 0 83 1;
