#N canvas 552 480 1309 897 10;
#X obj 107 13 loadbang;
#X obj 278 846 dac~;
#X obj 852 238 adc~ 1;
#X obj 600 372 delread4~ \$0-delay2;
#X obj 647 285 pack 0 1000;
#X obj 647 310 line~;
#X obj 923 144 vsl 15 128 0 1 0 1 empty empty empty 0 -9 0 10 -262144
-1 -1 0 1;
#X obj 914 293 line~ 0 100;
#X obj 875 321 *~;
#X obj 798 385 delwrite~ \$0-delay2 4000;
#N canvas 1629 447 800 653 sampler 0;
#X obj 91 189 openpanel;
#X obj 91 246 soundfiler;
#X obj 91 410 phasor~;
#X obj 91 437 *~;
#X obj 91 314 expr 1 / ( $f1 / 44100 );
#X obj 91 385 sig~;
#X obj 148 410 sig~;
#X obj 125 361 t 0;
#X obj 91 498 outlet~;
#X obj 188 28 bng 15 250 50 0 empty empty empty 17 7 0 10 -262144 -1
-1;
#X text 208 30 Play/Stop;
#X obj 28 437 snapshot~;
#X obj 91 361 f;
#X obj 269 28 tgl 15 0 empty empty empty 17 7 0 10 -262144 -1 -1 1
1;
#X obj 242 314 sel 1 0;
#X msg 28 461 set \$1;
#X text 156 30 Load;
#N canvas 0 22 450 278 (subpatch) 0;
#X array Sample_Loop_A 8.00706e+06 float 2;
#X coords 0 1 8.00706e+06 -1 256 64 2 0 0;
#X restore 28 46 graph;
#X obj 31 110 hsl 251 8 0 1 0 0 empty empty empty 0 0 0 10 -262144
-1 -1 3971 0;
#X obj 28 408 metro 20;
#X obj 91 155 t b 0;
#X msg 157 362 1;
#X obj 91 463 tabread4~ Sample_Loop_A;
#X obj 307 155 inlet;
#X obj 303 182 t s 0;
#N canvas 0 23 450 278 (subpatch) 0;
#X array Sample_Loop_A_R 8.00706e+06 float 2;
#X coords 0 1 8.00706e+06 -1 200 140 1;
#X restore 435 76 graph;
#X msg 91 217 read -maxsize 1e+09 \$1 Sample_Loop_A Sample_Loop_A_R
;
#X obj 258 461 tabread4~ Sample_Loop_A_R;
#X obj 266 585 outlet~;
#X msg 336 321 \$3;
#X text 417 516 mono support;
#X obj 263 517 else/xselect~ 2 100 0;
#X floatatom 337 363 5 0 0 0 - - -;
#X connect 0 0 26 0;
#X connect 1 0 6 0;
#X connect 1 0 4 0;
#X connect 1 1 29 0;
#X connect 2 0 3 0;
#X connect 2 0 11 0;
#X connect 3 0 22 0;
#X connect 3 0 27 0;
#X connect 4 0 12 0;
#X connect 4 0 21 0;
#X connect 5 0 2 0;
#X connect 6 0 3 1;
#X connect 7 0 5 0;
#X connect 9 0 20 0;
#X connect 11 0 15 0;
#X connect 12 0 5 0;
#X connect 13 0 14 0;
#X connect 13 0 19 0;
#X connect 14 0 12 0;
#X connect 14 1 7 0;
#X connect 15 0 18 0;
#X connect 18 0 2 1;
#X connect 19 0 11 0;
#X connect 20 0 0 0;
#X connect 20 1 2 1;
#X connect 20 1 13 0;
#X connect 21 0 13 0;
#X connect 22 0 8 0;
#X connect 22 0 31 0;
#X connect 23 0 24 0;
#X connect 24 0 26 0;
#X connect 24 1 2 1;
#X connect 26 0 1 0;
#X connect 27 0 31 1;
#X connect 29 0 32 0;
#X connect 31 0 28 0;
#X connect 32 0 31 0;
#X coords 0 653 1 652 262 96 0;
#X restore 443 90 pd sampler;
#N canvas 855 414 338 547 sampler 0;
#X obj 91 189 openpanel;
#X obj 91 246 soundfiler;
#X obj 91 410 phasor~;
#X obj 91 437 *~;
#X obj 91 314 expr 1 / ( $f1 / 44100 );
#X obj 91 385 sig~;
#X obj 148 410 sig~;
#X obj 125 361 t 0;
#X obj 91 498 outlet~;
#X obj 188 28 bng 15 250 50 0 empty empty empty 17 7 0 10 -262144 -1
-1;
#X text 208 30 Play/Stop;
#X obj 28 437 snapshot~;
#X obj 91 361 f;
#X obj 269 28 tgl 15 0 empty empty empty 17 7 0 10 -262144 -1 -1 0
1;
#X obj 242 314 sel 1 0;
#X msg 28 461 set \$1;
#X text 156 30 Load;
#N canvas 0 22 450 278 (subpatch) 0;
#X array Sample_Loop_B 1.323e+06 float 2;
#X coords 0 1 1.323e+06 -1 256 64 2 0 0;
#X restore 28 46 graph;
#X obj 31 110 hsl 251 8 0 1 0 0 empty empty empty 0 0 0 10 -262144
-1 -1 0 0;
#X obj 28 408 metro 20;
#X obj 91 155 t b 0;
#X msg 157 362 1;
#X msg 91 218 read -maxsize 1e+09 \$1 Sample_Loop_B;
#X obj 91 463 tabread4~ Sample_Loop_B;
#X connect 0 0 22 0;
#X connect 1 0 6 0;
#X connect 1 0 4 0;
#X connect 2 0 3 0;
#X connect 2 0 11 0;
#X connect 3 0 23 0;
#X connect 4 0 12 0;
#X connect 4 0 21 0;
#X connect 5 0 2 0;
#X connect 6 0 3 1;
#X connect 7 0 5 0;
#X connect 9 0 20 0;
#X connect 11 0 15 0;
#X connect 12 0 5 0;
#X connect 13 0 14 0;
#X connect 13 0 19 0;
#X connect 14 0 12 0;
#X connect 14 1 7 0;
#X connect 15 0 18 0;
#X connect 18 0 2 1;
#X connect 19 0 11 0;
#X connect 20 0 0 0;
#X connect 20 1 2 1;
#X connect 20 1 13 0;
#X connect 21 0 13 0;
#X connect 22 0 1 0;
#X connect 23 0 8 0;
#X coords 0 -1 1 1 262 96 2 25 25;
#X restore 836 9 pd sampler;
#X text 526 88 carrier;
#X text 947 104 filter;
#N canvas 1194 265 780 990 ampl_convo_else~ 0;
#X obj 203 865 outlet~;
#X obj 218 212 rfft~;
#X obj 318 710 block~;
#X msg 318 677 set \$1 4;
#X obj 305 639 r \$0-size;
#X obj 218 165 else/hann~;
#X obj 203 820 *~;
#X obj 305 748 expr 1 / ($f1 * 1.5);
#X obj 479 681 loadbang;
#X obj 479 743 s \$0-size;
#X msg 479 710 2048;
#X obj 188 273 *~;
#X obj 259 280 *~;
#X obj 209 314 +~;
#X obj 205 349 sqrt~;
#X obj 208 377 clip~ -0.9 0.9;
#X obj 351 223 rfft~;
#X obj 321 284 *~;
#X obj 392 291 *~;
#X obj 342 325 +~;
#X obj 344 350 sqrt~;
#X obj 340 376 clip~ -0.9 0.9;
#X obj 59 509 rfft~;
#X obj 57 445 else/hann~;
#X text 234 405 fftamp1;
#X text 375 402 fftamp2;
#X obj 287 78 inlet~ rhythm;
#X obj 83 75 inlet~ noise;
#X obj 175 514 rfft~;
#X obj 49 573 *~;
#X obj 100 576 *~;
#X obj 55 637 rifft~;
#X obj 55 683 else/hann~;
#X obj 168 574 *~;
#X obj 219 577 *~;
#X obj 174 638 rifft~;
#X obj 121 752 +~;
#X text 69 36 thanks to the msp convolution workshop old example. :)
;
#X obj 333 119 shift_hann_jdn;
#X obj 150 445 shift_hann_jdn;
#X obj 174 688 shift_hann_jdn;
#X connect 1 0 11 0;
#X connect 1 0 11 1;
#X connect 1 1 12 0;
#X connect 1 1 12 1;
#X connect 3 0 2 0;
#X connect 4 0 3 0;
#X connect 4 0 7 0;
#X connect 5 0 1 0;
#X connect 6 0 0 0;
#X connect 7 0 6 1;
#X connect 8 0 10 0;
#X connect 10 0 9 0;
#X connect 11 0 13 0;
#X connect 12 0 13 1;
#X connect 13 0 14 0;
#X connect 14 0 15 0;
#X connect 15 0 30 1;
#X connect 15 0 29 1;
#X connect 16 0 17 0;
#X connect 16 0 17 1;
#X connect 16 1 18 0;
#X connect 16 1 18 1;
#X connect 17 0 19 0;
#X connect 18 0 19 1;
#X connect 19 0 20 0;
#X connect 20 0 21 0;
#X connect 21 0 33 1;
#X connect 21 0 34 1;
#X connect 22 0 29 0;
#X connect 22 1 30 0;
#X connect 23 0 22 0;
#X connect 26 0 5 0;
#X connect 26 0 38 0;
#X connect 27 0 23 0;
#X connect 27 0 39 0;
#X connect 28 0 33 0;
#X connect 28 1 34 0;
#X connect 29 0 31 0;
#X connect 30 0 31 1;
#X connect 31 0 32 0;
#X connect 32 0 36 0;
#X connect 33 0 35 0;
#X connect 34 0 35 1;
#X connect 35 0 40 0;
#X connect 36 0 6 0;
#X connect 38 0 16 0;
#X connect 39 0 28 0;
#X connect 40 0 36 1;
#X restore 285 663 pd ampl_convo_else~;
#X text 959 213 mic input level;
#X text 643 236 mic delay (ms);
#X obj 696 432 nbx 5 14 -1e+37 1e+37 0 1 empty empty empty 0 -8 0 10
-228856 -1 -1 7000 256;
#X obj 621 431 nbx 5 14 0 3000 0 1 empty empty empty 0 -8 0 10 -228856
-1 -1 1348 256;
#X text 637 411 Delay time (ms);
#X text 753 431 Feedback (Decay time in ms);
#X obj 734 542 vsl 18 80 -100 0 0 0 empty empty empty 0 -9 0 10 -228856
-1 -1 7900 1;
#X obj 610 581 nbx 5 14 -100 0 0 1 empty empty empty 0 -8 0 10 -228856
-1 -1 -41 256;
#X text 605 564 threshold;
#X text 575 579 dBFS;
#X obj 486 609 else/noisegate~ -40 200;
#X obj 579 468 else/fbdelay~ 3000 6000;
#X text 433 266 time align with fft'd signals;
#X obj 446 182 expr 1*2048/44.1;
#X obj 551 515 else/compress~ -30 5 5 5 -3 256;
#X obj 1029 322 nbx 5 14 -100 0 0 1 empty empty empty 0 -8 0 10 -228856
-1 -1 -38 256;
#X text 1024 305 threshold;
#X text 994 320 dBFS;
#X obj 905 350 else/noisegate~ -40 200;
#X obj 648 259 nbx 5 14 0 3000 0 1 empty empty empty 0 -8 0 10 -228856
-1 -1 870 256;
#N canvas 1194 265 780 990 ampl_convo_else~ 0;
#X obj 203 865 outlet~;
#X obj 218 212 rfft~;
#X obj 318 710 block~;
#X msg 318 677 set \$1 4;
#X obj 305 639 r \$0-size;
#X obj 218 165 else/hann~;
#X obj 203 820 *~;
#X obj 305 748 expr 1 / ($f1 * 1.5);
#X obj 479 681 loadbang;
#X obj 479 743 s \$0-size;
#X msg 479 710 2048;
#X obj 188 273 *~;
#X obj 259 280 *~;
#X obj 209 314 +~;
#X obj 205 349 sqrt~;
#X obj 208 377 clip~ -0.9 0.9;
#X obj 351 223 rfft~;
#X obj 321 284 *~;
#X obj 392 291 *~;
#X obj 342 325 +~;
#X obj 344 350 sqrt~;
#X obj 340 376 clip~ -0.9 0.9;
#X obj 59 509 rfft~;
#X obj 57 445 else/hann~;
#X text 234 405 fftamp1;
#X text 375 402 fftamp2;
#X obj 287 78 inlet~ rhythm;
#X obj 83 75 inlet~ noise;
#X obj 175 514 rfft~;
#X obj 49 573 *~;
#X obj 100 576 *~;
#X obj 55 637 rifft~;
#X obj 55 683 else/hann~;
#X obj 168 574 *~;
#X obj 219 577 *~;
#X obj 174 638 rifft~;
#X obj 121 752 +~;
#X text 69 36 thanks to the msp convolution workshop old example. :)
;
#X obj 333 119 shift_hann_jdn;
#X obj 150 445 shift_hann_jdn;
#X obj 174 688 shift_hann_jdn;
#X connect 1 0 11 0;
#X connect 1 0 11 1;
#X connect 1 1 12 0;
#X connect 1 1 12 1;
#X connect 3 0 2 0;
#X connect 4 0 3 0;
#X connect 4 0 7 0;
#X connect 5 0 1 0;
#X connect 6 0 0 0;
#X connect 7 0 6 1;
#X connect 8 0 10 0;
#X connect 10 0 9 0;
#X connect 11 0 13 0;
#X connect 12 0 13 1;
#X connect 13 0 14 0;
#X connect 14 0 15 0;
#X connect 15 0 30 1;
#X connect 15 0 29 1;
#X connect 16 0 17 0;
#X connect 16 0 17 1;
#X connect 16 1 18 0;
#X connect 16 1 18 1;
#X connect 17 0 19 0;
#X connect 18 0 19 1;
#X connect 19 0 20 0;
#X connect 20 0 21 0;
#X connect 21 0 33 1;
#X connect 21 0 34 1;
#X connect 22 0 29 0;
#X connect 22 1 30 0;
#X connect 23 0 22 0;
#X connect 26 0 5 0;
#X connect 26 0 38 0;
#X connect 27 0 23 0;
#X connect 27 0 39 0;
#X connect 28 0 33 0;
#X connect 28 1 34 0;
#X connect 29 0 31 0;
#X connect 30 0 31 1;
#X connect 31 0 32 0;
#X connect 32 0 36 0;
#X connect 33 0 35 0;
#X connect 34 0 35 1;
#X connect 35 0 40 0;
#X connect 36 0 6 0;
#X connect 38 0 16 0;
#X connect 39 0 28 0;
#X connect 40 0 36 1;
#X restore 431 672 pd ampl_convo_else~;
#N canvas 1111 570 838 728 select_file 0;
#X msg 135 221 seek \$1;
#X obj 135 194 nbx 3 14 -1e+37 1e+37 0 0 empty empty empty 0 -8 0 10
-228856 -1 -1 2 256;
#X obj 135 118 bng 18 250 50 0 empty empty empty 17 7 0 10 -228856
-1 -1;
#X msg 96 220 next;
#X obj 222 145 nbx 4 14 -1e+37 1e+37 0 0 empty empty empty 0 -8 0 10
-228856 -1 -1 6 256;
#X obj 135 168 else/rand.i 1 1;
#X obj 219 223 else/initmess n \, dir;
#X text 271 143 n;
#X msg 133 315 \$2/\$1;
#X obj 133 286 pack s s;
#X obj 134 353 symbol;
#X obj 134 392 outlet;
#X obj 139 67 inlet;
#X obj 135 253 else/dir audio/carriers;
#X connect 0 0 13 0;
#X connect 1 0 0 0;
#X connect 2 0 5 0;
#X connect 3 0 13 0;
#X connect 4 0 5 2;
#X connect 5 0 1 0;
#X connect 6 0 13 0;
#X connect 8 0 10 0;
#X connect 9 0 8 0;
#X connect 10 0 11 0;
#X connect 12 0 2 0;
#X connect 13 0 9 0;
#X connect 13 1 9 1;
#X connect 13 2 4 0;
#X coords 0 -1 1 1 60 40 1 100 100;
#X restore 435 26 pd select_file;
#X obj 396 157 delwrite~ carrAlignL 2048;
#X obj 399 222 delread~ carrAlignL;
#X obj 566 157 delwrite~ carrAlignR 2048;
#X obj 576 219 delread~ carrAlignR;
#X obj 187 209 vsl 15 128 0 1 0 1 empty empty empty 0 -9 0 10 -262144
-1 -1 3800 1;
#X obj 191 406 line~ 0 100;
#X obj 118 454 *~;
#X obj 152 454 *~;
#N canvas 62 736 732 429 bg_loops 0;
#X msg 87 116 1;
#X msg 73 150 0;
#X obj 27 211 readsf~ 2;
#X obj 157 90 bng 15 250 50 0 empty empty empty 17 7 0 10 -262144 -1
-1;
#X obj 185 250 delay 200;
#X msg 218 207 open \$1;
#X obj 191 170 t b l;
#X obj 17 278 outlet~;
#X obj 80 280 outlet~;
#X obj 167 20 inlet;
#X symbolatom 215 115 80 0 0 0 - - -;
#X connect 0 0 2 0;
#X connect 1 0 2 0;
#X connect 2 0 7 0;
#X connect 2 1 8 0;
#X connect 2 2 3 0;
#X connect 3 0 10 0;
#X connect 4 0 0 0;
#X connect 5 0 2 0;
#X connect 6 0 4 0;
#X connect 6 1 5 0;
#X connect 9 0 10 0;
#X connect 10 0 6 0;
#X restore 77 196 pd bg_loops;
#N canvas 1111 570 838 728 select_file 0;
#X msg 135 221 seek \$1;
#X obj 135 194 nbx 3 14 -1e+37 1e+37 0 0 empty empty empty 0 -8 0 10
-228856 -1 -1 3 256;
#X obj 135 118 bng 18 250 50 0 empty empty empty 17 7 0 10 -228856
-1 -1;
#X msg 96 220 next;
#X obj 222 145 nbx 4 14 -1e+37 1e+37 0 0 empty empty empty 0 -8 0 10
-228856 -1 -1 11 256;
#X obj 135 168 else/rand.i 1 1;
#X obj 219 223 else/initmess n \, dir;
#X text 271 143 n;
#X msg 133 315 \$2/\$1;
#X obj 133 286 pack s s;
#X obj 134 353 symbol;
#X obj 134 392 outlet;
#X obj 139 67 inlet;
#X obj 135 253 else/dir audio/medium;
#X connect 0 0 13 0;
#X connect 1 0 0 0;
#X connect 2 0 5 0;
#X connect 3 0 13 0;
#X connect 4 0 5 2;
#X connect 5 0 1 0;
#X connect 6 0 13 0;
#X connect 8 0 10 0;
#X connect 9 0 8 0;
#X connect 10 0 11 0;
#X connect 12 0 2 0;
#X connect 13 0 9 0;
#X connect 13 1 9 1;
#X connect 13 2 4 0;
#X coords 0 -1 1 1 60 40 1 100 100;
#X restore 73 135 pd select_file;
#X obj 416 715 +~;
#X obj 297 714 +~;
#X obj 1126 266 sig~;
#X obj 1129 296 s~ micOn;
#X obj 168 717 r~ micOn;
#N canvas 1642 646 785 441 stero_duck_micOn 0;
#X obj 85 192 outlet~;
#X obj 295 197 outlet~;
#X obj 55 25 inlet~;
#X obj 123 28 inlet~;
#X obj 204 24 inlet~;
#X obj 294 24 inlet~;
#X obj 472 26 loadbang;
#X msg 474 65 thresh -10 \, ratio 0.5 \, attack 100 \, release 500
;
#X obj 57 127 else/duck~;
#X obj 288 129 else/duck~;
#X connect 2 0 8 0;
#X connect 3 0 9 0;
#X connect 4 0 8 1;
#X connect 5 0 9 1;
#X connect 6 0 7 0;
#X connect 7 0 8 2;
#X connect 7 0 9 2;
#X connect 8 0 0 0;
#X connect 9 0 1 0;
#X restore 87 759 pd stero_duck_micOn;
#X connect 0 0 36 0;
#X connect 0 0 28 0;
#X connect 0 0 46 0;
#X connect 2 0 8 0;
#X connect 3 0 26 0;
#X connect 4 0 5 0;
#X connect 5 0 3 0;
#X connect 6 0 7 0;
#X connect 6 0 49 0;
#X connect 7 0 8 1;
#X connect 8 0 33 0;
#X connect 10 0 37 0;
#X connect 10 0 14 0;
#X connect 10 1 39 0;
#X connect 10 1 35 0;
#X connect 11 0 9 0;
#X connect 14 0 48 0;
#X connect 17 0 26 2;
#X connect 18 0 26 1;
#X connect 22 0 25 1;
#X connect 25 0 14 1;
#X connect 25 0 35 1;
#X connect 26 0 29 0;
#X connect 28 0 38 0;
#X connect 28 0 40 0;
#X connect 29 0 25 0;
#X connect 29 1 21 0;
#X connect 30 0 33 1;
#X connect 33 0 9 0;
#X connect 34 0 4 0;
#X connect 35 0 47 0;
#X connect 36 0 10 0;
#X connect 41 0 42 0;
#X connect 42 0 43 1;
#X connect 42 0 44 1;
#X connect 43 0 52 0;
#X connect 44 0 52 1;
#X connect 45 0 43 0;
#X connect 45 1 44 0;
#X connect 46 0 45 0;
#X connect 47 0 1 1;
#X connect 48 0 1 0;
#X connect 49 0 50 0;
#X connect 51 0 52 2;
#X connect 51 0 52 3;
#X connect 52 0 1 0;
#X connect 52 1 1 1;
