#N canvas 664 23 1494 1362 10;
#X obj 107 13 loadbang;
#X obj 171 1250 dac~;
#X obj 852 238 adc~ 1;
#X obj 916 147 vsl 15 128 0 1 0 1 empty empty empty 0 -9 0 10 -262144
-1 -1 0 1;
#X obj 914 293 line~ 0 100;
#X obj 875 321 *~;
#N canvas 855 414 338 547 sampler 0;
#X obj 91 189 openpanel;
#X obj 91 246 soundfiler;
#X obj 91 410 phasor~;
#X obj 91 437 *~;
#X obj 91 314 expr 1 / ( $f1 / 44100 );
#X obj 91 385 sig~;
#X obj 148 410 sig~;
#X obj 125 361 t 0;
#X obj 91 498 outlet~;
#X obj 188 28 bng 15 250 50 0 empty empty empty 17 7 0 10 -262144 -1
-1;
#X text 208 30 Play/Stop;
#X obj 28 437 snapshot~;
#X obj 91 361 f;
#X obj 269 28 tgl 15 0 empty empty empty 17 7 0 10 -262144 -1 -1 0
1;
#X obj 242 314 sel 1 0;
#X msg 28 461 set \$1;
#X text 156 30 Load;
#N canvas 0 22 450 278 (subpatch) 0;
#X array Sample_Loop_B 1.323e+06 float 2;
#X coords 0 1 1.323e+06 -1 256 64 2 0 0;
#X restore 28 46 graph;
#X obj 31 110 hsl 251 8 0 1 0 0 empty empty empty 0 0 0 10 -262144
-1 -1 0 0;
#X obj 28 408 metro 20;
#X obj 91 155 t b 0;
#X msg 157 362 1;
#X msg 91 218 read -maxsize 1e+09 \$1 Sample_Loop_B;
#X obj 91 463 tabread4~ Sample_Loop_B;
#X connect 0 0 22 0;
#X connect 1 0 6 0;
#X connect 1 0 4 0;
#X connect 2 0 3 0;
#X connect 2 0 11 0;
#X connect 3 0 23 0;
#X connect 4 0 12 0;
#X connect 4 0 21 0;
#X connect 5 0 2 0;
#X connect 6 0 3 1;
#X connect 7 0 5 0;
#X connect 9 0 20 0;
#X connect 11 0 15 0;
#X connect 12 0 5 0;
#X connect 13 0 14 0;
#X connect 13 0 19 0;
#X connect 14 0 12 0;
#X connect 14 1 7 0;
#X connect 15 0 18 0;
#X connect 18 0 2 1;
#X connect 19 0 11 0;
#X connect 20 0 0 0;
#X connect 20 1 2 1;
#X connect 20 1 13 0;
#X connect 21 0 13 0;
#X connect 22 0 1 0;
#X connect 23 0 8 0;
#X coords 0 -1 1 1 262 96 2 25 25;
#X restore 836 9 pd sampler;
#X text 947 104 filter;
#X text 959 213 mic input level;
#X obj 1029 322 nbx 5 14 -100 0 0 1 empty empty empty 0 -8 0 10 -228856
-1 -1 -38 256;
#X text 1024 305 threshold;
#X text 994 320 dBFS;
#X obj 905 350 else/noisegate~ -40 200;
#X obj 187 209 vsl 15 128 0 1 0 1 empty empty empty 0 -9 0 10 -262144
-1 -1 1600 1;
#X obj 191 406 line~ 0 100;
#X obj 118 454 *~;
#X obj 152 454 *~;
#N canvas 62 736 732 429 bg_loops 0;
#X msg 87 116 1;
#X msg 73 150 0;
#X obj 27 211 readsf~ 2;
#X obj 157 90 bng 15 250 50 0 empty empty empty 17 7 0 10 -262144 -1
-1;
#X obj 185 250 delay 200;
#X msg 218 207 open \$1;
#X obj 191 170 t b l;
#X obj 17 278 outlet~;
#X obj 80 280 outlet~;
#X obj 167 20 inlet;
#X symbolatom 215 115 80 0 0 0 - - -;
#X connect 0 0 2 0;
#X connect 1 0 2 0;
#X connect 2 0 7 0;
#X connect 2 1 8 0;
#X connect 2 2 3 0;
#X connect 3 0 10 0;
#X connect 4 0 0 0;
#X connect 5 0 2 0;
#X connect 6 0 4 0;
#X connect 6 1 5 0;
#X connect 9 0 10 0;
#X connect 10 0 6 0;
#X restore 77 196 pd bg_loops;
#N canvas 1031 620 838 728 select_file 0;
#X msg 135 221 seek \$1;
#X obj 135 194 nbx 3 14 -1e+37 1e+37 0 0 empty empty empty 0 -8 0 10
-228856 -1 -1 5 256;
#X obj 135 118 bng 18 250 50 0 empty empty empty 17 7 0 10 -228856
-1 -1;
#X msg 96 220 next;
#X obj 222 145 nbx 4 14 -1e+37 1e+37 0 0 empty empty empty 0 -8 0 10
-228856 -1 -1 11 256;
#X obj 135 168 else/rand.i 1 1;
#X obj 219 223 else/initmess n \, dir;
#X text 271 143 n;
#X msg 133 315 \$2/\$1;
#X obj 133 286 pack s s;
#X obj 134 353 symbol;
#X obj 134 392 outlet;
#X obj 139 67 inlet;
#X obj 135 253 else/dir audio/medium;
#X obj 224 298 print background:;
#X connect 0 0 13 0;
#X connect 1 0 0 0;
#X connect 2 0 5 0;
#X connect 3 0 13 0;
#X connect 4 0 5 2;
#X connect 5 0 1 0;
#X connect 6 0 13 0;
#X connect 8 0 10 0;
#X connect 9 0 8 0;
#X connect 10 0 11 0;
#X connect 12 0 2 0;
#X connect 13 0 9 0;
#X connect 13 0 14 0;
#X connect 13 1 9 1;
#X connect 13 2 4 0;
#X coords 0 -1 1 1 60 40 1 100 100;
#X restore 73 135 pd select_file;
#X obj 188 1158 sig~;
#N canvas 1642 646 785 441 stero_duck_micOn 0;
#X obj 85 192 outlet~;
#X obj 295 197 outlet~;
#X obj 55 25 inlet~;
#X obj 123 28 inlet~;
#X obj 204 24 inlet~;
#X obj 294 24 inlet~;
#X obj 472 26 loadbang;
#X msg 474 65 thresh -10 \, ratio 0.5 \, attack 100 \, release 500
;
#X obj 57 127 else/duck~;
#X obj 288 129 else/duck~;
#X connect 2 0 8 0;
#X connect 3 0 9 0;
#X connect 4 0 8 1;
#X connect 5 0 9 1;
#X connect 6 0 7 0;
#X connect 7 0 8 2;
#X connect 7 0 9 2;
#X connect 8 0 0 0;
#X connect 9 0 1 0;
#X restore 113 1202 pd stero_duck_micOn;
#X obj 1063 526 tgl 30 0 empty empty empty 17 7 0 10 -262144 -1 -1
0 1;
#X obj 1059 648 timer;
#X obj 1069 579 select 1 0;
#X floatatom 1059 683 8 0 0 0 - - -;
#X obj 817 367 +~;
#N canvas 134 90 647 549 mic_proc_biz 0;
#X obj 178 176 delread4~ \$0-delay2;
#X obj 225 89 pack 0 1000;
#X obj 225 114 line~;
#X obj 149 144 delwrite~ \$0-delay2 4000;
#X text 221 43 mic delay (ms);
#X obj 272 235 nbx 5 14 -1e+37 1e+37 0 1 empty empty empty 0 -8 0 10
-228856 -1 -1 7000 256;
#X obj 199 235 nbx 5 14 0 3000 0 1 empty empty empty 0 -8 0 10 -228856
-1 -1 1348 256;
#X text 215 215 Delay time (ms);
#X text 335 233 Feedback (Decay time in ms);
#X obj 312 346 vsl 18 80 -100 0 0 0 empty empty empty 0 -9 0 10 -228856
-1 -1 7900 1;
#X obj 188 385 nbx 5 14 -100 0 0 1 empty empty empty 0 -8 0 10 -228856
-1 -1 -41 256;
#X text 183 368 threshold;
#X text 153 383 dBFS;
#X obj 64 413 else/noisegate~ -40 200;
#X obj 157 272 else/fbdelay~ 3000 6000;
#X obj 129 319 else/compress~ -30 5 5 5 -3 256;
#X obj 226 63 nbx 5 14 0 3000 0 1 empty empty empty 0 -8 0 10 -228856
-1 -1 870 256;
#X connect 0 0 14 0;
#X connect 1 0 2 0;
#X connect 2 0 0 0;
#X connect 5 0 14 2;
#X connect 6 0 14 1;
#X connect 10 0 13 1;
#X connect 14 0 15 0;
#X connect 15 0 13 0;
#X connect 15 1 9 0;
#X connect 16 0 1 0;
#X restore 1217 695 pd mic_proc_biz;
#X obj 1114 623 s recStart;
#X obj 1190 623 s recStop;
#X obj 1059 719 s recLength;
#X obj 475 472 +~;
#X obj 1063 494 else/schmitt 0.5 0.1;
#X obj 991 266 s micOn;
#X obj 194 1130 r micOn;
#X obj 554 501 recorder_jdn 1;
#X obj 579 139 r recStart;
#X obj 579 344 r recStop;
#X obj 603 199 r recLength;
#X msg 604 229 recLength \$1;
#X obj 814 412 vradio 15 1 0 4 sdvs asfgasgf empty 0 -8 0 10 -228856
-1 -1 1;
#X obj 814 485 nbx 2 15 -1e+37 1e+37 0 0 xfkvds asfmnv empty 0 -8 0
12 -228856 -1 -1 1 256;
#X text 832 412 none;
#X text 832 427 1st;
#X text 832 442 2nd;
#X text 832 457 3rd;
#X text 851 481 outlet #;
#X obj 553 526 recorder_jdn 2;
#X obj 640 461 else/router 3;
#X obj 555 557 recorder_jdn 3;
#X msg 579 374 recStop bang;
#X msg 591 306 recStart bang;
#X obj 730 250 bng 15 250 50 0 empty empty empty 17 7 0 10 -262144
-1 -1;
#X obj 703 298 expr 1+(($i2)%3);
#X obj 592 168 t b b;
#X msg 776 558 1 2 3;
#X obj 794 598 else/rotate;
#X obj 813 520 t b f;
#X obj 850 565 * -1;
#X obj 874 515 s curRecorder;
#X obj 437 795 r recLength;
#X obj 567 791 r curRecorder;
#X obj 423 879 sequenced_player_jdn;
#X obj 655 832 bng 15 250 50 0 empty empty empty 17 7 0 10 -262144
-1 -1;
#X obj 721 886 sequenced_player_jdn;
#X obj 709 766 r recLength;
#X obj 855 786 r curRecorder;
#X obj 968 826 bng 15 250 50 0 empty empty empty 17 7 0 10 -262144
-1 -1;
#X obj 869 865 nbx 5 14 -1e+37 1e+37 0 0 empty empty empty 0 -8 0 10
-262144 -1 -1 2 256;
#X obj 575 843 nbx 5 14 -1e+37 1e+37 0 0 empty empty empty 0 -8 0 10
-262144 -1 -1 1 256;
#X obj 831 827 expr (($i1+3)%3)+1;
#X obj 1017 890 sequenced_player_jdn;
#X obj 1021 794 r recLength;
#X obj 1151 790 r curRecorder;
#X obj 1264 830 bng 15 250 50 0 empty empty empty 17 7 0 10 -262144
-1 -1;
#X obj 1165 869 nbx 5 14 -1e+37 1e+37 0 0 empty empty empty 0 -8 0
10 -262144 -1 -1 3 256;
#X obj 1127 831 expr (($i1+4)%3)+1;
#X obj 692 691 else/coin 10 100;
#X obj 820 720 else/coin 10 90;
#X obj 913 745 else/coin 10 80;
#X obj 758 835 * 1.5;
#X obj 1047 849 * 2;
#X msg 384 1230 echoAmp 1 0.8 0.6 0.5 \, echoWet 0.1 0.5 0.7 1;
#X obj 639 1174 loadbang;
#X obj 638 1196 bng 15 250 50 0 empty empty empty 17 7 0 10 -262144
-1 -1;
#X obj 770 799 nbx 5 14 0.1 5 0 1 empty empty empty 0 -8 0 10 -262144
-1 -1 1.5 256;
#X obj 1060 820 nbx 5 14 0.1 5 0 1 empty empty empty 0 -8 0 10 -262144
-1 -1 2 256;
#X obj 1131 182 env~ 128;
#X obj 1136 250 vu 15 120 empty Input_Level -1 -8 0 10 -66577 -1 1
0;
#X obj 1133 209 - 100;
#X msg 699 1230 echoAmp 0.1 0.6 0.4 0.9 \, echoWet 0.5 0.8 0.2 0.6
;
#X msg 1030 1229 echoAmp 0.1 0.4 0.8 0.6 \, echoWet 0.9 0.5 0.7 0.15
;
#X obj 1206 31 notein 1;
#X obj 1206 82 pack 0 0;
#X obj 1206 107 route 43;
#X obj 1206 132 expr $i1 > 0;
#X obj 1316 254 noteout;
#X obj 1313 214 unpack f f f;
#X msg 1318 186 14 100 1;
#X obj 1314 152 expr $i1 == 0;
#X symbolatom 355 661 10 0 0 0 - - -;
#X obj 355 630 symbol;
#X msg 356 597 basdfsdf;
#X obj 1416 158 loadbang;
#X connect 0 0 18 0;
#X connect 2 0 5 0;
#X connect 2 0 86 0;
#X connect 3 0 4 0;
#X connect 3 0 31 0;
#X connect 3 0 32 0;
#X connect 4 0 5 1;
#X connect 5 0 12 0;
#X connect 5 0 25 1;
#X connect 6 0 25 0;
#X connect 9 0 12 1;
#X connect 13 0 14 0;
#X connect 14 0 15 1;
#X connect 14 0 16 1;
#X connect 15 0 20 0;
#X connect 16 0 20 1;
#X connect 17 0 15 0;
#X connect 17 1 16 0;
#X connect 18 0 17 0;
#X connect 19 0 20 2;
#X connect 19 0 20 3;
#X connect 20 0 1 0;
#X connect 20 1 1 1;
#X connect 21 0 23 0;
#X connect 22 0 24 0;
#X connect 23 0 22 0;
#X connect 23 0 27 0;
#X connect 23 1 22 1;
#X connect 23 1 28 0;
#X connect 24 0 29 0;
#X connect 25 0 30 0;
#X connect 30 0 34 0;
#X connect 30 0 46 0;
#X connect 30 0 48 0;
#X connect 31 0 21 0;
#X connect 33 0 19 0;
#X connect 35 0 53 0;
#X connect 36 0 49 0;
#X connect 37 0 38 0;
#X connect 38 0 47 0;
#X connect 39 0 40 0;
#X connect 40 0 52 1;
#X connect 40 0 56 0;
#X connect 40 0 58 0;
#X connect 40 0 47 1;
#X connect 47 0 34 1;
#X connect 47 1 46 1;
#X connect 47 2 48 1;
#X connect 49 0 47 0;
#X connect 50 0 47 0;
#X connect 51 0 52 0;
#X connect 51 0 76 0;
#X connect 52 0 39 0;
#X connect 53 0 50 0;
#X connect 53 1 51 0;
#X connect 54 0 55 0;
#X connect 56 0 54 0;
#X connect 56 1 57 0;
#X connect 57 0 55 1;
#X connect 59 0 61 1;
#X connect 60 0 61 2;
#X connect 60 0 68 0;
#X connect 61 0 20 0;
#X connect 61 1 20 1;
#X connect 62 0 61 3;
#X connect 63 0 20 0;
#X connect 63 1 20 1;
#X connect 64 0 79 0;
#X connect 65 0 69 0;
#X connect 66 0 63 3;
#X connect 69 0 67 0;
#X connect 69 0 63 2;
#X connect 70 0 20 0;
#X connect 70 1 20 1;
#X connect 71 0 80 0;
#X connect 72 0 75 0;
#X connect 73 0 70 3;
#X connect 75 0 74 0;
#X connect 75 0 70 2;
#X connect 76 0 62 0;
#X connect 76 1 77 0;
#X connect 77 0 66 0;
#X connect 77 1 78 0;
#X connect 78 0 73 0;
#X connect 79 0 63 1;
#X connect 80 0 70 1;
#X connect 81 0 61 0;
#X connect 82 0 83 0;
#X connect 83 0 81 0;
#X connect 83 0 89 0;
#X connect 83 0 90 0;
#X connect 84 0 79 1;
#X connect 85 0 80 1;
#X connect 86 0 88 0;
#X connect 88 0 87 0;
#X connect 89 0 63 0;
#X connect 90 0 70 0;
#X connect 91 0 92 0;
#X connect 91 1 92 1;
#X connect 92 0 93 0;
#X connect 93 0 94 0;
#X connect 93 0 98 0;
#X connect 94 0 3 0;
#X connect 96 0 95 0;
#X connect 96 1 95 1;
#X connect 96 2 95 2;
#X connect 97 0 96 0;
#X connect 98 0 97 0;
#X connect 100 0 99 0;
#X connect 101 0 100 0;
#X connect 102 0 97 0;
