#N canvas 1248 352 1579 1229 10;
#X obj 980 411 tgl 30 0 empty empty empty 17 7 0 10 -262144 -1 -1 0
1;
#X obj 976 533 timer;
#X obj 986 464 select 1 0;
#X floatatom 976 568 8 0 0 0 - - -;
#X obj 777 193 +~;
#N canvas 134 90 647 549 mic_proc_biz 0;
#X obj 178 176 delread4~ \$0-delay2;
#X obj 225 89 pack 0 1000;
#X obj 225 114 line~;
#X obj 149 144 delwrite~ \$0-delay2 4000;
#X text 221 43 mic delay (ms);
#X obj 272 235 nbx 5 14 -1e+37 1e+37 0 1 empty empty empty 0 -8 0 10
-228856 -1 -1 7000 256;
#X obj 199 235 nbx 5 14 0 3000 0 1 empty empty empty 0 -8 0 10 -228856
-1 -1 1348 256;
#X text 215 215 Delay time (ms);
#X text 335 233 Feedback (Decay time in ms);
#X obj 312 346 vsl 18 80 -100 0 0 0 empty empty empty 0 -9 0 10 -228856
-1 -1 7900 1;
#X obj 188 385 nbx 5 14 -100 0 0 1 empty empty empty 0 -8 0 10 -228856
-1 -1 -41 256;
#X text 183 368 threshold;
#X text 153 383 dBFS;
#X obj 64 413 else/noisegate~ -40 200;
#X obj 157 272 else/fbdelay~ 3000 6000;
#X obj 129 319 else/compress~ -30 5 5 5 -3 256;
#X obj 226 63 nbx 5 14 0 3000 0 1 empty empty empty 0 -8 0 10 -228856
-1 -1 870 256;
#X connect 0 0 14 0;
#X connect 1 0 2 0;
#X connect 2 0 0 0;
#X connect 5 0 14 2;
#X connect 6 0 14 1;
#X connect 10 0 13 1;
#X connect 14 0 15 0;
#X connect 15 0 13 0;
#X connect 15 1 9 0;
#X connect 16 0 1 0;
#X restore 1134 580 pd mic_proc_biz;
#X obj 1031 508 s recStart;
#X obj 1107 508 s recStop;
#X obj 976 604 s recLength;
#X obj 392 357 +~;
#X obj 980 379 else/schmitt 0.5 0.1;
#X obj 471 386 recorder_jdn 1;
#X obj 496 24 r recStart;
#X obj 496 229 r recStop;
#X obj 520 84 r recLength;
#X msg 521 114 recLength \$1;
#X obj 802 257 vradio 15 1 0 6 sdvs asfgasgf empty 0 -8 0 10 -228856
-1 -1 1;
#X obj 731 370 nbx 2 15 -1e+37 1e+37 0 0 xfkvds asfmnv empty 0 -8 0
12 -228856 -1 -1 1 256;
#X text 820 257 none;
#X text 820 272 1st;
#X text 820 287 2nd;
#X text 820 302 3rd;
#X text 768 366 outlet #;
#X obj 470 411 recorder_jdn 2;
#X obj 472 442 recorder_jdn 3;
#X msg 496 259 recStop bang;
#X msg 508 191 recStart bang;
#X obj 647 135 bng 15 250 50 0 empty empty empty 17 7 0 10 -262144
-1 -1;
#X obj 509 53 t b b;
#X msg 693 443 1 2 3;
#X obj 711 483 else/rotate;
#X obj 730 405 t b f;
#X obj 767 450 * -1;
#X obj 791 400 s curRecorder;
#X obj 354 680 r recLength;
#X obj 484 676 r curRecorder;
#X obj 340 764 sequenced_player_jdn;
#X obj 572 717 bng 15 250 50 0 empty empty empty 17 7 0 10 -262144
-1 -1;
#X obj 638 771 sequenced_player_jdn;
#X obj 626 651 r recLength;
#X obj 772 671 r curRecorder;
#X obj 885 711 bng 15 250 50 0 empty empty empty 17 7 0 10 -262144
-1 -1;
#X obj 786 750 nbx 5 14 -1e+37 1e+37 0 0 empty empty empty 0 -8 0 10
-262144 -1 -1 2 256;
#X obj 492 728 nbx 5 14 -1e+37 1e+37 0 0 empty empty empty 0 -8 0 10
-262144 -1 -1 1 256;
#X obj 934 775 sequenced_player_jdn;
#X obj 938 679 r recLength;
#X obj 1068 675 r curRecorder;
#X obj 1181 715 bng 15 250 50 0 empty empty empty 17 7 0 10 -262144
-1 -1;
#X obj 1082 754 nbx 5 14 -1e+37 1e+37 0 0 empty empty empty 0 -8 0
10 -262144 -1 -1 3 256;
#X obj 609 576 else/coin 10 100;
#X obj 737 605 else/coin 10 90;
#X obj 830 630 else/coin 10 80;
#X obj 675 720 * 1.5;
#X obj 964 734 * 2;
#X msg 301 1115 echoAmp 1 0.8 0.6 0.5 \, echoWet 0.1 0.5 0.7 1;
#X obj 556 1059 loadbang;
#X obj 555 1081 bng 15 250 50 0 empty empty empty 17 7 0 10 -262144
-1 -1;
#X obj 687 684 nbx 5 14 0.1 5 0 1 empty empty empty 0 -8 0 10 -262144
-1 -1 1.5 256;
#X obj 977 705 nbx 5 14 0.1 5 0 1 empty empty empty 0 -8 0 10 -262144
-1 -1 2 256;
#X msg 616 1115 echoAmp 0.1 0.6 0.4 0.9 \, echoWet 0.5 0.8 0.2 0.6
;
#X msg 947 1114 echoAmp 0.1 0.4 0.8 0.6 \, echoWet 0.9 0.5 0.7 0.15
;
#X obj 264 87 switch~;
#X obj 265 64 tgl 15 1 empty empty empty 17 7 0 10 -262144 -1 -1 1
1;
#X obj 266 42 inlet;
#X obj 824 116 mic_controller_jdn 37 3;
#X obj 700 1158 +~;
#X obj 935 1154 +~;
#X obj 937 1200 outlet~;
#X obj 688 1200 outlet~;
#X obj 473 471 recorder_jdn 4;
#X obj 472 502 recorder_jdn 5;
#X obj 557 346 else/router 6;
#X obj 748 712 expr (($i1+5)%5)+1;
#X obj 1044 716 expr (($i1+6)%5)+1;
#X obj 658 179 expr 1+(($i2)%5);
#X text 820 317 4nd;
#X text 820 332 5rd;
#X connect 0 0 2 0;
#X connect 1 0 3 0;
#X connect 2 0 1 0;
#X connect 2 0 6 0;
#X connect 2 1 1 1;
#X connect 2 1 7 0;
#X connect 3 0 8 0;
#X connect 4 0 9 0;
#X connect 9 0 11 0;
#X connect 9 0 23 0;
#X connect 9 0 24 0;
#X connect 9 0 69 0;
#X connect 9 0 70 0;
#X connect 10 0 0 0;
#X connect 12 0 28 0;
#X connect 13 0 25 0;
#X connect 14 0 15 0;
#X connect 15 0 71 0;
#X connect 16 0 17 0;
#X connect 17 0 31 0;
#X connect 17 0 33 0;
#X connect 17 0 71 1;
#X connect 17 0 74 1;
#X connect 25 0 71 0;
#X connect 26 0 71 0;
#X connect 27 0 49 0;
#X connect 27 0 74 0;
#X connect 28 0 26 0;
#X connect 28 1 27 0;
#X connect 29 0 30 0;
#X connect 31 0 29 0;
#X connect 31 1 32 0;
#X connect 32 0 30 1;
#X connect 34 0 36 1;
#X connect 35 0 36 2;
#X connect 35 0 43 0;
#X connect 36 0 65 0;
#X connect 36 1 66 0;
#X connect 37 0 36 3;
#X connect 38 0 65 0;
#X connect 38 1 66 0;
#X connect 39 0 52 0;
#X connect 40 0 72 0;
#X connect 41 0 38 3;
#X connect 44 0 65 0;
#X connect 44 1 66 0;
#X connect 45 0 53 0;
#X connect 46 0 73 0;
#X connect 47 0 44 3;
#X connect 49 0 37 0;
#X connect 49 1 50 0;
#X connect 50 0 41 0;
#X connect 50 1 51 0;
#X connect 51 0 47 0;
#X connect 52 0 38 1;
#X connect 53 0 44 1;
#X connect 54 0 36 0;
#X connect 55 0 56 0;
#X connect 56 0 54 0;
#X connect 56 0 59 0;
#X connect 56 0 60 0;
#X connect 57 0 52 1;
#X connect 58 0 53 1;
#X connect 59 0 38 0;
#X connect 60 0 44 0;
#X connect 62 0 61 0;
#X connect 63 0 62 0;
#X connect 64 0 4 1;
#X connect 64 1 10 0;
#X connect 65 0 68 0;
#X connect 66 0 67 0;
#X connect 71 0 11 1;
#X connect 71 1 23 1;
#X connect 71 2 24 1;
#X connect 71 3 69 1;
#X connect 71 4 70 1;
#X connect 72 0 42 0;
#X connect 72 0 38 2;
#X connect 73 0 48 0;
#X connect 73 0 44 2;
#X connect 74 0 16 0;
