#N canvas 745 146 1024 672 10;
#X obj 78 451 dorien_sketch;
#X obj 173 451 ripples_sketch_amp;
#X obj 272 367 hradio 15 1 0 8 empty empty empty 0 -8 0 10 -262144
-1 -1 3;
#X obj 78 428 expr $i1==0;
#X obj 173 429 expr $i1==1;
#X obj 261 8 notein 1;
#X obj 261 40 pack 0 0;
#X obj 191 125 >;
#X obj 233 124 >;
#X obj 273 124 >;
#X obj 308 125 >;
#X msg 191 167 0;
#X msg 234 166 1;
#X msg 273 168 2;
#X msg 311 168 3;
#X obj 663 537 noteout;
#X obj 660 497 unpack f f f;
#X msg 627 373 1 100 1;
#X msg 693 373 3 100 1;
#X msg 759 373 5 100 1;
#X msg 823 374 7 100 1;
#X obj 580 233 t f b;
#X obj 311 429 expr $i1==2;
#X obj 597 67 loadbang;
#X obj 597 101 delay 100;
#X msg 595 138 \; pd dsp 1;
#X obj 512 138 delay 100;
#X obj 48 235 ambient_playa_jdn;
#X obj 46 198 bng 15 250 50 0 empty empty empty 17 7 0 10 -262144 -1
-1;
#X obj 154 599 dac~;
#X obj 55 287 else/gain2~;
#X obj 124 278 loadbang;
#X obj 32 546 +~;
#X obj 66 544 +~;
#X msg 123 309 0.66;
#X obj 403 454 ice_sketch;
#X obj 403 430 expr $i1==3;
#X obj 499 426 expr $i1==4;
#X obj 501 453 conform_sketch;
#X msg 457 238 1;
#X obj 628 321 route 0 1 2 3 4 5 6 7;
#X obj 225 82 route 36 37 38 39 40 41 42 43;
#X obj 349 125 >;
#X obj 391 124 >;
#X obj 431 124 >;
#X obj 466 125 >;
#X msg 349 167 4;
#X msg 392 166 5;
#X msg 431 168 6;
#X msg 469 168 7;
#X msg 652 285 1 0 1 \, 3 0 1 \, 5 0 1 \, 7 0 1 \, 9 0 1 \, 11 0 1
\, 13 0 1 \, 15 0 1;
#X msg 650 410 9 100 1;
#X msg 710 411 11 100 1;
#X msg 778 411 13 100 1;
#X msg 844 409 15 100 1;
#X connect 0 0 29 0;
#X connect 0 1 29 1;
#X connect 1 0 29 0;
#X connect 1 1 29 1;
#X connect 2 0 3 0;
#X connect 2 0 4 0;
#X connect 2 0 21 0;
#X connect 2 0 22 0;
#X connect 2 0 36 0;
#X connect 2 0 37 0;
#X connect 3 0 0 0;
#X connect 4 0 1 0;
#X connect 5 0 6 0;
#X connect 5 1 6 1;
#X connect 6 0 41 0;
#X connect 7 0 11 0;
#X connect 8 0 12 0;
#X connect 9 0 13 0;
#X connect 10 0 14 0;
#X connect 11 0 2 0;
#X connect 12 0 2 0;
#X connect 13 0 2 0;
#X connect 14 0 2 0;
#X connect 16 0 15 0;
#X connect 16 1 15 1;
#X connect 16 2 15 2;
#X connect 17 0 16 0;
#X connect 18 0 16 0;
#X connect 19 0 16 0;
#X connect 20 0 16 0;
#X connect 21 0 40 0;
#X connect 21 1 50 0;
#X connect 23 0 24 0;
#X connect 24 0 25 0;
#X connect 24 0 26 0;
#X connect 26 0 39 0;
#X connect 27 0 30 0;
#X connect 27 1 30 1;
#X connect 28 0 27 0;
#X connect 30 0 32 0;
#X connect 30 1 33 0;
#X connect 31 0 34 0;
#X connect 32 0 29 0;
#X connect 33 0 29 1;
#X connect 34 0 30 2;
#X connect 35 0 29 0;
#X connect 35 1 29 1;
#X connect 36 0 35 0;
#X connect 37 0 38 0;
#X connect 38 0 29 0;
#X connect 38 1 29 1;
#X connect 39 0 2 0;
#X connect 40 0 17 0;
#X connect 40 1 18 0;
#X connect 40 2 19 0;
#X connect 40 3 20 0;
#X connect 40 4 51 0;
#X connect 40 5 52 0;
#X connect 40 6 53 0;
#X connect 40 7 54 0;
#X connect 41 0 7 0;
#X connect 41 1 8 0;
#X connect 41 2 9 0;
#X connect 41 3 10 0;
#X connect 41 4 42 0;
#X connect 41 5 43 0;
#X connect 41 6 44 0;
#X connect 41 7 45 0;
#X connect 42 0 46 0;
#X connect 43 0 47 0;
#X connect 44 0 48 0;
#X connect 45 0 49 0;
#X connect 46 0 2 0;
#X connect 47 0 2 0;
#X connect 48 0 2 0;
#X connect 49 0 2 0;
#X connect 50 0 16 0;
#X connect 51 0 16 0;
#X connect 52 0 16 0;
#X connect 53 0 16 0;
#X connect 54 0 16 0;
