#N canvas 1832 1218 1645 696 10;
#X obj 378 431 dac~;
#X obj 258 123 snapshot~;
#X msg 422 39 bang;
#X msg 369 103 bang;
#X obj 286 185 + 1000;
#X obj 414 63 metro 20;
#X obj 256 154 * 800;
#X obj 374 148 phasor~ 66;
#X obj 515 139 phasor~ 88;
#X obj 463 160 * -1;
#X obj 268 67 osc~ 0.1;
#N canvas 598 409 1569 821 phasor 0;
#X obj 98 67 inlet~;
#X obj 213 65 inlet~;
#X obj 231 166 rpole~;
#X obj 231 141 rzero_rev~;
#X obj 231 215 rpole~;
#X obj 231 190 rzero_rev~;
#X obj 231 263 rpole~;
#X obj 231 238 rzero_rev~;
#X obj 231 312 rpole~;
#X obj 231 287 rzero_rev~;
#X obj 83 360 rpole~;
#X obj 83 335 rzero_rev~;
#X obj 83 409 rpole~;
#X obj 83 384 rzero_rev~;
#X obj 83 457 rpole~;
#X obj 83 432 rzero_rev~;
#X obj 83 506 rpole~;
#X obj 83 481 rzero_rev~;
#X obj 153 572 outlet~;
#X obj 214 572 outlet~;
#X obj 386 258 phasor~ 0.4;
#X obj 238 484 expr~ 1 - 0.03 - 2*abs($v1-0.5)*abs($v1-0.5);
#X obj 386 290 expr~ 1 - 0.03 - 2*abs($v1-0.5)*abs($v1-0.5);
#X obj 238 452 phasor~ 0.3;
#X connect 0 0 11 0;
#X connect 1 0 3 0;
#X connect 2 0 5 0;
#X connect 3 0 2 0;
#X connect 4 0 7 0;
#X connect 5 0 4 0;
#X connect 6 0 9 0;
#X connect 7 0 6 0;
#X connect 8 0 19 0;
#X connect 9 0 8 0;
#X connect 10 0 13 0;
#X connect 11 0 10 0;
#X connect 12 0 15 0;
#X connect 13 0 12 0;
#X connect 14 0 17 0;
#X connect 15 0 14 0;
#X connect 16 0 18 0;
#X connect 17 0 16 0;
#X connect 20 0 22 0;
#X connect 21 0 11 1;
#X connect 21 0 10 1;
#X connect 21 0 13 1;
#X connect 21 0 12 1;
#X connect 21 0 15 1;
#X connect 21 0 14 1;
#X connect 21 0 17 1;
#X connect 21 0 16 1;
#X connect 22 0 3 1;
#X connect 22 0 2 1;
#X connect 22 0 5 1;
#X connect 22 0 4 1;
#X connect 22 0 7 1;
#X connect 22 0 6 1;
#X connect 22 0 9 1;
#X connect 22 0 8 1;
#X connect 23 0 21 0;
#X restore 287 364 pd phasor;
#X obj 328 262 bp~ 1000 10;
#X obj 510 256 bp~ 1000 15;
#X obj 463 186 + 500;
#X msg 679 91 1;
#X msg 665 125 0;
#X msg 642 55 open audio/watertap.wav;
#X obj 599 184 *~ 0.5;
#X obj 649 207 *~ 0.66;
#X obj 616 150 readsf~ 2;
#X obj 761 216 delay 1500;
#X obj 752 180 delay 9000;
#X obj 787 129 soundfiler;
#N canvas 0 23 450 300 (subpatch) 0;
#X array array1 77971 float 0;
#X coords 0 1 77970 -1 300 100 1;
#X restore 709 266 graph;
#N canvas 0 22 450 300 (subpatch) 0;
#X array array2 77971 float 0;
#X coords 0 1 77970 -1 300 100 1;
#X restore 709 384 graph;
#X msg 776 104 read audio/watertap.wav array1 array2;
#X obj 846 206 tabread4~ array1;
#X obj 877 175 *~ 77000;
#X obj 856 147 phasor~ 1;
#X obj 989 176 *~ 77000;
#X obj 959 207 tabread4~ array2;
#X obj 969 149 phasor~ 0.7;
#X obj 550 318 adc~ 1;
#X obj 543 433 delread4~ \$0-delay;
#X obj 545 407 delwrite~ \$0-delay 3000;
#X obj 547 370 rev3~ 90 95 5000 20;
#X obj 232 326 rev3~ 110 97 3000 20;
#X obj 46 50 ctl_input_jdn 12 80 100;
#X obj 49 145 ctl_input_jdn 14 66 132;
#X obj 48 176 ctl_input_jdn 14 88 44;
#X obj 305 219 clip 20 10000;
#X obj 458 216 clip 20 10000;
#X obj 48 85 ctl_input_jdn 13 1 20;
#X floatatom 107 234 5 0 0 0 - - -;
#X floatatom 103 268 5 0 0 0 - - -;
#X floatatom 113 310 5 0 0 0 - - -;
#X floatatom 108 378 5 0 0 0 - - -;
#X connect 1 0 6 0;
#X connect 2 0 5 0;
#X connect 3 0 1 0;
#X connect 4 0 41 0;
#X connect 5 0 3 0;
#X connect 6 0 4 0;
#X connect 6 0 9 0;
#X connect 7 0 12 0;
#X connect 8 0 13 0;
#X connect 9 0 14 0;
#X connect 10 0 1 0;
#X connect 11 0 0 0;
#X connect 11 1 0 1;
#X connect 12 0 0 0;
#X connect 12 0 0 1;
#X connect 12 0 37 0;
#X connect 13 0 0 1;
#X connect 13 0 37 1;
#X connect 14 0 42 0;
#X connect 15 0 20 0;
#X connect 16 0 20 0;
#X connect 17 0 20 0;
#X connect 18 0 37 0;
#X connect 19 0 37 1;
#X connect 20 0 18 0;
#X connect 20 1 19 0;
#X connect 20 2 21 0;
#X connect 20 2 22 0;
#X connect 21 0 17 0;
#X connect 22 0 15 0;
#X connect 26 0 23 0;
#X connect 27 0 18 0;
#X connect 28 0 27 0;
#X connect 29 0 28 0;
#X connect 30 0 31 0;
#X connect 31 0 19 0;
#X connect 32 0 30 0;
#X connect 33 0 36 0;
#X connect 34 0 12 0;
#X connect 36 0 35 0;
#X connect 37 0 11 0;
#X connect 37 1 11 1;
#X connect 41 0 12 1;
#X connect 42 0 13 1;
#X connect 44 0 37 3;
#X connect 45 0 12 2;
#X connect 45 0 13 2;
#X connect 46 0 7 0;
#X connect 47 0 8 0;
