#N canvas 32 56 1331 672 10;
#X obj 146 572 dorien_sketch;
#X obj 272 367 hradio 15 1 0 8 empty empty empty 0 -8 0 10 #fcfcfc
#000000 #000000 0;
#X obj 146 549 expr $i1==0;
#X obj 241 550 expr $i1==1;
#X obj 261 8 notein 1;
#X obj 261 40 pack 0 0;
#X obj 191 125 >;
#X obj 233 124 >;
#X obj 273 124 >;
#X obj 308 125 >;
#X msg 191 167 0;
#X msg 234 166 1;
#X msg 311 168 3;
#X obj 663 537 noteout;
#X obj 660 497 unpack f f f;
#X msg 627 373 1 100 1;
#X msg 693 373 3 100 1;
#X msg 759 373 5 100 1;
#X msg 823 374 7 100 1;
#X obj 576 241 t f b;
#X obj 379 550 expr $i1==2;
#X obj 597 67 loadbang;
#X obj 597 101 delay 100;
#X msg 595 138 \; pd dsp 1;
#X obj 512 138 delay 100;
#X obj 48 235 ambient_playa_jdn;
#X obj 46 198 bng 15 250 50 0 empty empty empty 17 7 0 10 #fcfcfc #000000
#000000;
#X obj 102 627 dac~;
#X obj 55 287 else/gain2~ 1 0 20 0 0.7;
#X obj 124 278 loadbang;
#X obj 32 546 +~;
#X obj 66 544 +~;
#X obj 471 575 ice_sketch;
#X obj 471 551 expr $i1==3;
#X obj 148 481 expr $i1==4;
#X obj 150 508 conform_sketch;
#X msg 457 238 1;
#X obj 628 321 route 0 1 2 3 4 5 6 7;
#X obj 225 82 route 36 37 38 39 40 41 42 43;
#X obj 349 125 >;
#X obj 391 124 >;
#X obj 431 124 >;
#X obj 466 125 >;
#X msg 349 167 4;
#X msg 652 285 1 0 1 \, 3 0 1 \, 5 0 1 \, 7 0 1 \, 9 0 1 \, 11 0 1
\, 13 0 1 \, 15 0 1;
#X msg 650 410 9 100 1;
#X msg 710 411 11 100 1;
#X msg 778 411 13 100 1;
#X msg 844 409 15 100 1;
#X obj 252 478 expr $i1==5;
#X obj 365 478 expr $i1==6;
#X obj 484 478 expr $i1==7;
#X msg 273 168 2;
#X msg 392 166 5;
#X msg 431 168 6;
#X msg 469 168 7;
#X obj 841 76 bng 15 250 50 0 empty empty empty 17 7 0 10 #dcdcdc #000000
#000000;
#X msg 722 85 start;
#X msg 770 85 stop;
#X msg 802 50 loop \$1;
#X obj 802 30 tgl 15 0 empty empty empty 17 7 0 10 #dcdcdc #000000
#000000 0 1;
#X obj 818 76 tgl 15 0 empty empty empty 17 7 0 10 #dcdcdc #000000
#000000 0 1;
#X msg 874 77 open bagal.aif;
#X msg 884 100 open;
#X msg 924 104 set dholak.aif;
#X text 652 135 comment;
#X obj 809 211 send~ g_testTone;
#X obj 813 175 *~ 2;
#X obj 817 134 else/play.file~ test1.wav 0 1;
#X msg 123 309 set 0.7;
#X obj 241 572 ripples_sketch_amp 1.5 2;
#X connect 0 0 27 0;
#X connect 0 1 27 1;
#X connect 1 0 2 0;
#X connect 1 0 19 0;
#X connect 1 0 20 0;
#X connect 1 0 33 0;
#X connect 1 0 34 0;
#X connect 1 0 49 0;
#X connect 1 0 50 0;
#X connect 1 0 51 0;
#X connect 1 0 3 0;
#X connect 2 0 0 0;
#X connect 3 0 70 0;
#X connect 4 0 5 0;
#X connect 4 1 5 1;
#X connect 5 0 38 0;
#X connect 6 0 10 0;
#X connect 7 0 11 0;
#X connect 8 0 52 0;
#X connect 9 0 12 0;
#X connect 10 0 1 0;
#X connect 11 0 1 0;
#X connect 12 0 1 0;
#X connect 14 0 13 0;
#X connect 14 1 13 1;
#X connect 14 2 13 2;
#X connect 15 0 14 0;
#X connect 16 0 14 0;
#X connect 17 0 14 0;
#X connect 18 0 14 0;
#X connect 19 0 37 0;
#X connect 19 1 44 0;
#X connect 21 0 22 0;
#X connect 22 0 23 0;
#X connect 22 0 24 0;
#X connect 24 0 36 0;
#X connect 25 0 28 0;
#X connect 25 1 28 1;
#X connect 26 0 25 0;
#X connect 28 0 30 0;
#X connect 28 1 31 0;
#X connect 29 0 69 0;
#X connect 30 0 27 0;
#X connect 31 0 27 1;
#X connect 32 0 27 0;
#X connect 32 1 27 1;
#X connect 33 0 32 0;
#X connect 34 0 35 0;
#X connect 35 0 27 0;
#X connect 35 1 27 1;
#X connect 36 0 1 0;
#X connect 37 0 15 0;
#X connect 37 1 16 0;
#X connect 37 2 17 0;
#X connect 37 3 18 0;
#X connect 37 4 45 0;
#X connect 37 5 46 0;
#X connect 37 6 47 0;
#X connect 37 7 48 0;
#X connect 38 0 6 0;
#X connect 38 1 7 0;
#X connect 38 2 8 0;
#X connect 38 3 9 0;
#X connect 38 4 39 0;
#X connect 38 5 40 0;
#X connect 38 6 41 0;
#X connect 38 7 42 0;
#X connect 39 0 43 0;
#X connect 40 0 53 0;
#X connect 41 0 54 0;
#X connect 42 0 55 0;
#X connect 43 0 1 0;
#X connect 44 0 14 0;
#X connect 45 0 14 0;
#X connect 46 0 14 0;
#X connect 47 0 14 0;
#X connect 48 0 14 0;
#X connect 52 0 1 0;
#X connect 53 0 1 0;
#X connect 54 0 1 0;
#X connect 55 0 1 0;
#X connect 56 0 68 0;
#X connect 57 0 68 0;
#X connect 58 0 68 0;
#X connect 59 0 68 0;
#X connect 60 0 59 0;
#X connect 61 0 68 0;
#X connect 62 0 68 0;
#X connect 63 0 68 0;
#X connect 64 0 68 0;
#X connect 67 0 66 0;
#X connect 68 0 67 0;
#X connect 69 0 28 0;
#X connect 70 0 27 0;
#X connect 70 1 27 1;
