#N canvas 242 179 996 621 10;
#X text 542 284 carrier;
#N canvas 1194 265 780 990 ampl_convo_else~ 0;
#X obj 203 865 outlet~;
#X obj 218 212 rfft~;
#X obj 318 710 block~;
#X msg 318 677 set \$1 4;
#X obj 305 639 r \$0-size;
#X obj 218 165 else/hann~;
#X obj 203 820 *~;
#X obj 305 748 expr 1 / ($f1 * 1.5);
#X obj 479 681 loadbang;
#X obj 479 743 s \$0-size;
#X msg 479 710 2048;
#X obj 188 273 *~;
#X obj 259 280 *~;
#X obj 209 314 +~;
#X obj 205 349 sqrt~;
#X obj 208 377 clip~ -0.9 0.9;
#X obj 351 223 rfft~;
#X obj 321 284 *~;
#X obj 392 291 *~;
#X obj 342 325 +~;
#X obj 344 350 sqrt~;
#X obj 340 376 clip~ -0.9 0.9;
#X obj 59 509 rfft~;
#X obj 57 445 else/hann~;
#X text 234 405 fftamp1;
#X text 375 402 fftamp2;
#X obj 287 78 inlet~ rhythm;
#X obj 83 75 inlet~ noise;
#X obj 175 514 rfft~;
#X obj 49 573 *~;
#X obj 100 576 *~;
#X obj 55 637 rifft~;
#X obj 55 683 else/hann~;
#X obj 168 574 *~;
#X obj 219 577 *~;
#X obj 174 638 rifft~;
#X obj 121 752 +~;
#X text 69 36 thanks to the msp convolution workshop old example. :)
;
#X obj 333 119 shift_hann_jdn;
#X obj 150 445 shift_hann_jdn;
#X obj 174 688 shift_hann_jdn;
#X connect 1 0 11 0;
#X connect 1 0 11 1;
#X connect 1 1 12 0;
#X connect 1 1 12 1;
#X connect 3 0 2 0;
#X connect 4 0 3 0;
#X connect 4 0 7 0;
#X connect 5 0 1 0;
#X connect 6 0 0 0;
#X connect 7 0 6 1;
#X connect 8 0 10 0;
#X connect 10 0 9 0;
#X connect 11 0 13 0;
#X connect 12 0 13 1;
#X connect 13 0 14 0;
#X connect 14 0 15 0;
#X connect 15 0 30 1;
#X connect 15 0 29 1;
#X connect 16 0 17 0;
#X connect 16 0 17 1;
#X connect 16 1 18 0;
#X connect 16 1 18 1;
#X connect 17 0 19 0;
#X connect 18 0 19 1;
#X connect 19 0 20 0;
#X connect 20 0 21 0;
#X connect 21 0 33 1;
#X connect 21 0 34 1;
#X connect 22 0 29 0;
#X connect 22 1 30 0;
#X connect 23 0 22 0;
#X connect 26 0 5 0;
#X connect 26 0 38 0;
#X connect 27 0 23 0;
#X connect 27 0 39 0;
#X connect 28 0 33 0;
#X connect 28 1 34 0;
#X connect 29 0 31 0;
#X connect 30 0 31 1;
#X connect 31 0 32 0;
#X connect 32 0 36 0;
#X connect 33 0 35 0;
#X connect 34 0 35 1;
#X connect 35 0 40 0;
#X connect 36 0 6 0;
#X connect 38 0 16 0;
#X connect 39 0 28 0;
#X connect 40 0 36 1;
#X restore 503 416 pd ampl_convo_else~;
#N canvas 1194 265 780 990 ampl_convo_else~ 0;
#X obj 203 865 outlet~;
#X obj 218 212 rfft~;
#X obj 318 710 block~;
#X msg 318 677 set \$1 4;
#X obj 305 639 r \$0-size;
#X obj 218 165 else/hann~;
#X obj 203 820 *~;
#X obj 305 748 expr 1 / ($f1 * 1.5);
#X obj 479 681 loadbang;
#X obj 479 743 s \$0-size;
#X msg 479 710 2048;
#X obj 188 273 *~;
#X obj 259 280 *~;
#X obj 209 314 +~;
#X obj 205 349 sqrt~;
#X obj 208 377 clip~ -0.9 0.9;
#X obj 351 223 rfft~;
#X obj 321 284 *~;
#X obj 392 291 *~;
#X obj 342 325 +~;
#X obj 344 350 sqrt~;
#X obj 340 376 clip~ -0.9 0.9;
#X obj 59 509 rfft~;
#X obj 57 445 else/hann~;
#X text 234 405 fftamp1;
#X text 375 402 fftamp2;
#X obj 287 78 inlet~ rhythm;
#X obj 83 75 inlet~ noise;
#X obj 175 514 rfft~;
#X obj 49 573 *~;
#X obj 100 576 *~;
#X obj 55 637 rifft~;
#X obj 55 683 else/hann~;
#X obj 168 574 *~;
#X obj 219 577 *~;
#X obj 174 638 rifft~;
#X obj 121 752 +~;
#X text 69 36 thanks to the msp convolution workshop old example. :)
;
#X obj 333 119 shift_hann_jdn;
#X obj 150 445 shift_hann_jdn;
#X obj 174 688 shift_hann_jdn;
#X connect 1 0 11 0;
#X connect 1 0 11 1;
#X connect 1 1 12 0;
#X connect 1 1 12 1;
#X connect 3 0 2 0;
#X connect 4 0 3 0;
#X connect 4 0 7 0;
#X connect 5 0 1 0;
#X connect 6 0 0 0;
#X connect 7 0 6 1;
#X connect 8 0 10 0;
#X connect 10 0 9 0;
#X connect 11 0 13 0;
#X connect 12 0 13 1;
#X connect 13 0 14 0;
#X connect 14 0 15 0;
#X connect 15 0 30 1;
#X connect 15 0 29 1;
#X connect 16 0 17 0;
#X connect 16 0 17 1;
#X connect 16 1 18 0;
#X connect 16 1 18 1;
#X connect 17 0 19 0;
#X connect 18 0 19 1;
#X connect 19 0 20 0;
#X connect 20 0 21 0;
#X connect 21 0 33 1;
#X connect 21 0 34 1;
#X connect 22 0 29 0;
#X connect 22 1 30 0;
#X connect 23 0 22 0;
#X connect 26 0 5 0;
#X connect 26 0 38 0;
#X connect 27 0 23 0;
#X connect 27 0 39 0;
#X connect 28 0 33 0;
#X connect 28 1 34 0;
#X connect 29 0 31 0;
#X connect 30 0 31 1;
#X connect 31 0 32 0;
#X connect 32 0 36 0;
#X connect 33 0 35 0;
#X connect 34 0 35 1;
#X connect 35 0 40 0;
#X connect 36 0 6 0;
#X connect 38 0 16 0;
#X connect 39 0 28 0;
#X connect 40 0 36 1;
#X restore 649 425 pd ampl_convo_else~;
#N canvas 1111 570 838 728 select_file 0;
#X msg 135 221 seek \$1;
#X obj 135 194 nbx 3 14 -1e+37 1e+37 0 0 empty empty empty 0 -8 0 10
-228856 -1 -1 6 256;
#X obj 135 118 bng 18 250 50 0 empty empty empty 17 7 0 10 -228856
-1 -1;
#X msg 96 220 next;
#X obj 222 145 nbx 4 14 -1e+37 1e+37 0 0 empty empty empty 0 -8 0 10
-228856 -1 -1 6 256;
#X obj 135 168 else/rand.i 1 1;
#X obj 219 223 else/initmess n \, dir;
#X text 271 143 n;
#X msg 133 315 \$2/\$1;
#X obj 133 286 pack s s;
#X obj 134 353 symbol;
#X obj 134 392 outlet;
#X obj 139 67 inlet;
#X obj 135 253 else/dir audio/carriers;
#X obj 229 313 print carrier:;
#X connect 0 0 13 0;
#X connect 1 0 0 0;
#X connect 2 0 5 0;
#X connect 3 0 13 0;
#X connect 4 0 5 2;
#X connect 5 0 1 0;
#X connect 6 0 13 0;
#X connect 8 0 10 0;
#X connect 9 0 8 0;
#X connect 10 0 11 0;
#X connect 12 0 2 0;
#X connect 13 0 9 0;
#X connect 13 0 14 0;
#X connect 13 1 9 1;
#X connect 13 2 4 0;
#X coords 0 -1 1 1 60 40 1 100 100;
#X restore 458 191 pd select_file;
#X obj 653 362 +~;
#N canvas 887 543 1011 805 echoRun 0;
#N canvas 0 23 450 278 (subpatch) 0;
#X array \$0-echoAmp 4 float 3;
#A 0 1 0.1 0.2 0.3;
#X coords 0 1 4 0 200 80 1 0 0;
#X restore 100 120 graph;
#N canvas 0 23 450 278 (subpatch) 0;
#X array \$0-echoWet 4 float 3;
#A 0 0.1 0.2 0.3 0.4;
#X coords 0 1 4 -1 200 80 1 0 0;
#X restore 100 215 graph;
#X obj 476 44 bng 15 250 50 0 empty empty empty 17 7 0 10 -262144 -1
-1;
#X obj 447 270 hradio 15 1 0 4 empty empty empty 0 -8 0 10 -261234
-204786 -1 0;
#X obj 470 133 metro 300;
#X obj 522 86 t b f;
#X obj 461 206 expr ($i2+1)%($i3+1);
#X obj 506 315 select 0;
#X obj 391 131 bng 15 250 50 0 empty empty empty 17 7 0 10 -262144
-1 -1;
#X obj 366 97 loadbang;
#X msg 588 350 stop;
#X obj 413 450 outlet;
#X obj 510 452 outlet;
#X obj 590 16 inlet start;
#X obj 393 170 nbx 5 14 -1e+37 1e+37 0 1 empty empty empty 0 -8 0 10
-262144 -1 -1 3 256;
#X obj 638 454 outlet;
#X obj 625 145 bng 15 250 50 0 empty empty empty 17 7 0 10 -262144
-1 -1;
#X obj 741 146 delay;
#X msg 844 102 \$1;
#X obj 741 175 delay;
#X obj 741 207 delay;
#X obj 741 236 delay;
#X obj 815 150 bng 15 250 50 0 empty empty empty 17 7 0 10 -262144
-1 -1;
#X obj 815 186 bng 15 250 50 0 empty empty empty 17 7 0 10 -262144
-1 -1;
#X obj 818 221 bng 15 250 50 0 empty empty empty 17 7 0 10 -262144
-1 -1;
#X obj 815 253 bng 15 250 50 0 empty empty empty 17 7 0 10 -262144
-1 -1;
#X msg 751 93 \$1;
#X obj 105 301 hsl 190 15 0 1 0 0 empty empty empty -2 -8 0 10 -262144
-1 -1 0 1;
#X obj 338 331 expr $f1/($f2+1);
#X obj 427 364 tabread \$0-echoAmp;
#X obj 457 395 tabread \$0-echoWet;
#X obj 909 65 * 1;
#X obj 23 27 inlet vals;
#X obj 11 435 float \$0;
#X obj 28 477 list append;
#X obj 60 410 t b l;
#X obj 59 385 list;
#X msg 55 510 \; \$1-\$2 0 \$3 \$4 \$5 \$6;
#X connect 2 0 4 0;
#X connect 3 0 6 1;
#X connect 3 0 7 0;
#X connect 3 0 28 0;
#X connect 3 0 29 0;
#X connect 3 0 30 0;
#X connect 5 0 4 0;
#X connect 5 1 4 1;
#X connect 6 0 3 0;
#X connect 7 0 10 0;
#X connect 8 0 14 0;
#X connect 9 0 8 0;
#X connect 10 0 4 0;
#X connect 13 0 5 0;
#X connect 13 0 26 0;
#X connect 13 0 31 0;
#X connect 14 0 6 2;
#X connect 14 0 7 1;
#X connect 14 0 28 1;
#X connect 16 0 15 0;
#X connect 16 0 6 0;
#X connect 17 0 19 0;
#X connect 17 0 22 0;
#X connect 18 0 19 1;
#X connect 18 0 20 1;
#X connect 18 0 21 1;
#X connect 19 0 20 0;
#X connect 19 0 23 0;
#X connect 20 0 21 0;
#X connect 20 0 24 0;
#X connect 21 0 25 0;
#X connect 22 0 16 0;
#X connect 23 0 16 0;
#X connect 24 0 16 0;
#X connect 25 0 16 0;
#X connect 26 0 17 0;
#X connect 28 0 27 0;
#X connect 29 0 11 0;
#X connect 30 0 12 0;
#X connect 31 0 18 0;
#X connect 32 0 36 0;
#X connect 33 0 34 0;
#X connect 34 0 37 0;
#X connect 35 0 33 0;
#X connect 35 1 34 1;
#X connect 36 0 35 0;
#X coords 0 -1 1 1 200 220 1 100 100;
#X restore 112 107 pd echoRun;
#X obj 217 494 *~ 1;
#X obj 661 304 tabplay~ 1-memory;
#X obj 372 385 bng 15 250 50 0 empty empty empty 17 7 0 10 -262144
-1 -1;
#X obj 574 458 else/xfade~ 2;
#X obj 264 498 *~ 1;
#X obj 706 358 else/float2sig~ 20;
#X msg 716 252 set \$1-memory;
#X obj 489 125 loadbang;
#X obj 376 53 inlet recLength;
#X obj 552 59 inlet curRecorder;
#X obj 244 561 outlet~;
#X obj 321 567 outlet~;
#X obj 469 304 carrier_player;
#X obj 758 55 inlet;
#X obj 141 49 inlet seqSettings;
#X connect 1 0 9 2;
#X connect 2 0 9 3;
#X connect 3 0 18 0;
#X connect 4 0 1 1;
#X connect 4 0 2 1;
#X connect 4 0 9 0;
#X connect 4 0 9 1;
#X connect 5 0 6 1;
#X connect 5 0 10 1;
#X connect 5 1 11 0;
#X connect 5 2 8 0;
#X connect 6 0 16 0;
#X connect 7 0 4 0;
#X connect 8 0 7 0;
#X connect 9 0 6 0;
#X connect 9 1 10 0;
#X connect 10 0 17 0;
#X connect 11 0 9 4;
#X connect 12 0 7 0;
#X connect 13 0 3 0;
#X connect 14 0 5 1;
#X connect 15 0 12 0;
#X connect 18 0 1 0;
#X connect 18 1 2 0;
#X connect 19 0 3 0;
#X connect 20 0 5 0;
#X coords 0 -1 1 1 220 230 1 100 100;
