#N canvas 565 261 996 621 10;
#X text 352 284 carrier;
#X obj 653 362 +~;
#N canvas 218 119 1011 805 echoRun 0;
#N canvas 0 23 450 278 (subpatch) 0;
#X array \$0-echoAmp 4 float 3;
#A 0 1 0.8 0.6 0.5;
#X coords 0 1 4 0 200 80 1 0 0;
#X restore 100 120 graph;
#N canvas 0 23 450 278 (subpatch) 0;
#X array \$0-echoWet 4 float 3;
#A 0 0.3 0.7 0.9 1;
#X coords 0 1 4 -1 200 80 1 0 0;
#X restore 100 215 graph;
#X obj 447 270 hradio 15 1 0 5 empty empty empty 0 -8 0 10 #fcc4c4
#c4fcc4 #000000 0;
#X obj 391 131 bng 15 250 50 0 empty empty empty 17 7 0 10 #fcfcfc
#000000 #000000;
#X obj 366 97 loadbang;
#X obj 413 450 outlet;
#X obj 510 452 outlet;
#X obj 590 16 inlet start;
#X obj 393 170 nbx 5 14 -1e+37 1e+37 0 1 empty empty empty 0 -8 0 10
#fcfcfc #000000 #000000 3 256;
#X obj 638 454 outlet;
#X obj 651 165 bng 15 250 50 0 empty empty empty 17 7 0 10 #fcfcfc
#000000 #000000;
#X msg 832 116 \$1;
#X obj 741 175 delay;
#X obj 741 207 delay;
#X obj 740 237 delay;
#X obj 744 137 bng 15 250 50 0 empty empty empty 17 7 0 10 #fcfcfc
#000000 #000000;
#X obj 815 186 bng 15 250 50 0 empty empty empty 17 7 0 10 #fcfcfc
#000000 #000000;
#X obj 818 221 bng 15 250 50 0 empty empty empty 17 7 0 10 #fcfcfc
#000000 #000000;
#X obj 815 253 bng 15 250 50 0 empty empty empty 17 7 0 10 #fcfcfc
#000000 #000000;
#X obj 105 301 hsl 190 15 0 1 0 0 empty empty empty -2 -8 0 10 #fcfcfc
#000000 #000000 0 1;
#X obj 301 333 expr $f1/($f2+1);
#X obj 427 364 tabread \$0-echoAmp;
#X obj 457 395 tabread \$0-echoWet;
#X obj 909 65 * 1;
#X obj 23 27 inlet vals;
#X obj 11 435 float \$0;
#X obj 28 477 list append;
#X obj 60 410 t b l;
#X obj 59 385 list;
#X msg 55 510 \; \$1-\$2 0 \$3 \$4 \$5 \$6;
#X floatatom 550 241 5 0 0 0 - - - 0;
#X obj 651 232 bng 15 250 50 0 empty empty empty 17 7 0 10 #fcfcfc
#000000 #000000;
#X obj 622 69 t b b;
#X obj 461 206 expr ($i2+1)%($i3+3);
#X obj 739 285 delay;
#X obj 815 289 bng 15 250 50 0 empty empty empty 17 7 0 10 #fcfcfc
#000000 #000000;
#X connect 2 0 20 0;
#X connect 2 0 21 0;
#X connect 2 0 22 0;
#X connect 2 0 33 1;
#X connect 3 0 8 0;
#X connect 4 0 3 0;
#X connect 7 0 23 0;
#X connect 7 0 32 0;
#X connect 8 0 20 1;
#X connect 8 0 33 2;
#X connect 10 0 33 0;
#X connect 11 0 12 1;
#X connect 11 0 13 1;
#X connect 11 0 14 1;
#X connect 11 0 34 1;
#X connect 12 0 13 0;
#X connect 12 0 16 0;
#X connect 13 0 14 0;
#X connect 13 0 17 0;
#X connect 14 0 18 0;
#X connect 14 0 34 0;
#X connect 15 0 31 0;
#X connect 15 0 12 0;
#X connect 16 0 10 0;
#X connect 16 0 31 0;
#X connect 17 0 10 0;
#X connect 17 0 31 0;
#X connect 18 0 10 0;
#X connect 18 0 31 0;
#X connect 20 0 19 0;
#X connect 21 0 5 0;
#X connect 22 0 6 0;
#X connect 23 0 11 0;
#X connect 24 0 28 0;
#X connect 25 0 26 0;
#X connect 26 0 29 0;
#X connect 27 0 25 0;
#X connect 27 1 26 1;
#X connect 28 0 27 0;
#X connect 30 0 2 0;
#X connect 31 0 9 0;
#X connect 32 0 15 0;
#X connect 32 1 30 0;
#X connect 33 0 2 0;
#X connect 34 0 35 0;
#X connect 35 0 10 0;
#X coords 0 -1 1 1 200 220 1 100 100;
#X restore 112 107 pd echoRun;
#X obj 251 590 *~ 1;
#X obj 341 345 bng 15 250 50 0 empty empty empty 17 7 0 10 #fcfcfc
#000000 #000000;
#X obj 298 594 *~ 1;
#X obj 726 365 else/float2sig~ 20;
#X obj 757 85 loadbang;
#X obj 376 53 inlet recLength;
#X obj 552 59 inlet curRecorder;
#X obj 278 657 outlet~;
#X obj 355 663 outlet~;
#X obj 758 55 inlet;
#X obj 141 49 inlet seqSettings;
#X msg 426 259 set car\$1-L;
#X msg 535 259 set car\$1-R;
#X obj 491 201 nbx 3 14 -1e+37 1e+37 0 0 empty empty empty 0 -8 0 10
#dcdcdc #000000 #000000 0 256;
#X obj 491 175 else/rand.i 1 13;
#X obj 766 114 bng 15 250 50 0 empty empty empty 17 7 0 10 #fcfcfc
#000000 #000000;
#X obj 412 306 r~ car1-L;
#X obj 521 306 r~ car1-R;
#X msg 716 252 set \$1-memory-\$2;
#X obj 661 304 tabplay~ 1-memory-\$1;
#X obj 712 164 float \$1;
#X obj 649 193 pack 0 0;
#X floatatom 214 344 5 0 0 0 - - - 0;
#X obj 387 457 line;
#X floatatom 387 499 9 0 0 0 - - - 0;
#X obj 523 521 else/pitch.shift~ 120 70;
#X obj 505 389 else/highpass~ 120 0.1;
#X obj 439 555 else/ping.pong~ 300 0.7;
#X obj 430 115 * 0.75;
#X msg 387 430 0 \, \$3 \$2 5;
#X obj 390 403 pack f f f;
#X obj 373 160 / 1.25;
#X obj 859 57 inlet~;
#X obj 535 447 *~;
#X obj 605 431 osc~ \$2;
#X obj 545 482 *~;
#X obj 703 540 vline~;
#X floatatom 852 474 5 0 0 0 - - - 0;
#X obj 718 479 select 1;
#X obj 860 509 bng 15 250 50 0 empty empty empty 17 7 0 10 #fcfcfc
#000000 #000000;
#X obj 186 366 else/drunkard 200 -1200 120;
#X obj 721 454 > 100;
#X obj 847 104 *~ 2;
#X obj 710 426 else/lfnoise 40;
#X msg 710 508 1 \, 0 120;
#X connect 2 0 3 1;
#X connect 2 0 5 1;
#X connect 2 1 6 0;
#X connect 2 1 25 0;
#X connect 2 2 4 0;
#X connect 3 0 10 0;
#X connect 4 0 22 0;
#X connect 4 0 33 0;
#X connect 4 0 43 0;
#X connect 5 0 11 0;
#X connect 7 0 17 0;
#X connect 7 0 23 0;
#X connect 8 0 2 1;
#X connect 8 0 31 0;
#X connect 8 0 34 0;
#X connect 9 0 24 0;
#X connect 12 0 17 0;
#X connect 13 0 2 0;
#X connect 14 0 19 0;
#X connect 15 0 20 0;
#X connect 16 0 14 0;
#X connect 16 0 15 0;
#X connect 17 0 16 0;
#X connect 18 0 17 0;
#X connect 18 0 23 0;
#X connect 21 0 22 0;
#X connect 22 0 1 0;
#X connect 22 0 29 0;
#X connect 23 0 24 1;
#X connect 24 0 21 0;
#X connect 26 0 27 0;
#X connect 26 0 28 1;
#X connect 28 0 30 0;
#X connect 29 0 36 0;
#X connect 30 0 3 0;
#X connect 30 1 5 0;
#X connect 31 0 30 1;
#X connect 32 0 26 0;
#X connect 33 0 32 0;
#X connect 34 0 33 1;
#X connect 35 0 45 0;
#X connect 36 0 38 0;
#X connect 37 0 36 1;
#X connect 38 0 28 0;
#X connect 39 0 38 1;
#X connect 41 0 47 0;
#X connect 41 0 42 0;
#X connect 43 0 33 2;
#X connect 44 0 40 0;
#X connect 44 0 41 0;
#X connect 45 0 29 0;
#X connect 46 0 44 0;
#X connect 47 0 39 0;
#X coords 0 -1 1 1 220 230 1 100 100;
