#N canvas 242 179 996 621 10;
#X text 542 284 carrier;
#N canvas 1111 570 838 728 select_file 0;
#X msg 135 221 seek \$1;
#X obj 135 194 nbx 3 14 -1e+37 1e+37 0 0 empty empty empty 0 -8 0 10
#dcdcdc #000000 #000000 0 256;
#X obj 135 118 bng 18 250 50 0 empty empty empty 17 7 0 10 #dcdcdc
#000000 #000000;
#X msg 96 220 next;
#X obj 222 145 nbx 4 14 -1e+37 1e+37 0 0 empty empty empty 0 -8 0 10
#dcdcdc #000000 #000000 0 256;
#X obj 135 168 else/rand.i 1 1;
#X obj 219 223 else/initmess n \, dir;
#X text 271 143 n;
#X msg 133 315 \$2/\$1;
#X obj 133 286 pack s s;
#X obj 134 353 symbol;
#X obj 134 392 outlet;
#X obj 139 67 inlet;
#X obj 135 253 else/dir audio/carriers;
#X obj 229 313 print carrier:;
#X connect 0 0 13 0;
#X connect 1 0 0 0;
#X connect 2 0 5 0;
#X connect 3 0 13 0;
#X connect 4 0 5 2;
#X connect 5 0 1 0;
#X connect 6 0 13 0;
#X connect 8 0 10 0;
#X connect 9 0 8 0;
#X connect 10 0 11 0;
#X connect 12 0 2 0;
#X connect 13 0 9 0;
#X connect 13 0 14 0;
#X connect 13 1 9 1;
#X connect 13 2 4 0;
#X coords 0 -1 1 1 60 40 1 100 100;
#X restore 458 191 pd select_file;
#X obj 653 362 +~;
#N canvas 25 613 1011 805 echoRun 0;
#N canvas 0 23 450 278 (subpatch) 0;
#X array \$0-echoAmp 4 float 3;
#A 0 1 0.8 0.6 0.5;
#X coords 0 1 4 0 200 80 1 0 0;
#X restore 100 120 graph;
#N canvas 0 23 450 278 (subpatch) 0;
#X array \$0-echoWet 4 float 3;
#A 0 0.3 0.7 0.9 1;
#X coords 0 1 4 -1 200 80 1 0 0;
#X restore 100 215 graph;
#X obj 447 270 hradio 15 1 0 5 empty empty empty 0 -8 0 10 #fcc4c4
#c4fcc4 #000000 0;
#X obj 391 131 bng 15 250 50 0 empty empty empty 17 7 0 10 #fcfcfc
#000000 #000000;
#X obj 366 97 loadbang;
#X obj 413 450 outlet;
#X obj 510 452 outlet;
#X obj 590 16 inlet start;
#X obj 393 170 nbx 5 14 -1e+37 1e+37 0 1 empty empty empty 0 -8 0 10
#fcfcfc #000000 #000000 3 256;
#X obj 638 454 outlet;
#X obj 651 165 bng 15 250 50 0 empty empty empty 17 7 0 10 #fcfcfc
#000000 #000000;
#X msg 832 116 \$1;
#X obj 741 175 delay;
#X obj 741 207 delay;
#X obj 740 237 delay;
#X obj 744 137 bng 15 250 50 0 empty empty empty 17 7 0 10 #fcfcfc
#000000 #000000;
#X obj 815 186 bng 15 250 50 0 empty empty empty 17 7 0 10 #fcfcfc
#000000 #000000;
#X obj 818 221 bng 15 250 50 0 empty empty empty 17 7 0 10 #fcfcfc
#000000 #000000;
#X obj 815 253 bng 15 250 50 0 empty empty empty 17 7 0 10 #fcfcfc
#000000 #000000;
#X obj 105 301 hsl 190 15 0 1 0 0 empty empty empty -2 -8 0 10 #fcfcfc
#000000 #000000 0 1;
#X obj 301 333 expr $f1/($f2+1);
#X obj 427 364 tabread \$0-echoAmp;
#X obj 457 395 tabread \$0-echoWet;
#X obj 909 65 * 1;
#X obj 23 27 inlet vals;
#X obj 11 435 float \$0;
#X obj 28 477 list append;
#X obj 60 410 t b l;
#X obj 59 385 list;
#X msg 55 510 \; \$1-\$2 0 \$3 \$4 \$5 \$6;
#X floatatom 550 241 5 0 0 0 - - - 0;
#X obj 651 232 bng 15 250 50 0 empty empty empty 17 7 0 10 #fcfcfc
#000000 #000000;
#X obj 622 69 t b b;
#X obj 461 206 expr ($i2+1)%($i3+3);
#X obj 739 285 delay;
#X obj 815 289 bng 15 250 50 0 empty empty empty 17 7 0 10 #fcfcfc
#000000 #000000;
#X connect 2 0 20 0;
#X connect 2 0 21 0;
#X connect 2 0 22 0;
#X connect 2 0 33 1;
#X connect 3 0 8 0;
#X connect 4 0 3 0;
#X connect 7 0 23 0;
#X connect 7 0 32 0;
#X connect 8 0 20 1;
#X connect 8 0 33 2;
#X connect 10 0 33 0;
#X connect 11 0 12 1;
#X connect 11 0 13 1;
#X connect 11 0 14 1;
#X connect 11 0 34 1;
#X connect 12 0 13 0;
#X connect 12 0 16 0;
#X connect 13 0 14 0;
#X connect 13 0 17 0;
#X connect 14 0 18 0;
#X connect 14 0 34 0;
#X connect 15 0 31 0;
#X connect 15 0 12 0;
#X connect 16 0 10 0;
#X connect 16 0 31 0;
#X connect 17 0 10 0;
#X connect 17 0 31 0;
#X connect 18 0 10 0;
#X connect 18 0 31 0;
#X connect 20 0 19 0;
#X connect 21 0 5 0;
#X connect 22 0 6 0;
#X connect 23 0 11 0;
#X connect 24 0 28 0;
#X connect 25 0 26 0;
#X connect 26 0 29 0;
#X connect 27 0 25 0;
#X connect 27 1 26 1;
#X connect 28 0 27 0;
#X connect 30 0 2 0;
#X connect 31 0 9 0;
#X connect 32 0 15 0;
#X connect 32 1 30 0;
#X connect 33 0 2 0;
#X connect 34 0 35 0;
#X connect 35 0 10 0;
#X coords 0 -1 1 1 200 220 1 100 100;
#X restore 112 107 pd echoRun;
#X obj 217 494 *~ 1;
#X obj 661 304 tabplay~ 1-memory;
#X obj 372 385 bng 15 250 50 0 empty empty empty 17 7 0 10 #fcfcfc
#000000 #000000;
#X obj 574 458 else/xfade~ 2;
#X obj 264 498 *~ 1;
#X obj 706 358 else/float2sig~ 20;
#X msg 716 252 set \$1-memory;
#X obj 489 125 loadbang;
#X obj 376 53 inlet recLength;
#X obj 552 59 inlet curRecorder;
#X obj 244 561 outlet~;
#X obj 321 567 outlet~;
#X obj 469 304 carrier_player;
#X obj 758 55 inlet;
#X obj 141 49 inlet seqSettings;
#X obj 502 416 convo_workshop;
#X obj 649 425 convo_workshop;
#X connect 1 0 16 0;
#X connect 2 0 7 0;
#X connect 2 0 7 1;
#X connect 2 0 19 1;
#X connect 2 0 20 1;
#X connect 3 0 4 1;
#X connect 3 0 8 1;
#X connect 3 1 9 0;
#X connect 3 2 6 0;
#X connect 4 0 14 0;
#X connect 5 0 2 0;
#X connect 6 0 5 0;
#X connect 7 0 4 0;
#X connect 7 1 8 0;
#X connect 8 0 15 0;
#X connect 9 0 7 4;
#X connect 10 0 5 0;
#X connect 11 0 1 0;
#X connect 12 0 3 1;
#X connect 13 0 10 0;
#X connect 16 0 19 0;
#X connect 16 1 20 0;
#X connect 17 0 1 0;
#X connect 18 0 3 0;
#X connect 19 0 7 2;
#X connect 20 0 7 3;
#X coords 0 -1 1 1 220 230 1 100 100;
