#N canvas 941 461 450 300 10;
#X obj 87 180 outlet~;
#X obj 87 140 *~;
#X obj 87 63 inlet~;
#N canvas 620 171 528 516 shift_hann 0;
#X obj 37 8 r pd-dsp-started;
#X msg 220 160 resize \$1;
#X obj 65 146 else/loop;
#X obj 65 89 change;
#X obj 65 64 else/blocksize~;
#X obj 65 116 trigger float float;
#X obj 220 181 array define hann_shift_\$0;
#X obj 65 173 expr hann_shift_\$0[$f1] = sin(twopi*$f1/$f2) * -0.5
+ 0.5, f 23;
#X obj 36 31 t b b b;
#X obj 247 111 v twopi;
#X msg 247 43 1;
#X obj 247 65 atan;
#X obj 247 87 * 8;
#X obj 36 330 outlet~;
#X obj 36 284 tabreceive~;
#X obj 36 248 else/message set hann_shift_\$0;
#X connect 0 0 8 0;
#X connect 1 0 6 0;
#X connect 2 0 7 0;
#X connect 3 0 5 0;
#X connect 4 0 3 0;
#X connect 5 0 2 0;
#X connect 5 1 1 0;
#X connect 5 1 7 1;
#X connect 8 0 15 0;
#X connect 8 1 4 0;
#X connect 8 2 10 0;
#X connect 10 0 11 0;
#X connect 11 0 12 0;
#X connect 12 0 9 0;
#X connect 14 0 13 0;
#X connect 15 0 14 0;
#X restore 122 103 pd shift_hann;
#X connect 1 0 0 0;
#X connect 2 0 1 0;
#X connect 3 0 1 1;
