#N canvas 941 461 450 300 10;
#X obj 87 180 outlet~;
#X obj 87 140 *~;
#X obj 87 63 inlet~;
#N canvas 1424 339 450 300 shift_hann 0;
#X obj 65 40 r pd-dsp-started;
#X msg 220 160 resize \$1;
#X obj 65 146 else/loop;
#X obj 234 94 v twopi;
#X obj 65 89 change;
#X obj 65 64 else/blocksize~;
#X obj 65 116 trigger float float;
#X obj 109 267 outlet~;
#X obj 234 71 else/pi 2;
#X obj 220 181 array define hann_shift_\$0;
#X obj 109 236 tabreceive~ hann_shift_\$0;
#X obj 65 173 expr hann_shift_\$0[$f1] = sin(twopi*$f1/$f2) * -0.5
+ 0.5, f 23;
#X connect 0 0 5 0;
#X connect 1 0 9 0;
#X connect 2 0 11 0;
#X connect 4 0 6 0;
#X connect 5 0 4 0;
#X connect 6 0 2 0;
#X connect 6 1 1 0;
#X connect 6 1 11 1;
#X connect 8 0 3 0;
#X connect 10 0 7 0;
#X restore 122 103 pd shift_hann;
#X connect 1 0 0 0;
#X connect 2 0 1 0;
#X connect 3 0 1 1;
