#N canvas 516 104 1024 672 10;
#X obj 262 291 delread4~ \$0-delay2;
#X obj 309 204 pack 0 1000;
#X obj 309 229 line~;
#X obj 233 259 delwrite~ \$0-delay2 4000;
#X text 305 158 mic delay (ms);
#X obj 488 441 nbx 5 14 -1e+37 1e+37 0 1 empty empty empty 0 -8 0 10
#dcdcdc #000000 #000000 7652.84 256;
#X obj 579 329 nbx 5 14 0 3000 0 1 empty empty empty 0 -8 0 10 #dcdcdc
#000000 #000000 730.568 256;
#X text 645 330 Delay time (ms);
#X text 555 445 Feedback (Decay time in ms);
#X obj 661 855 vsl 18 80 -12 0 0 0 empty empty empty 0 -9 0 10 #dcdcdc
#000000 #000000 0 1;
#X obj 160 380 else/fbdelay~ 3000 6000;
#X obj 310 178 nbx 5 14 0 3000 0 1 empty empty empty 0 -8 0 10 #dcdcdc
#000000 #000000 870 256;
#X obj 461 233 *~ 800;
#X obj 461 281 +~ 801;
#X obj 488 392 else/sig2float~ 20;
#X obj 558 275 else/sig2float~ 20;
#X obj 462 185 -~;
#X floatatom 455 76 5 0 0 0 - - - 0;
#X obj 556 66 loadbang;
#X obj 485 317 +~ 800;
#X obj 476 351 *~ 5;
#X obj 222 1010 outlet~;
#X obj 367 1011 outlet~;
#X obj 104 506 nbx 5 14 -1e+37 1e+37 0 0 empty rate empty 0 -8 0 10
#dcdcdc #000000 #000000 0 256;
#X obj 166 506 nbx 5 14 -1e+37 1e+37 0 0 empty depth empty 0 -8 0 10
#dcdcdc #000000 #000000 0 256;
#X text 110 486 rate;
#X text 173 486 depth;
#X obj 227 506 nbx 5 14 0 1 0 0 empty wet empty 0 -8 0 10 #dcdcdc #000000
#000000 0 256;
#X obj 55 538 else/chorus~, f 22;
#X text 234 485 dry/wet;
#X obj 340 464 nbx 5 14 -1e+37 1e+37 0 0 empty rate empty 0 -8 0 10
#dcdcdc #000000 #000000 0 256;
#X obj 402 512 nbx 5 14 -1e+37 1e+37 0 0 empty depth empty 0 -8 0 10
#dcdcdc #000000 #000000 0 256;
#X text 346 444 rate;
#X text 409 492 depth;
#X obj 463 512 nbx 5 14 0 1 0 0 empty wet empty 0 -8 0 10 #dcdcdc #000000
#000000 0 256;
#X obj 297 538 else/chorus~, f 22;
#X text 470 491 dry/wet;
#X obj 242 627 else/xfade~ 2;
#X obj 710 553 hsl 128 15 -1 1 0 0 empty empty empty -2 -8 0 10 #dcdcdc
#000000 #000000 0 1;
#X floatatom 707 574 0 0 0 0 - - - 0;
#X text 692 552 A;
#X text 843 553 B;
#X obj 591 116 bng 15 250 50 0 empty empty empty 17 7 0 10 #fcfcfc
#000000 #000000;
#X floatatom 621 133 5 0 0 0 - - - 0;
#X obj 478 94 select 1;
#X obj 766 501 line;
#X obj 707 604 else/float2sig~ 100;
#X text 619 147 connect this to phasor 2 input to reset;
#X obj 606 525 env~ 128;
#X obj 614 598 vu 15 120 empty Input_Level -1 -8 0 10 #404040 #000000
1 0;
#X obj 608 552 - 100;
#X obj 344 852 vsl 18 80 -12 0 0 0 empty empty empty 0 -9 0 10 #dcdcdc
#000000 #000000 0 1;
#X obj 145 146 switch~;
#X obj 61 52 tgl 15 1 empty empty empty 17 7 0 10 #fcfcfc #000000 #000000
0 1;
#X obj 47 27 inlet;
#X obj 141 67 select 1 0;
#X msg 140 95 1;
#X obj 176 96 delay 500;
#X msg 175 121 0;
#X obj 58 92 s \$0-enable;
#X obj 165 925 r \$0-enable;
#X obj 244 948 else/autofade2~ 150 500 2;
#X obj 257 979 *~ 0.5;
#X obj 371 979 *~ 0.5;
#X obj 515 172 phasor~ 0.001;
#X obj 39 196 loadbang;
#X obj 138 721 else/flanger~;
#X obj 358 719 else/flanger~;
#X obj 229 670 nbx 5 14 -1e+37 1e+37 0 0 empty frate empty 0 -8 0 10
#dcdcdc #000000 #000000 0 256;
#X obj 288 671 nbx 5 14 -1e+37 1e+37 0 0 empty fdepth empty 0 -8 0
10 #dcdcdc #000000 #000000 0 256;
#X obj 347 671 nbx 5 14 -1e+37 1e+37 0 0 empty fcoefficient empty 0
-8 0 10 #dcdcdc #000000 #000000 0 256;
#X text 234 650 frate;
#X text 290 650 fdepth;
#X text 350 650 fcoefficient;
#X obj 119 765 else/xfade~ 1 0.33;
#X obj 343 761 else/xfade~ 1 0.33;
#X obj 45 837 hip~ 5;
#X obj 509 837 hip~ 5;
#X msg 764 471 -1 0 \, 1 500;
#X msg 38 218 \; rate 0.1 \; depth 5 \; wet 0.6 \; frate 1.77 \; fdepth
67 \; fcoefficient -0.66;
#X obj 445 696 * 1.33;
#X obj 340 497 * 1.25;
#X obj 30 798 else/giga.rev~ -maxsize 300 -size 250 -decay 13 -damp
0.5 -spread 1 -dry 0.5 -late 0.75 -wet 0.66;
#X obj 415 794 else/giga.rev~ -maxsize 300 -size 255 -decay 14 -damp
0.6 -spread 1 -dry 0.5 -late 0.75 -wet 0.66;
#X obj 316 44 mic_controller_jdn 41 11;
#X obj 116 865 else/compress~ -16 2 30 500 0 256;
#X obj 439 863 else/compress~ -16 2 30 500 0 256;
#X obj 313 103 *~ 0.8;
#X connect 0 0 10 0;
#X connect 1 0 2 0;
#X connect 2 0 0 0;
#X connect 10 0 28 0;
#X connect 10 0 35 0;
#X connect 11 0 1 0;
#X connect 12 0 13 0;
#X connect 13 0 10 1;
#X connect 13 0 15 0;
#X connect 13 0 19 0;
#X connect 14 0 5 0;
#X connect 15 0 6 0;
#X connect 16 0 12 0;
#X connect 17 0 16 0;
#X connect 17 0 44 0;
#X connect 18 0 42 0;
#X connect 19 0 20 0;
#X connect 20 0 10 2;
#X connect 20 0 14 0;
#X connect 23 0 28 1;
#X connect 24 0 28 2;
#X connect 27 0 28 3;
#X connect 28 0 37 0;
#X connect 28 0 37 2;
#X connect 30 0 81 0;
#X connect 31 0 35 2;
#X connect 34 0 35 3;
#X connect 35 0 37 1;
#X connect 35 0 37 3;
#X connect 37 0 66 0;
#X connect 37 0 74 0;
#X connect 37 1 67 0;
#X connect 37 1 75 0;
#X connect 38 0 39 0;
#X connect 39 0 46 0;
#X connect 42 0 43 0;
#X connect 42 0 78 0;
#X connect 44 0 42 0;
#X connect 45 0 38 0;
#X connect 46 0 37 4;
#X connect 48 0 50 0;
#X connect 50 0 49 0;
#X connect 53 0 55 0;
#X connect 53 0 59 0;
#X connect 54 0 53 0;
#X connect 55 0 56 0;
#X connect 55 1 57 0;
#X connect 56 0 52 0;
#X connect 57 0 58 0;
#X connect 58 0 52 0;
#X connect 60 0 61 0;
#X connect 61 0 62 0;
#X connect 61 1 63 0;
#X connect 62 0 21 0;
#X connect 63 0 22 0;
#X connect 64 0 16 1;
#X connect 65 0 79 0;
#X connect 66 0 74 1;
#X connect 67 0 75 1;
#X connect 68 0 66 1;
#X connect 68 0 80 0;
#X connect 69 0 66 2;
#X connect 69 0 67 2;
#X connect 70 0 66 3;
#X connect 70 0 67 3;
#X connect 74 0 82 0;
#X connect 75 0 83 0;
#X connect 76 0 85 0;
#X connect 77 0 86 0;
#X connect 78 0 45 0;
#X connect 80 0 67 1;
#X connect 81 0 35 1;
#X connect 82 0 76 0;
#X connect 83 1 77 0;
#X connect 84 0 87 0;
#X connect 84 1 17 0;
#X connect 85 0 61 1;
#X connect 85 1 51 0;
#X connect 86 0 48 0;
#X connect 86 0 61 2;
#X connect 86 1 9 0;
#X connect 87 0 3 0;
