#N canvas 579 425 1045 627 10;
#N canvas 275 299 862 687 (subpatch) 0;
#X array sample-table 11 float 0;
#X coords 0 1.02 10 -1.02 200 130 1 0 0;
#X restore 471 108 graph;
#X obj 150 304 loadbang;
#X obj 150 353 soundfiler;
#X obj 36 234 hip~ 5;
#X text 95 236 high pass filter to cut DC;
#X obj 36 202 tabread4~ sample-table;
#X obj 36 167 line~;
#X obj 36 118 * 441;
#X floatatom 38 48 0 0 100 0 - - -;
#X obj 36 142 pack 0 100;
#X text 101 30 SCRATCH MACHINE;
#X text 71 65 <-- read point in 100ths of a second;
#X text 93 118 convert to SAMPLES (441 samples in 0.01 sec);
#X text 83 167 convert smoothly to audio signal;
#X text 83 79 (range is 0-100.) YOU ONLY HEAR OUTPUT;
#X text 84 95 WHEN THIS IS 0-100 AND ACTIVELY CHANGING.;
#X obj 44 276 *~ 0.1;
#X obj 51 339 dac~;
#X msg 150 328 read -resize ../audio/watertap.wav sample-table;
#X floatatom 637 421 5 0 0 0 - - -;
#X msg 619 474 \; sample-table resize \$1;
#X connect 1 0 18 0;
#X connect 3 0 16 0;
#X connect 5 0 3 0;
#X connect 6 0 5 0;
#X connect 7 0 9 0;
#X connect 8 0 7 0;
#X connect 9 0 6 0;
#X connect 16 0 17 0;
#X connect 18 0 2 0;
#X connect 19 0 20 0;
